<?xml version="1.0" encoding="utf-8"?>
<!-- Generator: Adobe Illustrator 16.0.4, SVG Export Plug-In . SVG Version: 6.00 Build 0)  -->
<!DOCTYPE svg PUBLIC "-//W3C//DTD SVG 1.1//EN" "http://www.w3.org/Graphics/SVG/1.1/DTD/svg11.dtd">
<svg version="1.1" id="Layer_1" xmlns="http://www.w3.org/2000/svg" xmlns:xlink="http://www.w3.org/1999/xlink" x="0px" y="0px"
	 width="595.279px" height="841.891px" viewBox="0 0 595.279 841.891" enable-background="new 0 0 595.279 841.891"
	 xml:space="preserve">
<g>
	<g>
		<path fill="#CE1919" d="M38.059,443.39h56.112v22.934H5.855v-16.59l55.625-97.099H5.367v-22.933h87.828v16.102L38.059,443.39z"/>
		<path fill="#CE1919" d="M140.037,466.323h-27.812V329.701h27.324v136.622H140.037z"/>
		<path fill="#CE1919" d="M204.445,416.554h-13.662v49.77h-27.324V329.701h43.914c13.662,0,24.396,3.416,32.203,10.735
			c7.319,7.319,11.223,17.078,11.223,30.74c0,18.054-6.831,30.74-20.005,38.059l23.908,55.625v1.464h-29.764L204.445,416.554z
			 M190.782,393.133h15.614c5.367,0,9.759-1.952,12.198-5.367c2.928-3.416,3.903-8.783,3.903-14.638
			c0-13.662-5.367-20.493-16.102-20.493h-16.103v40.499H190.782z"/>
		<path d="M362.047,420.945c-0.488,15.614-4.879,27.325-13.174,35.131s-19.518,12.198-34.155,12.198
			c-15.614,0-27.324-4.879-35.619-15.126c-8.295-10.246-12.198-24.396-12.198-43.426V386.79c0-18.542,4.391-33.18,12.686-43.426
			s20.493-15.126,35.619-15.126c14.639,0,26.349,4.392,33.668,12.687c7.807,8.295,12.198,20.005,13.174,35.619h-27.812
			c-0.487-9.759-1.951-16.102-4.391-20.005c-2.928-3.416-7.808-5.367-15.126-5.367c-7.319,0-12.687,2.439-15.614,7.807
			c-2.928,5.367-4.879,13.662-4.879,25.373v25.86c0,13.663,1.464,22.933,4.391,27.812c2.928,4.88,8.295,7.808,15.614,7.808
			s12.198-1.952,15.126-5.367c2.928-3.416,4.392-9.759,4.879-19.03h27.812V420.945z"/>
		<path d="M474.76,410.21c0,18.542-4.392,32.692-13.174,42.451c-8.783,10.246-20.493,15.126-36.107,15.126
			c-15.126,0-27.324-4.88-36.107-15.126c-8.782-10.247-13.174-23.909-13.174-41.963v-22.933c0-18.542,4.392-33.18,13.174-43.914
			c8.783-10.735,20.981-15.614,36.107-15.614s27.324,5.367,36.107,15.614c8.782,10.247,13.174,24.884,13.174,43.426V410.21z
			 M447.436,387.277c0-12.198-1.952-21.469-5.367-27.324c-3.416-5.855-8.783-8.783-16.102-8.783c-7.319,0-12.687,2.928-16.103,8.783
			c-3.415,5.855-5.367,14.638-5.367,26.349v24.396c0,11.711,1.952,20.493,5.367,26.349c3.416,5.855,9.271,8.295,16.59,8.295
			c7.319,0,12.687-2.928,16.103-8.295c3.415-5.367,5.367-14.15,5.367-25.86v-23.909H447.436z"/>
		<path d="M589.912,466.323h-27.324l-40.498-89.78v89.292h-27.324V329.213h27.324l40.498,89.78v-89.292h27.324V466.323z"/>
	</g>
	<g>
		<path d="M27.324,478.521v24.885c0,3.415-0.976,5.855-2.928,7.807c-1.952,1.952-4.392,2.928-7.807,2.928
			c-3.416,0-6.344-0.976-7.808-2.928c-1.951-1.952-2.928-4.392-2.928-7.807v-24.885h3.904v24.885c0,2.439,0.487,3.903,1.464,5.367
			c0.976,1.464,2.439,1.951,4.879,1.951s3.903-0.487,4.879-1.951c0.977-1.464,1.464-2.928,1.464-5.367v-24.885H27.324z"/>
		<path d="M49.281,504.87c0-1.952-0.488-2.928-1.464-3.903c-0.976-0.977-2.439-1.952-5.367-2.928
			c-2.928-0.977-3.903-1.952-5.367-2.928c-1.464-0.977-2.439-1.952-2.928-3.416s-0.976-2.439-0.976-4.392
			c0-2.927,0.976-4.879,2.927-6.831c1.952-1.951,4.392-2.927,7.319-2.927c1.952,0,3.903,0.487,5.367,1.463
			c1.464,0.977,2.928,2.44,3.903,3.904c0.977,1.464,1.464,3.415,1.464,5.367H49.77c0-1.952-0.488-3.903-1.464-4.88
			c-0.977-0.976-2.44-1.951-4.392-1.951c-1.952,0-3.416,0.487-4.392,1.464c-0.976,0.976-1.464,2.439-1.464,4.391
			c0,1.464,0.488,2.928,1.464,3.904c0.976,0.976,2.928,1.951,4.879,2.927c3.416,0.977,5.855,2.44,7.319,4.392
			c1.464,1.952,1.952,3.416,1.952,6.344s-0.977,5.367-2.928,6.831c-1.952,1.951-4.392,2.439-7.807,2.439
			c-1.952,0-3.904-0.488-5.855-1.464c-1.952-0.976-2.928-1.952-3.903-3.903c-0.977-1.952-1.464-3.416-1.464-5.367h4.391
			c0,1.951,0.488,3.903,1.952,4.879c1.464,0.977,2.928,1.952,4.88,1.952c1.951,0,3.415-0.488,4.391-1.464
			C48.306,507.798,49.281,506.334,49.281,504.87z"/>
		<path d="M76.117,504.382h-11.71l-2.928,9.271h-4.392l11.223-35.131h3.903l11.223,35.131h-4.392L76.117,504.382z M65.383,500.479
			h9.759l-4.879-16.102L65.383,500.479z"/>
		<path d="M88.317,513.652v-35.131h10.246c3.416,0,5.855,0.976,7.319,2.439s2.439,3.903,2.439,6.831
			c0,1.464-0.488,2.928-1.464,4.392s-1.952,2.439-3.415,2.928c1.463,0.487,2.927,1.464,3.903,2.928
			c0.976,1.464,1.464,3.415,1.464,5.367c0,2.928-0.977,5.854-2.44,7.318c-1.951,1.952-4.391,2.928-7.318,2.928H88.317
			L88.317,513.652z M92.707,493.647h5.855c1.464,0,2.928-0.488,3.903-1.464c0.977-0.976,1.464-2.439,1.464-3.903
			c0-1.952-0.488-3.416-1.464-4.392s-1.951-1.464-3.903-1.464h-5.855V493.647z M92.707,497.062v12.687h5.855
			c1.464,0,2.928-0.487,3.903-1.464c0.977-0.976,1.464-2.439,1.464-4.879c0-4.392-1.951-6.344-5.367-6.344H92.707z"/>
		<path d="M120.031,513.652h-4.391v-35.131h4.391V513.652z"/>
		<path d="M132.231,509.749h13.662v3.903h-18.054v-35.131h4.392V509.749z"/>
		<path d="M155.652,513.652h-4.392v-35.131h4.392V513.652z"/>
		<path d="M183.463,482.425h-9.271v31.228h-4.392v-31.228h-9.271v-3.903h22.933V482.425L183.463,482.425z"/>
		<path d="M198.102,496.087l7.318-17.565h4.88l-10.247,21.957v13.174h-4.392v-13.174l-10.246-21.957h4.879L198.102,496.087z"/>
		<path d="M233.721,500.479h-9.759v-3.416h9.759V500.479z"/>
		<path d="M269.34,482.425h-9.271v31.228h-4.392v-31.228h-9.271v-3.903h22.934V482.425L269.34,482.425z"/>
		<path d="M291.784,497.551h-12.686v12.198h14.638v3.903h-19.029v-35.131h18.541v3.903h-14.149v11.223h12.686V497.551
			L291.784,497.551z"/>
		<path d="M321.549,502.43c0,3.904-1.464,6.832-3.416,8.783c-1.951,1.952-4.879,2.928-8.295,2.928c-3.415,0-6.343-1.464-8.295-3.903
			c-1.951-2.439-2.928-6.344-2.928-10.734v-6.344c0-4.392,0.977-8.295,3.416-10.734c1.951-2.439,4.879-3.903,8.782-3.903
			c3.416,0,5.855,0.976,7.808,2.928c1.951,1.951,2.928,4.879,2.928,8.782h-4.392c0-2.928-0.976-4.879-1.952-6.343
			c-0.976-1.464-2.439-1.952-4.879-1.952s-4.392,0.977-5.367,2.928c-1.464,1.952-1.952,4.392-1.952,8.295v6.344
			c0,3.415,0.488,6.343,1.952,8.294c0.976,1.952,2.928,2.928,5.367,2.928s3.903-0.487,4.879-1.951
			c0.976-0.977,1.464-3.416,1.952-6.344H321.549L321.549,502.43z"/>
		<path d="M350.337,513.652h-4.392v-16.102h-14.15v16.102h-4.392v-35.131h4.392v15.126h14.15v-15.126h4.392V513.652z"/>
		<path d="M381.076,513.652h-4.392l-14.149-27.324v27.324h-4.392v-35.131h4.392l14.149,27.324v-27.324h4.392V513.652z"/>
		<path d="M393.275,513.652h-4.391v-35.131h4.391V513.652z"/>
		<path d="M423.039,502.43c0,3.904-1.464,6.832-3.416,8.783c-1.951,1.952-4.879,2.928-8.295,2.928c-3.415,0-6.343-1.464-8.295-3.903
			c-1.951-2.439-2.928-6.344-2.928-10.734v-6.344c0-4.392,0.977-8.295,3.416-10.734c1.952-2.439,4.879-3.903,8.783-3.903
			c3.415,0,5.854,0.976,7.807,2.928c1.952,1.951,2.928,4.879,2.928,8.782h-4.392c0-2.928-0.976-4.879-1.952-6.343
			c-0.976-1.464-2.439-1.952-4.879-1.952s-4.392,0.977-5.367,2.928c-1.464,1.952-1.952,4.392-1.952,8.295v6.344
			c0,3.415,0.488,6.343,1.952,8.294c0.976,1.952,2.928,2.928,5.367,2.928s3.903-0.487,4.879-1.951
			c0.977-0.977,1.464-3.416,1.952-6.344H423.039L423.039,502.43z"/>
		<path d="M445.484,504.382h-11.71l-2.928,9.271h-4.392l11.223-35.131h3.903l11.223,35.131h-4.392L445.484,504.382z
			 M434.749,500.479h9.759l-4.879-16.102L434.749,500.479z"/>
		<path d="M462.073,509.749h13.662v3.903h-18.053v-35.131h4.391V509.749L462.073,509.749z"/>
		<path d="M500.133,500.479h-9.759v-3.416h9.759V500.479z"/>
		<path d="M532.824,504.382h-11.711l-2.927,9.271h-4.392l11.223-35.131h3.903l11.223,35.131h-4.392L532.824,504.382z
			 M522.09,500.479h9.759l-4.88-16.102L522.09,500.479z"/>
		<path d="M555.27,499.503h-6.344v14.149h-4.392v-35.131h9.759c3.416,0,5.855,0.976,7.808,2.928
			c1.951,1.951,2.439,4.392,2.439,7.807c0,1.952-0.488,3.903-1.464,5.855c-0.976,1.464-2.439,2.928-3.903,3.903l6.831,15.126v0.488
			h-4.88L555.27,499.503z M549.414,495.599h5.367c1.951,0,3.415-0.487,4.392-1.951c0.976-1.464,1.464-2.928,1.464-4.88
			c0-4.391-1.952-6.831-6.344-6.831h-5.367v13.662H549.414z"/>
		<path d="M589.912,482.425h-9.271v31.228h-4.392v-31.228h-9.271v-3.903h22.933V482.425z"/>
	</g>
	<g>
		<path fill="#090F0A" d="M9.79,311.445v-34.688h8.278l20.953,23.695v-23.695h7.544v34.688h-8.43l-20.8-23.695v23.695H9.79z"/>
		<path fill="#090F0A" d="M57.866,311.445v-34.688H86.12v4.758H67.274v9.68h15.455v4.641H67.274v10.688h20.281v4.922H57.866z"/>
		<path fill="#090F0A" d="M95.069,276.758h9.407v21.258c0,3.359,0.723,5.785,2.169,7.277c1.445,1.492,3.777,2.238,6.995,2.238
			c3.074,0,5.299-0.711,6.674-2.133s2.062-3.711,2.062-6.867v-21.773h8.186v21.305c0,3.203-0.397,5.645-1.191,7.324
			c-0.794,1.68-2.24,3.137-4.337,4.371c-2.871,1.703-6.73,2.555-11.576,2.555c-5.192,0-9.367-0.906-12.523-2.719
			c-2.179-1.25-3.701-2.73-4.566-4.441c-0.866-1.711-1.298-4.098-1.298-7.16V276.758z"/>
		<path fill="#090F0A" d="M141.495,311.445v-34.688h15.364c4.541,0,7.997,0.656,10.37,1.969c2.372,1.312,3.559,3.227,3.559,5.742
			c0,4.172-3.615,7.125-10.843,8.859c8.45,1.578,12.676,4.758,12.676,9.539c0,2.766-1.237,4.887-3.711,6.363
			c-2.474,1.477-6.022,2.215-10.645,2.215H141.495z M150.353,291.195h2.23c2.646,0,4.75-0.5,6.307-1.5s2.336-2.359,2.336-4.078
			c0-1.594-0.626-2.676-1.878-3.246s-3.619-0.855-7.102-0.855h-1.894V291.195z M150.353,306.523h2.016
			c3.95,0,6.674-0.324,8.17-0.973s2.245-1.832,2.245-3.551c0-1.766-1.003-3.234-3.009-4.406c-2.006-1.172-4.536-1.758-7.59-1.758
			h-1.833V306.523z"/>
		<path fill="#090F0A" d="M180.897,311.445v-34.688h9.408v34.688H180.897z"/>
		<path fill="#090F0A" d="M196.689,311.445l17.593-34.688h9.407l17.593,34.688h-9.652l-4.704-9.258h-18.693l-4.704,9.258H196.689z
			 M210.555,297.57h14.05l-7.025-13.828L210.555,297.57z"/>
		<path fill="#090F0A" d="M245.161,311.141v-5.953c4.867,1.562,9.031,2.344,12.493,2.344c2.423,0,4.332-0.414,5.727-1.242
			c1.395-0.828,2.092-1.953,2.092-3.375c0-1.125-0.438-2.074-1.313-2.848c-0.876-0.773-2.535-1.691-4.979-2.754l-3.024-1.289
			c-4.052-1.75-6.914-3.426-8.583-5.027c-1.67-1.602-2.504-3.473-2.504-5.613c0-2.859,1.369-5.156,4.108-6.891
			s6.358-2.602,10.858-2.602c3.604,0,7.667,0.398,12.187,1.195v5.555c-4.623-1.328-8.277-1.992-10.965-1.992
			c-2.077,0-3.741,0.355-4.994,1.066s-1.878,1.645-1.878,2.801c0,0.953,0.438,1.789,1.313,2.508
			c0.875,0.719,2.524,1.602,4.948,2.648l3.238,1.383c4.357,1.875,7.361,3.602,9.01,5.18c1.649,1.578,2.474,3.5,2.474,5.766
			c0,3.219-1.558,5.742-4.673,7.57c-3.116,1.828-7.413,2.742-12.89,2.742C254.182,312.312,249.967,311.922,245.161,311.141z"/>
		<path fill="#090F0A" d="M283.8,298.719v-4.336h27.886v4.336H283.8z"/>
		<path fill="#090F0A" d="M324.331,311.445v-21.398h-4.612v-4.336h4.612v-1.852c0-6.672,4.123-10.008,12.37-10.008
			c2.667,0,5.416,0.297,8.247,0.891v4.688c-2.566-0.828-4.867-1.242-6.903-1.242c-3.115,0-4.673,1.805-4.673,5.414v2.109h8.491
			v4.336h-8.491v21.398H324.331z"/>
		<path fill="#090F0A" d="M349.316,311.445v-37.008h9.041v37.008H349.316z"/>
		<path fill="#090F0A" d="M386.091,308.68c-3.014,2.234-6.241,3.352-9.683,3.352c-2.932,0-5.314-0.688-7.146-2.062
			c-1.833-1.375-2.749-3.156-2.749-5.344c0-2.844,1.481-5.035,4.444-6.574c2.962-1.539,7.202-2.309,12.721-2.309h2.413v-2.344
			c0-2.672-1.985-4.008-5.956-4.008c-3.522,0-7.086,0.766-10.69,2.297v-4.781c4.093-1.188,8.145-1.781,12.157-1.781
			c8.775,0,13.164,2.68,13.164,8.039v11.391c0,2.016,0.845,3.023,2.535,3.023c0.306,0,0.702-0.031,1.191-0.094l0.214,3.891
			c-1.915,0.438-3.604,0.656-5.07,0.656c-3.707,0-6.089-1.117-7.147-3.352H386.091z M386.091,304.953v-5.227h-2.138
			c-5.845,0-8.767,1.406-8.767,4.219c0,0.953,0.423,1.754,1.268,2.402s1.889,0.973,3.131,0.973
			C381.703,307.32,383.871,306.531,386.091,304.953z"/>
		<path fill="#090F0A" d="M414.71,311.445l-12.798-25.734h9.53l9.377,18.562l9.315-18.562h6.536l-12.92,25.734H414.71z"/>
		<path fill="#090F0A" d="M457.625,312.031c-5.233,0-9.393-1.215-12.478-3.645s-4.627-5.699-4.627-9.809
			c0-4.156,1.553-7.438,4.658-9.844c3.104-2.406,7.325-3.609,12.66-3.609c5.355,0,9.585,1.203,12.69,3.609s4.658,5.672,4.658,9.797
			c0,4.219-1.558,7.523-4.673,9.914S463.103,312.031,457.625,312.031z M457.778,307.695c5.192,0,7.789-3.055,7.789-9.164
			c0-2.797-0.688-5.008-2.062-6.633c-1.375-1.625-3.264-2.438-5.666-2.438c-2.383,0-4.261,0.812-5.636,2.438
			c-1.374,1.625-2.062,3.852-2.062,6.68c0,2.797,0.682,5.016,2.047,6.656C453.552,306.875,455.415,307.695,457.778,307.695z"/>
		<path fill="#090F0A" d="M483.495,311.445v-25.734h9.041v4.852c2.342-3.625,5.905-5.438,10.69-5.438c0.57,0,1.13,0.047,1.68,0.141
			v6.188c-1.282-0.359-2.474-0.539-3.573-0.539c-3.604,0-6.536,1.398-8.797,4.195v16.336H483.495z"/>
		<path fill="#090F0A" d="M539.239,310.578c-4.297,0.969-8.369,1.453-12.218,1.453c-5.6,0-10.019-1.219-13.256-3.656
			c-3.238-2.438-4.856-5.766-4.856-9.984c0-3.984,1.481-7.191,4.444-9.621c2.962-2.43,6.877-3.645,11.744-3.645
			c4.906,0,8.491,1.188,10.751,3.562c2.261,2.375,3.391,6.133,3.391,11.273h-20.801c0.611,4.906,4.124,7.359,10.538,7.359
			c3.033,0,6.454-0.539,10.263-1.617V310.578z M518.316,296.047h12.034c0-4.391-1.843-6.586-5.528-6.586
			C521.074,289.461,518.906,291.656,518.316,296.047z"/>
		<path fill="#090F0A" d="M569.691,311.445v-4.852c-2.321,3.625-5.977,5.438-10.966,5.438c-4.031,0-7.198-1.133-9.499-3.398
			s-3.451-5.383-3.451-9.352c0-4.312,1.298-7.75,3.895-10.312c2.596-2.562,6.083-3.844,10.461-3.844
			c3.502,0,6.689,1.062,9.561,3.188v-13.875h9.071v37.008H569.691z M569.691,292.438c-2.18-1.875-4.511-2.812-6.995-2.812
			c-2.22,0-3.991,0.82-5.314,2.461c-1.324,1.641-1.985,3.844-1.985,6.609c0,5.266,2.199,7.898,6.598,7.898
			c2.688,0,5.253-1.32,7.697-3.961V292.438z"/>
	</g>
</g>
</svg>
