<?xml version="1.0" encoding="UTF-8" standalone="no"?>
<!-- Created with Inkscape (http://www.inkscape.org/) -->

<svg
   xmlns:dc="http://purl.org/dc/elements/1.1/"
   xmlns:cc="http://creativecommons.org/ns#"
   xmlns:rdf="http://www.w3.org/1999/02/22-rdf-syntax-ns#"
   xmlns:svg="http://www.w3.org/2000/svg"
   xmlns="http://www.w3.org/2000/svg"
   xmlns:sodipodi="http://sodipodi.sourceforge.net/DTD/sodipodi-0.dtd"
   xmlns:inkscape="http://www.inkscape.org/namespaces/inkscape"
   width="31.136017mm"
   height="14.045918mm"
   viewBox="0 0 31.136017 14.045918"
   version="1.1"
   id="svg8"
   inkscape:version="0.92.3 (unknown)"
   sodipodi:docname="bise_temp.svg">
  <defs
     id="defs2" />
  <sodipodi:namedview
     id="base"
     pagecolor="#ffffff"
     bordercolor="#666666"
     borderopacity="1.0"
     inkscape:pageopacity="0.0"
     inkscape:pageshadow="2"
     inkscape:zoom="3.3604145"
     inkscape:cx="67.762853"
     inkscape:cy="-6.6794169"
     inkscape:document-units="mm"
     inkscape:current-layer="layer1"
     showgrid="false"
     fit-margin-top="1"
     fit-margin-left="1"
     fit-margin-right="1"
     fit-margin-bottom="1"
     inkscape:window-width="1918"
     inkscape:window-height="1027"
     inkscape:window-x="0"
     inkscape:window-y="24"
     inkscape:window-maximized="0" />
  <metadata
     id="metadata5">
    <rdf:RDF>
      <cc:Work
         rdf:about="">
        <dc:format>image/svg+xml</dc:format>
        <dc:type
           rdf:resource="http://purl.org/dc/dcmitype/StillImage" />
        <dc:title></dc:title>
      </cc:Work>
    </rdf:RDF>
  </metadata>
  <g
     inkscape:label="Layer 1"
     inkscape:groupmode="layer"
     id="layer1"
     transform="translate(-17.282656,-10.330116)">
    <g
       aria-label="BISE"
       style="font-style:normal;font-variant:normal;font-weight:bold;font-stretch:normal;font-size:15.05713081px;line-height:80.00000119%;font-family:Azonix;-inkscape-font-specification:'Azonix Bold';font-variant-ligatures:normal;font-variant-caps:normal;font-variant-numeric:normal;font-feature-settings:normal;text-align:center;writing-mode:lr-tb;text-anchor:middle;opacity:1;fill:#272727;fill-opacity:0.83197832;fill-rule:nonzero;stroke:none;stroke-width:2.2763536;stroke-linecap:round;stroke-linejoin:round;stroke-miterlimit:4;stroke-dasharray:none;stroke-dashoffset:0;stroke-opacity:1;paint-order:normal"
       id="text817">
      <path
         d="m 24.154937,14.913926 c 0,1.325028 -1.776741,1.325028 -1.776741,1.325028 H 20.57134 v -2.755455 h 1.806856 c 0,0 1.776741,-0.01506 1.776741,1.430427 z m 2.303741,-0.135514 c 0,-3.538426 -4.080482,-3.448083 -4.080482,-3.448083 h -3.929911 c -0.09034,0 -0.165629,0.07529 -0.165629,0.135514 v 7.016623 h 2.288684 1.806856 c 0,0 1.94237,-0.09034 1.94237,1.325028 0,1.159399 -1.189514,1.370199 -1.94237,1.370199 h -1.791799 v 2.198341 h 1.791799 c 0.813085,0 4.246111,-0.150572 4.246111,-3.508312 0,0 0.07528,-1.867084 -1.83697,-2.514541 0.918485,-0.376428 1.671341,-1.174456 1.671341,-2.574769 z"
         style="font-style:normal;font-variant:normal;font-weight:bold;font-stretch:normal;font-family:Blanka;-inkscape-font-specification:'Blanka Bold';stroke-width:2.2763536;fill:#272727;fill-opacity:0.83197832"
         id="path819" />
      <path
         d="m 31.955001,21.313207 h -1.20457 V 17.052039 13.393156 11.330329 H 28.44669 v 2.062827 3.658883 4.261168 h -1.234685 c -0.09034,0 -0.165628,0.06023 -0.165628,0.135514 v 1.791799 c 0,0.06023 0.07529,0.135514 0.165628,0.135514 h 4.742996 c 0.1054,0 0.165629,-0.07529 0.165629,-0.135514 v -1.791799 c 0,-0.07529 -0.06023,-0.135514 -0.165629,-0.135514 z"
         style="font-style:normal;font-variant:normal;font-weight:bold;font-stretch:normal;font-family:Blanka;-inkscape-font-specification:'Blanka Bold';stroke-width:2.2763536;fill:#272727;fill-opacity:0.83197832"
         id="path821" />
      <path
         d="m 37.895274,16.690668 c -0.858256,-0.406543 -1.701456,-0.406543 -1.776741,-0.406543 -0.767914,0 -1.505713,-0.451714 -1.505713,-1.325027 0,-0.963657 0.67757,-1.460542 1.505713,-1.460542 0.78297,0 1.445484,0.406543 1.475598,1.264799 0,0.04517 0.07529,0.120457 0.165629,0.120457 h 1.882141 c 0.1054,0 0.180686,-0.07529 0.165629,-0.120457 -0.03012,-2.04777 -1.62617,-3.433026 -3.688997,-3.433026 -1.927313,0 -3.749226,1.370199 -3.749226,3.628769 0,1.400313 0.707685,2.469369 1.957427,3.04154 0.873314,0.406543 1.686399,0.406543 1.791799,0.406543 0.677571,0.03011 1.505713,0.572171 1.505713,1.460541 0,0.798028 -0.707685,1.340085 -1.505713,1.340085 0,0 0,0 -0.01506,0 v 2.168227 c 0.01506,0 0.01506,0 0.01506,0 1.927312,0 3.734168,-1.249742 3.734168,-3.508312 0,-1.41537 -0.692628,-2.589826 -1.957427,-3.177054 z"
         style="font-style:normal;font-variant:normal;font-weight:bold;font-stretch:normal;font-family:Blanka;-inkscape-font-specification:'Blanka Bold';stroke-width:2.2763536;fill:#272727;fill-opacity:0.83197832"
         id="path823" />
      <path
         d="m 45.943075,21.132521 h -3.417968 v -2.710283 h 4.727939 c 0.09034,0 0.165628,-0.07529 0.165628,-0.135514 v -1.912256 c 0,-0.07529 -0.07529,-0.135514 -0.165628,-0.135514 h -4.727939 v -2.725341 h 3.417968 v -2.183284 h -5.556081 c -0.09034,0 -0.165629,0.07529 -0.165629,0.135514 V 23.24052 c 0,0.06023 0.07529,0.135514 0.165629,0.135514 h 5.556081 z"
         style="font-style:normal;font-variant:normal;font-weight:bold;font-stretch:normal;font-family:Blanka;-inkscape-font-specification:'Blanka Bold';stroke-width:2.2763536;fill:#272727;fill-opacity:0.83197832"
         id="path825" />
    </g>
  </g>
</svg>
