<?xml version="1.0" encoding="utf-8"?>
<!-- Generator: Adobe Illustrator 19.0.0, SVG Export Plug-In . SVG Version: 6.00 Build 0)  -->
<svg version="1.1" id="Layer_1" xmlns="http://www.w3.org/2000/svg" xmlns:xlink="http://www.w3.org/1999/xlink" x="0px" y="0px"
	 viewBox="0 0 122 39.6" style="enable-background:new 0 0 122 39.6;" xml:space="preserve">
<style type="text/css">
	.st0{fill:#CE1919;}
</style>
<g>
	<g>
		<path class="st0" d="M7.8,24.4h11.5v4.7H1.2v-3.4L12.6,5.8H1.1V1.1h18v3.3L7.8,24.4z"/>
		<path class="st0" d="M28.7,29.1H23v-28h5.6V29.1z"/>
		<path class="st0" d="M41.9,18.9h-2.8v10.2h-5.6v-28h9c2.8,0,5,0.7,6.6,2.2c1.5,1.5,2.3,3.5,2.3,6.3c0,3.7-1.4,6.3-4.1,7.8
			l4.9,11.4v0.3h-6.1L41.9,18.9z M39.1,14.1h3.2c1.1,0,2-0.4,2.5-1.1c0.6-0.7,0.8-1.8,0.8-3c0-2.8-1.1-4.2-3.3-4.2h-3.3V14.1z"/>
		<path d="M74.2,19.8c-0.1,3.2-1,5.6-2.7,7.2c-1.7,1.6-4,2.5-7,2.5c-3.2,0-5.6-1-7.3-3.1c-1.7-2.1-2.5-5-2.5-8.9v-4.7
			c0-3.8,0.9-6.8,2.6-8.9c1.7-2.1,4.2-3.1,7.3-3.1c3,0,5.4,0.9,6.9,2.6c1.6,1.7,2.5,4.1,2.7,7.3h-5.7c-0.1-2-0.4-3.3-0.9-4.1
			c-0.6-0.7-1.6-1.1-3.1-1.1c-1.5,0-2.6,0.5-3.2,1.6s-1,2.8-1,5.2v5.3c0,2.8,0.3,4.7,0.9,5.7c0.6,1,1.7,1.6,3.2,1.6
			c1.5,0,2.5-0.4,3.1-1.1c0.6-0.7,0.9-2,1-3.9H74.2z"/>
		<path d="M97.3,17.6c0,3.8-0.9,6.7-2.7,8.7c-1.8,2.1-4.2,3.1-7.4,3.1c-3.1,0-5.6-1-7.4-3.1c-1.8-2.1-2.7-4.9-2.7-8.6V13
			c0-3.8,0.9-6.8,2.7-9c1.8-2.2,4.3-3.2,7.4-3.2c3.1,0,5.6,1.1,7.4,3.2c1.8,2.1,2.7,5.1,2.7,8.9V17.6z M91.7,12.9
			c0-2.5-0.4-4.4-1.1-5.6c-0.7-1.2-1.8-1.8-3.3-1.8c-1.5,0-2.6,0.6-3.3,1.8c-0.7,1.2-1.1,3-1.1,5.4v5c0,2.4,0.4,4.2,1.1,5.4
			c0.7,1.2,1.9,1.7,3.4,1.7c1.5,0,2.6-0.6,3.3-1.7s1.1-2.9,1.1-5.3V12.9z"/>
		<path d="M120.9,29.1h-5.6L107,10.7v18.3h-5.6v-28h5.6l8.3,18.4V1.1h5.6V29.1z"/>
	</g>
	<g>
		<path d="M5.6,31.6v5.1c0,0.7-0.2,1.2-0.6,1.6c-0.4,0.4-0.9,0.6-1.6,0.6c-0.7,0-1.3-0.2-1.6-0.6c-0.4-0.4-0.6-0.9-0.6-1.6v-5.1H2
			v5.1c0,0.5,0.1,0.8,0.3,1.1s0.5,0.4,1,0.4c0.5,0,0.8-0.1,1-0.4s0.3-0.6,0.3-1.1v-5.1H5.6z"/>
		<path d="M10.1,37c0-0.4-0.1-0.6-0.3-0.8c-0.2-0.2-0.5-0.4-1.1-0.6S7.9,35.2,7.6,35c-0.3-0.2-0.5-0.4-0.6-0.7s-0.2-0.5-0.2-0.9
			c0-0.6,0.2-1,0.6-1.4s0.9-0.6,1.5-0.6c0.4,0,0.8,0.1,1.1,0.3c0.3,0.2,0.6,0.5,0.8,0.8c0.2,0.3,0.3,0.7,0.3,1.1h-0.9
			c0-0.4-0.1-0.8-0.3-1c-0.2-0.2-0.5-0.4-0.9-0.4c-0.4,0-0.7,0.1-0.9,0.3s-0.3,0.5-0.3,0.9c0,0.3,0.1,0.6,0.3,0.8
			c0.2,0.2,0.6,0.4,1,0.6c0.7,0.2,1.2,0.5,1.5,0.9S11,36.4,11,37c0,0.6-0.2,1.1-0.6,1.4c-0.4,0.4-0.9,0.5-1.6,0.5
			c-0.4,0-0.8-0.1-1.2-0.3c-0.4-0.2-0.6-0.4-0.8-0.8s-0.3-0.7-0.3-1.1h0.9c0,0.4,0.1,0.8,0.4,1s0.6,0.4,1,0.4c0.4,0,0.7-0.1,0.9-0.3
			S10.1,37.3,10.1,37z"/>
		<path d="M15.6,36.9h-2.4l-0.6,1.9h-0.9l2.3-7.2h0.8l2.3,7.2h-0.9L15.6,36.9z M13.4,36.1h2l-1-3.3L13.4,36.1z"/>
		<path d="M18.1,38.8v-7.2h2.1c0.7,0,1.2,0.2,1.5,0.5s0.5,0.8,0.5,1.4c0,0.3-0.1,0.6-0.3,0.9c-0.2,0.3-0.4,0.5-0.7,0.6
			c0.3,0.1,0.6,0.3,0.8,0.6s0.3,0.7,0.3,1.1c0,0.6-0.2,1.2-0.5,1.5c-0.4,0.4-0.9,0.6-1.5,0.6H18.1z M19,34.7h1.2
			c0.3,0,0.6-0.1,0.8-0.3c0.2-0.2,0.3-0.5,0.3-0.8c0-0.4-0.1-0.7-0.3-0.9s-0.4-0.3-0.8-0.3H19V34.7z M19,35.4V38h1.2
			c0.3,0,0.6-0.1,0.8-0.3c0.2-0.2,0.3-0.5,0.3-1c0-0.9-0.4-1.3-1.1-1.3H19z"/>
		<path d="M24.6,38.8h-0.9v-7.2h0.9V38.8z"/>
		<path d="M27.1,38h2.8v0.8h-3.7v-7.2h0.9V38z"/>
		<path d="M31.9,38.8H31v-7.2h0.9V38.8z"/>
		<path d="M37.6,32.4h-1.9v6.4h-0.9v-6.4h-1.9v-0.8h4.7V32.4z"/>
		<path d="M40.6,35.2l1.5-3.6h1l-2.1,4.5v2.7h-0.9v-2.7l-2.1-4.5h1L40.6,35.2z"/>
		<path d="M47.9,36.1h-2v-0.7h2V36.1z"/>
		<path d="M55.2,32.4h-1.9v6.4h-0.9v-6.4h-1.9v-0.8h4.7V32.4z"/>
		<path d="M59.8,35.5h-2.6V38h3v0.8h-3.9v-7.2h3.8v0.8h-2.9v2.3h2.6V35.5z"/>
		<path d="M65.9,36.5c0,0.8-0.3,1.4-0.7,1.8c-0.4,0.4-1,0.6-1.7,0.6c-0.7,0-1.3-0.3-1.7-0.8c-0.4-0.5-0.6-1.3-0.6-2.2v-1.3
			c0-0.9,0.2-1.7,0.7-2.2c0.4-0.5,1-0.8,1.8-0.8c0.7,0,1.2,0.2,1.6,0.6c0.4,0.4,0.6,1,0.6,1.8H65c0-0.6-0.2-1-0.4-1.3
			c-0.2-0.3-0.5-0.4-1-0.4c-0.5,0-0.9,0.2-1.1,0.6c-0.3,0.4-0.4,0.9-0.4,1.7v1.3c0,0.7,0.1,1.3,0.4,1.7c0.2,0.4,0.6,0.6,1.1,0.6
			c0.5,0,0.8-0.1,1-0.4c0.2-0.2,0.3-0.7,0.4-1.3H65.9z"/>
		<path d="M71.8,38.8h-0.9v-3.3H68v3.3h-0.9v-7.2H68v3.1h2.9v-3.1h0.9V38.8z"/>
		<path d="M78.1,38.8h-0.9l-2.9-5.6v5.6h-0.9v-7.2h0.9l2.9,5.6v-5.6h0.9V38.8z"/>
		<path d="M80.6,38.8h-0.9v-7.2h0.9V38.8z"/>
		<path d="M86.7,36.5c0,0.8-0.3,1.4-0.7,1.8c-0.4,0.4-1,0.6-1.7,0.6c-0.7,0-1.3-0.3-1.7-0.8c-0.4-0.5-0.6-1.3-0.6-2.2v-1.3
			c0-0.9,0.2-1.7,0.7-2.2c0.4-0.5,1-0.8,1.8-0.8c0.7,0,1.2,0.2,1.6,0.6c0.4,0.4,0.6,1,0.6,1.8h-0.9c0-0.6-0.2-1-0.4-1.3
			c-0.2-0.3-0.5-0.4-1-0.4c-0.5,0-0.9,0.2-1.1,0.6c-0.3,0.4-0.4,0.9-0.4,1.7v1.3c0,0.7,0.1,1.3,0.4,1.7c0.2,0.4,0.6,0.6,1.1,0.6
			c0.5,0,0.8-0.1,1-0.4c0.2-0.2,0.3-0.7,0.4-1.3H86.7z"/>
		<path d="M91.3,36.9h-2.4l-0.6,1.9h-0.9l2.3-7.2h0.8l2.3,7.2h-0.9L91.3,36.9z M89.1,36.1h2l-1-3.3L89.1,36.1z"/>
		<path d="M94.7,38h2.8v0.8h-3.7v-7.2h0.9V38z"/>
		<path d="M102.5,36.1h-2v-0.7h2V36.1z"/>
		<path d="M109.2,36.9h-2.4l-0.6,1.9h-0.9l2.3-7.2h0.8l2.3,7.2h-0.9L109.2,36.9z M107,36.1h2l-1-3.3L107,36.1z"/>
		<path d="M113.8,35.9h-1.3v2.9h-0.9v-7.2h2c0.7,0,1.2,0.2,1.6,0.6c0.4,0.4,0.5,0.9,0.5,1.6c0,0.4-0.1,0.8-0.3,1.2
			c-0.2,0.3-0.5,0.6-0.8,0.8l1.4,3.1v0.1h-1L113.8,35.9z M112.6,35.1h1.1c0.4,0,0.7-0.1,0.9-0.4s0.3-0.6,0.3-1
			c0-0.9-0.4-1.4-1.3-1.4h-1.1V35.1z"/>
		<path d="M120.9,32.4H119v6.4h-0.9v-6.4h-1.9v-0.8h4.7V32.4z"/>
	</g>
</g>
</svg>
