<?xml version="1.0" encoding="UTF-8" standalone="no"?>
<!-- Created with Inkscape (http://www.inkscape.org/) -->

<svg
   xmlns:dc="http://purl.org/dc/elements/1.1/"
   xmlns:cc="http://creativecommons.org/ns#"
   xmlns:rdf="http://www.w3.org/1999/02/22-rdf-syntax-ns#"
   xmlns:svg="http://www.w3.org/2000/svg"
   xmlns="http://www.w3.org/2000/svg"
   xmlns:sodipodi="http://sodipodi.sourceforge.net/DTD/sodipodi-0.dtd"
   xmlns:inkscape="http://www.inkscape.org/namespaces/inkscape"
   width="31.166372mm"
   height="40.098022mm"
   viewBox="0 0 31.166372 40.098022"
   version="1.1"
   id="svg4189"
   inkscape:version="0.92.4 (unknown)"
   sodipodi:docname="Biii_icon_website_COLOR.svg"
   inkscape:export-filename="/users/biocomp/delestro/Desktop/NEUBIAS/Biii logo/Biii2019logo/Biii_icon_COLOR.png"
   inkscape:export-xdpi="1199.6489"
   inkscape:export-ydpi="1199.6489">
  <defs
     id="defs4183" />
  <sodipodi:namedview
     id="base"
     pagecolor="#ffffff"
     bordercolor="#666666"
     borderopacity="1.0"
     inkscape:pageopacity="0.0"
     inkscape:pageshadow="2"
     inkscape:zoom="1.6241359"
     inkscape:cx="45.137883"
     inkscape:cy="-19.119575"
     inkscape:document-units="mm"
     inkscape:current-layer="layer1"
     showgrid="false"
     fit-margin-top="1"
     fit-margin-left="1"
     fit-margin-right="1"
     fit-margin-bottom="1"
     inkscape:window-width="958"
     inkscape:window-height="1027"
     inkscape:window-x="0"
     inkscape:window-y="24"
     inkscape:window-maximized="0" />
  <metadata
     id="metadata4186">
    <rdf:RDF>
      <cc:Work
         rdf:about="">
        <dc:format>image/svg+xml</dc:format>
        <dc:type
           rdf:resource="http://purl.org/dc/dcmitype/StillImage" />
        <dc:title></dc:title>
      </cc:Work>
    </rdf:RDF>
  </metadata>
  <g
     inkscape:label="Layer 1"
     inkscape:groupmode="layer"
     id="layer1"
     transform="translate(-79.974825,-95.947877)">
    <g
       transform="translate(3.2507986,-46.932795)"
       id="g3537">
      <g
         id="g1957"
         transform="matrix(0.65153317,0,0,0.65153317,-257.29667,-1024.2662)"
         inkscape:export-xdpi="599.73425"
         inkscape:export-ydpi="599.73425">
        <g
           transform="translate(-31.414865,-13.579329)"
           id="g1955">
          <path
             id="path1937"
             d="m 575.00453,1806.4994 c -0.62564,0 -1.26072,0.1272 -1.87105,0.3886 -2.4413,1.0458 -3.57606,3.8832 -2.53015,6.3246 0.4244,0.9907 1.14328,1.7663 2.01143,2.2684 l -1.21352,3.0331 h 1.49747 l 1.0073,-2.5167 c 0.97485,0.2355 2.03054,0.1705 3.02111,-0.2538 2.44139,-1.0459 3.57686,-3.8832 2.53095,-6.3246 -0.78442,-1.8311 -2.57665,-2.9271 -4.45354,-2.9196 z m -14.98898,0.28 c -0.45531,0 -0.91765,0.093 -1.36184,0.2831 -1.77675,0.7611 -2.60285,2.8259 -1.84169,4.6027 0.66739,1.5578 2.33668,2.3849 3.93561,2.0519 l 2.2232,5.1888 c 0.0923,-0.3652 0.2636,-0.7131 0.57028,-0.9669 h 0.002 c 0.12846,-0.1057 0.27029,-0.1879 0.41719,-0.2538 l -1.93449,-4.5162 c 1.34413,-0.9278 1.89758,-2.7069 1.23018,-4.2648 -0.57088,-1.3325 -1.87488,-2.1303 -3.24082,-2.1248 z m 14.99691,1.1104 c 1.33494,-0.01 2.60916,0.7745 3.16705,2.0765 0.74386,1.7364 -0.0633,3.7548 -1.79966,4.4987 -1.73644,0.7439 -3.75489,-0.064 -4.49875,-1.8004 -0.74387,-1.7364 0.0641,-3.7541 1.80045,-4.498 0.43411,-0.186 0.88592,-0.2751 1.33091,-0.2768 z m -14.98977,0.2808 c 0.82396,0 1.61075,0.4776 1.95512,1.2817 0.45917,1.0717 -0.0395,2.3168 -1.11121,2.776 -1.07171,0.4591 -2.31686,-0.038 -2.77603,-1.1104 -0.45917,-1.0718 0.0387,-2.3176 1.11042,-2.7768 0.26792,-0.1148 0.54705,-0.1694 0.8217,-0.1705 z m -9.61378,8.8618 c -0.62564,0 -1.26072,0.128 -1.87105,0.3895 -2.44131,1.0458 -3.57605,3.8824 -2.53015,6.3238 1.0459,2.4414 3.8824,3.5768 6.32379,2.5309 v 0 c 0.99066,-0.4244 1.76636,-1.144 2.26842,-2.0122 l 1.17545,0.4703 c 0.0771,-0.4079 0.281,-0.7927 0.61865,-1.0723 l 0.14832,-0.123 -1.42608,-0.5703 c 0.23543,-0.9749 0.17055,-2.0305 -0.25381,-3.0211 -0.78443,-1.831 -2.57665,-2.9271 -4.45354,-2.9196 z m 36.17086,0.3768 c -0.45531,0 -0.91765,0.093 -1.36184,0.2831 -1.55788,0.6674 -2.38491,2.3376 -2.05188,3.9365 l -2.28031,0.9771 v 1.5134 l 2.82838,-1.212 c 0.92779,1.3441 2.7069,1.8976 4.26477,1.2302 1.77675,-0.7611 2.60287,-2.8259 1.8417,-4.6027 -0.57087,-1.3325 -1.87488,-2.131 -3.24082,-2.1256 z m -36.16293,1.0176 c 1.33495,-0.01 2.60916,0.7745 3.16705,2.0765 0.74386,1.7363 -0.0641,3.7548 -1.80045,4.4987 -1.73644,0.7439 -3.7541,-0.064 -4.49796,-1.8004 -0.74386,-1.7363 0.0641,-3.7541 1.80045,-4.498 0.43411,-0.186 0.88593,-0.275 1.33091,-0.2768 z m 36.17007,0.3736 c 0.82398,0 1.61075,0.4777 1.95512,1.2817 0.45916,1.0718 -0.0394,2.3176 -1.11121,2.7768 -1.07171,0.4591 -2.31685,-0.039 -2.77602,-1.1112 -0.45916,-1.0718 0.0394,-2.3176 1.1112,-2.7768 0.26795,-0.1148 0.54625,-0.1694 0.82091,-0.1705 z m -1.04537,12.2946 c -0.62564,0 -1.2607,0.1272 -1.87104,0.3887 -0.99067,0.4244 -1.76556,1.144 -2.26762,2.0122 l -0.66784,-0.2673 c -0.14771,0.4568 -0.39939,0.8679 -0.72494,1.208 l 0.87564,0.3505 c -0.23544,0.9748 -0.16977,2.0306 0.2546,3.0212 1.0459,2.4413 3.88249,3.5768 6.3238,2.5309 2.4413,-1.0458 3.57685,-3.8832 2.53094,-6.3246 -0.78442,-1.831 -2.57662,-2.9271 -4.45354,-2.9196 z m 0.008,1.3904 c 1.33495,-0.01 2.60916,0.7753 3.16705,2.0773 0.74386,1.7364 -0.0633,3.754 -1.79966,4.4979 -1.73644,0.7439 -3.75489,-0.064 -4.49875,-1.7996 -0.74386,-1.7364 0.0641,-3.7549 1.80045,-4.4988 0.43411,-0.186 0.88593,-0.275 1.33091,-0.2768 z m -36.03365,0.8606 c -0.49733,-0.017 -1.00588,0.072 -1.49271,0.2808 -1.77676,0.7612 -2.60287,2.8259 -1.8417,4.6026 0.76117,1.7768 2.8259,2.6029 4.60266,1.8417 1.55786,-0.6674 2.38492,-2.3366 2.05188,-3.9356 l 0.98193,-0.4204 c -0.004,-0.066 -0.0103,-0.1309 -0.0103,-0.1975 0,-0.54 0.15165,-1.044 0.40451,-1.4848 l -1.92339,0.8241 c -0.63785,-0.9241 -1.67875,-1.4741 -2.77286,-1.5109 z m -0.12294,1.3888 c 0.82395,0 1.60995,0.4776 1.95432,1.2817 0.45916,1.0718 -0.0387,2.317 -1.11041,2.776 -1.0718,0.4593 -2.31766,-0.038 -2.77682,-1.1104 -0.45916,-1.0718 0.0394,-2.3176 1.1112,-2.7768 0.26795,-0.1148 0.54706,-0.1694 0.82171,-0.1705 z m 23.51059,3.8238 c -0.48946,2e-4 -1.01337,0 -1.51334,0 l 2.58567,6.0351 c -1.34414,0.9278 -1.89678,2.7069 -1.22938,4.2648 0.76116,1.7768 2.82512,2.6029 4.60186,1.8417 1.77675,-0.7612 2.60366,-2.826 1.8425,-4.6027 -0.6674,-1.5579 -2.33748,-2.385 -3.93641,-2.0519 z m -9.52496,0 -1.28252,3.2051 c -0.97485,-0.2354 -2.03056,-0.1706 -3.02112,0.2538 -2.44139,1.0459 -3.57685,3.8832 -2.53094,6.3246 1.0459,2.4414 3.88327,3.5769 6.32459,2.531 2.4413,-1.0459 3.57684,-3.8833 2.53094,-6.3246 -0.42441,-0.9907 -1.14407,-1.7664 -2.01222,-2.2684 l 1.48874,-3.7207 c -0.50265,2e-4 -0.99414,-8e-4 -1.49747,-8e-4 z m -2.42546,4.4607 c 1.33496,-0.01 2.60995,0.7753 3.16785,2.0773 0.74386,1.7363 -0.0641,3.754 -1.80045,4.4979 -1.73644,0.7439 -3.7541,-0.064 -4.49796,-1.8004 -0.74386,-1.7363 0.0641,-3.7541 1.80045,-4.498 0.43411,-0.186 0.88513,-0.2751 1.33011,-0.2768 z m 15.00405,2.3422 c 0.82396,0 1.61074,0.4777 1.95511,1.2817 0.45917,1.0718 -0.0395,2.3177 -1.1112,2.7768 -1.07171,0.4592 -2.31766,-0.039 -2.77682,-1.1112 -0.45916,-1.0718 0.0395,-2.3169 1.1112,-2.776 0.26793,-0.1148 0.54705,-0.1702 0.82171,-0.1713 z"
             style="fill:#1e1e1e;fill-opacity:1;stroke-width:0.09272421"
             inkscape:connector-curvature="0" />
          <path
             sodipodi:nodetypes="ccccccccccccccccccccccsssscssccssscssssccccccccccssssccccccccccccscccccscsssccccccccccccccccscccscccsccsscccssscccccsccccssscc"
             style="fill:#1e1e1e;fill-opacity:1;stroke-width:0.38242579"
             d="m 564.66051,1818.8201 c -0.10395,0.01 -0.20654,0.051 -0.29307,0.1222 -0.2307,0.1909 -0.26283,0.5331 -0.0719,0.7638 l 0.24015,0.2897 -0.95587,0.791 -0.3324,-0.4009 c -0.1907,-0.2305 -0.5325,-0.2635 -0.76321,-0.073 l -5.26435,4.3574 c -0.23067,0.191 -0.26283,0.5331 -0.0719,0.7638 l 0.33173,0.401 -1.61255,1.3344 c -0.23057,0.1909 -0.26281,0.5332 -0.0719,0.7639 l 1.46261,1.7665 c 0.19099,0.2307 0.53253,0.2629 0.7632,0.072 l 1.61256,-1.3344 0.43145,0.5217 c 0.19092,0.2306 0.53249,0.2628 0.7632,0.072 l 1.04201,-0.8623 c 0.28538,0.1924 0.61917,0.3182 0.97894,0.3549 0.61418,1.2619 0.90893,2.53 0.8982,3.8601 -0.39983,0.3683 -0.69257,0.8505 -0.82697,1.3947 h -1.33242 v -1.7053 c 0,-0.2996 -0.24325,-0.5428 -0.54273,-0.5428 h -3.50093 c -0.29947,0 -0.45136,0.2573 -0.54204,0.5428 v 1.7054 h -0.15468 c -0.96176,0 -1.74415,0.7824 -1.74415,1.7442 0,0.9641 0.78018,1.7435 1.74415,1.7435 5.84159,0.014 12.21133,0 17.69336,0 0.32251,0 0.58342,-0.2809 0.58342,-0.6034 0,-0.3225 -0.26091,-0.5841 -0.58342,-0.5841 -1.05762,0 -1.9185,-0.8602 -1.9185,-1.9179 v -0.042 h 5.12957 c 1.00896,0 1.83507,-0.8157 1.83507,-1.835 v -10.6339 c 0,-1.026 -0.83339,-1.835 -1.83507,-1.835 h -11.95835 c -0.22787,-0.2753 -0.53203,-0.6433 -0.66279,-0.8012 -0.11935,-0.1442 -0.29755,-0.211 -0.47081,-0.1941 z m 0.56646,2.0115 c 0.29397,0.3551 0.12069,0.1455 0.77065,0.9308 l -0.95586,0.7916 -0.77065,-0.9314 z m 1.53385,0.1519 h 10.99161 c 0.36736,0 0.66686,0.2973 0.66686,0.6669 v 8.1319 c 0,0.3675 -0.29724,0.6669 -0.66686,0.6669 h -10.52012 c -0.36076,-1.404 -1.0252,-2.6965 -2.02094,-3.9041 0.0264,-0.3597 -0.0359,-0.6982 -0.16689,-1.0034 l 1.04812,-0.8677 c 0.23068,-0.1909 0.26279,-0.5324 0.0719,-0.7632 l -0.43146,-0.5216 0.95586,-0.791 0.24015,0.2896 c 0.19098,0.2308 0.53316,0.2628 0.76387,0.072 0.23072,-0.1909 0.26283,-0.5325 0.0719,-0.7631 -0.22147,-0.2677 -0.61472,-0.7427 -1.00403,-1.2131 z m -4.00321,0.5116 c 0.24628,0.2976 1.93314,2.3354 2.22582,2.6892 l -0.60378,0.5005 c -1.79717,-1.3879 -4.26,0.6396 -3.22781,2.6709 l -0.59699,0.4939 c -0.19936,-0.2409 -1.99352,-2.4085 -2.22582,-2.6892 z m 0.3107,3.8261 c 0.58704,0 1.06508,0.4774 1.06508,1.0645 0,0.5869 -0.47804,1.065 -1.06508,1.065 -0.58701,0 -1.0644,-0.4781 -1.0644,-1.065 0,-0.5871 0.47735,-1.0645 1.0644,-1.0645 z m -4.89667,1.35 0.77066,0.9308 -1.19466,0.9891 -0.77134,-0.9315 z m 6.57977,1.0495 c 0.89859,1.2309 1.43828,2.5562 1.63494,4.0161 -0.50487,-0.1366 -1.05066,-0.1328 -1.56913,0.028 -0.0665,-1.1724 -0.34935,-2.3035 -0.85614,-3.4252 0.30995,-0.1422 0.58048,-0.3554 0.79033,-0.6194 z m 2.60573,3.2733 c 0.014,0.068 0.0241,0.1381 0.0367,0.2069 -0.0121,-0.069 -0.0232,-0.1384 -0.0367,-0.2069 z m 11.06215,0.4979 v 0.7924 c 0,0.3674 -0.29724,0.6669 -0.66686,0.6669 h -9.7264 c -0.13735,-0.2163 -0.30048,-0.4151 -0.4898,-0.5862 -0.0151,-0.2533 -0.32171,-0.7483 -0.0733,-0.7483 h 10.28947 c 0.23207,0 0.4571,-0.043 0.66686,-0.1248 z m -20.33223,1.1235 h 2.41618 v 1.1634 h -2.41618 z m 7.56526,0.1085 c 0.9535,0 1.72923,0.7757 1.72923,1.7293 0,0.9533 -0.77592,1.729 -1.72923,1.7292 h -6.9e-4 -10e-4 c -0.95288,-6e-4 -1.72788,-0.7763 -1.72788,-1.7292 0,-0.9536 0.77642,-1.7293 1.72992,-1.7293 z m 2.997,1.3955 h 2.80605 v 0.042 c 4e-5,0.7242 1.34298,1.9179 0.66957,1.9179 h -4.14587 c 0.41926,-0.527 0.67025,-1.1937 0.67025,-1.9179 z m -11.80159,0.7395 h 6.02055 c 0.0723,0.4926 0.27304,0.944 0.56647,1.3194 h -6.58702 c -0.36479,0 -0.66008,-0.2947 -0.66008,-0.6593 0,-0.3638 0.2963,-0.6601 0.66008,-0.6601 z"
             id="path1939"
             inkscape:connector-curvature="0" />
          <path
             inkscape:connector-curvature="0"
             style="fill:#ffe686;fill-opacity:1;stroke-width:0.38242579"
             d="m 558.08706,1832.6154 h 2.41618 v 1.1634 h -2.41618 z"
             id="path1941" />
          <path
             inkscape:connector-curvature="0"
             id="path1943"
             d="m 566.76082,1820.9835 h 10.99161 c 0.36736,0 0.66686,0.2973 0.66686,0.6669 v 8.1319 c 0,0.3675 -0.29724,0.6669 -0.66686,0.6669 h -10.52012 c -0.36076,-1.404 -1.0252,-2.6965 -2.02094,-3.9041 0.0264,-0.3597 -0.0359,-0.6982 -0.16689,-1.0034 l 1.04812,-0.8677 c 0.23068,-0.1909 0.26279,-0.5324 0.0719,-0.7632 l -0.43146,-0.5216 0.95586,-0.791 0.24015,0.2896 c 0.19098,0.2308 0.53316,0.2628 0.76387,0.072 0.23072,-0.1909 0.26283,-0.5325 0.0719,-0.7631 -0.22147,-0.2677 -0.61472,-0.7427 -1.00403,-1.2131 z"
             style="fill:#ff8686;fill-opacity:1;stroke-width:0.38242579" />
          <path
             id="path1945"
             d="m 559.20128,1808.3411 c 1.0717,-0.4591 2.31725,0.039 2.77641,1.1111 0.45917,1.0717 -0.0393,2.3172 -1.11102,2.7764 -1.07171,0.4591 -2.31725,-0.039 -2.77641,-1.111 -0.45917,-1.0718 0.0393,-2.3173 1.11102,-2.7765 z"
             style="fill:#ffe686;fill-opacity:1;stroke-width:0.09272421"
             inkscape:connector-curvature="0" />
          <path
             id="path1947"
             d="m 549.08567,1818.7036 c 1.73644,-0.7439 3.75429,0.064 4.49815,1.8 0.74386,1.7363 -0.0636,3.7542 -1.79999,4.4981 -1.73644,0.7439 -3.75429,-0.064 -4.49815,-1.8 -0.74386,-1.7363 0.0636,-3.7542 1.79999,-4.4981 z"
             style="fill:#ff8686;fill-opacity:1;stroke-width:0.09272421"
             inkscape:connector-curvature="0" />
          <path
             id="path1949"
             d="m 576.80096,1849.423 c -1.07171,0.4592 -2.31726,-0.039 -2.77642,-1.111 -0.45916,-1.0718 0.0393,-2.3173 1.11102,-2.7764 1.07171,-0.4591 2.31725,0.039 2.77642,1.111 0.45916,1.0718 -0.0393,2.3173 -1.11102,2.7764 z"
             style="fill:#ffe686;fill-opacity:1;stroke-width:0.09272421"
             inkscape:connector-curvature="0" />
          <path
             id="path1951"
             d="m 587.43104,1822.8587 c -1.07171,0.4591 -2.31725,-0.039 -2.77642,-1.1111 -0.45916,-1.0718 0.0392,-2.3172 1.11102,-2.7764 1.0718,-0.4591 2.31726,0.039 2.77642,1.111 0.45916,1.0718 -0.0392,2.3173 -1.11102,2.7765 z"
             style="fill:#ffb686;fill-opacity:1;stroke-width:0.09272421"
             inkscape:connector-curvature="0" />
          <path
             id="path1953"
             d="m 562.32078,1849.5975 c -1.73644,0.7439 -3.75429,-0.064 -4.49815,-1.8 -0.74386,-1.7363 0.0636,-3.7542 1.79999,-4.4981 1.73644,-0.7439 3.75429,0.064 4.49815,1.8 0.74386,1.7363 -0.0636,3.7542 -1.79999,4.4981 z"
             style="fill:#ffb686;fill-opacity:1;stroke-width:0.09272421"
             inkscape:connector-curvature="0" />
        </g>
      </g>
      <text
         xml:space="preserve"
         style="font-style:normal;font-variant:normal;font-weight:500;font-stretch:normal;font-size:7.69672632px;line-height:100%;font-family:'Keep Calm';-inkscape-font-specification:'Keep Calm Medium';font-variant-ligatures:normal;font-variant-caps:normal;font-variant-numeric:normal;font-feature-settings:normal;text-align:start;writing-mode:lr-tb;text-anchor:start;opacity:1;fill:#1e1e1e;fill-opacity:1;fill-rule:nonzero;stroke:none;stroke-width:1.21208286;stroke-linecap:round;stroke-linejoin:round;stroke-miterlimit:4;stroke-dasharray:none;stroke-dashoffset:3.82677174;stroke-opacity:1;paint-order:fill markers stroke"
         x="83.292496"
         y="181.87094"
         id="text1961"><tspan
           id="tspan1959"
           sodipodi:role="line"
           x="83.292496"
           y="181.87094"
           style="font-style:normal;font-variant:normal;font-weight:900;font-stretch:condensed;font-family:'Helvetica Neue';-inkscape-font-specification:'Helvetica Neue Heavy Condensed';letter-spacing:-0.11853679px;fill:#1e1e1e;fill-opacity:1;stroke-width:1.21208286">biii.eu</tspan></text>
    </g>
  </g>
</svg>
