<?xml version="1.0" encoding="UTF-8" standalone="no"?>
<!-- Created with Inkscape (http://www.inkscape.org/) -->

<svg
   xmlns:dc="http://purl.org/dc/elements/1.1/"
   xmlns:cc="http://creativecommons.org/ns#"
   xmlns:rdf="http://www.w3.org/1999/02/22-rdf-syntax-ns#"
   xmlns:svg="http://www.w3.org/2000/svg"
   xmlns="http://www.w3.org/2000/svg"
   xmlns:sodipodi="http://sodipodi.sourceforge.net/DTD/sodipodi-0.dtd"
   xmlns:inkscape="http://www.inkscape.org/namespaces/inkscape"
   width="70.862846mm"
   height="31.166452mm"
   viewBox="0 0 70.862846 31.166452"
   version="1.1"
   id="svg4189"
   inkscape:version="0.92.4 (unknown)"
   sodipodi:docname="Biii_long.svg"
   inkscape:export-filename="/users/biocomp/delestro/Desktop/NEUBIAS/Biii logo/Biii2019logo/Biii.png"
   inkscape:export-xdpi="1199.6489"
   inkscape:export-ydpi="1199.6489">
  <defs
     id="defs4183" />
  <sodipodi:namedview
     id="base"
     pagecolor="#ffffff"
     bordercolor="#666666"
     borderopacity="1.0"
     inkscape:pageopacity="0.0"
     inkscape:pageshadow="2"
     inkscape:zoom="1.6241359"
     inkscape:cx="65.738434"
     inkscape:cy="67.458135"
     inkscape:document-units="mm"
     inkscape:current-layer="layer1"
     showgrid="false"
     fit-margin-top="1"
     fit-margin-left="1"
     fit-margin-right="1"
     fit-margin-bottom="1"
     inkscape:window-width="958"
     inkscape:window-height="1027"
     inkscape:window-x="0"
     inkscape:window-y="24"
     inkscape:window-maximized="0" />
  <metadata
     id="metadata4186">
    <rdf:RDF>
      <cc:Work
         rdf:about="">
        <dc:format>image/svg+xml</dc:format>
        <dc:type
           rdf:resource="http://purl.org/dc/dcmitype/StillImage" />
        <dc:title></dc:title>
      </cc:Work>
    </rdf:RDF>
  </metadata>
  <g
     inkscape:label="Layer 1"
     inkscape:groupmode="layer"
     id="layer1"
     transform="translate(-61.491692,-118.50076)">
    <g
       transform="translate(30.709376,44.93579)"
       id="g4158">
      <path
         inkscape:connector-curvature="0"
         d="m 58.86068,80.97567 v -1.49141 h 1.312795 q 0.187544,0 0.357225,0.0359 0.178612,0.0269 0.312567,0.10717 0.133961,0.0803 0.214338,0.22325 0.08037,0.14287 0.08037,0.36613 0,0.40189 -0.241122,0.58052 -0.241127,0.17857 -0.616214,0.17857 z m -1.4021,-2.58092 v 6.37642 h 3.089983 q 0.428665,0 0.830541,-0.10717 0.410808,-0.10716 0.723376,-0.33042 0.321504,-0.22326 0.509048,-0.57154 0.187538,-0.35725 0.187538,-0.83947 0,-0.59837 -0.29471,-1.01811 -0.285778,-0.42867 -0.875193,-0.59837 0.428665,-0.20541 0.643003,-0.5269 0.223264,-0.3215 0.223264,-0.80373 0,-0.44651 -0.151823,-0.75016 -0.142887,-0.30365 -0.410808,-0.48228 -0.267916,-0.18755 -0.642998,-0.26788 -0.375088,-0.0804 -0.830547,-0.0804 z m 1.4021,5.28691 v -1.75042 h 1.527128 q 0.455459,0 0.732312,0.21433 0.276847,0.20541 0.276847,0.69661 0,0.25003 -0.08931,0.41081 -0.08037,0.16072 -0.223265,0.25896 -0.142886,0.0893 -0.33043,0.134 -0.187544,0.0359 -0.392945,0.0359 z"
         style="font-style:normal;font-variant:normal;font-weight:bold;font-stretch:normal;font-size:16.90843773px;line-height:100%;font-family:'Helvetica Neue';-inkscape-font-specification:'Helvetica Neue Bold';font-variant-ligatures:normal;font-variant-caps:normal;font-variant-numeric:normal;font-feature-settings:normal;text-align:start;letter-spacing:-1.00130415px;writing-mode:lr-tb;text-anchor:start;fill:#1e1e1e;fill-opacity:1;fill-rule:nonzero;stroke:none;stroke-width:1.40639091;stroke-linecap:round;stroke-linejoin:round;stroke-miterlimit:4;stroke-dasharray:none;stroke-dashoffset:3.82677174;stroke-opacity:1;paint-order:fill markers stroke"
         id="path3643" />
      <path
         inkscape:connector-curvature="0"
         d="M 64.378938,79.43963 V 78.39475 H 63.1108 v 1.04488 z M 63.1108,80.15409 v 4.61708 h 1.268138 v -4.61708 z"
         style="font-style:normal;font-variant:normal;font-weight:bold;font-stretch:normal;font-size:16.90843773px;line-height:100%;font-family:'Helvetica Neue';-inkscape-font-specification:'Helvetica Neue Bold';font-variant-ligatures:normal;font-variant-caps:normal;font-variant-numeric:normal;font-feature-settings:normal;text-align:start;letter-spacing:-1.00130415px;writing-mode:lr-tb;text-anchor:start;fill:#1e1e1e;fill-opacity:1;fill-rule:nonzero;stroke:none;stroke-width:1.40639091;stroke-linecap:round;stroke-linejoin:round;stroke-miterlimit:4;stroke-dasharray:none;stroke-dashoffset:3.82677174;stroke-opacity:1;paint-order:fill markers stroke"
         id="path3645" />
      <path
         inkscape:connector-curvature="0"
         d="m 65.973884,82.46707 q 0,-0.27682 0.05358,-0.54476 0.05358,-0.26789 0.178612,-0.4733 0.133956,-0.2054 0.348294,-0.33042 0.214332,-0.134 0.535831,-0.134 0.321505,0 0.535837,0.134 0.223265,0.12502 0.348294,0.33042 0.133955,0.20541 0.187543,0.4733 0.05358,0.26794 0.05358,0.54476 0,0.27687 -0.05358,0.54481 -0.05359,0.25896 -0.187543,0.4733 -0.125029,0.2054 -0.348294,0.33042 -0.214332,0.12502 -0.535837,0.12502 -0.321499,0 -0.535831,-0.12502 -0.214338,-0.12502 -0.348294,-0.33042 -0.125029,-0.21434 -0.178612,-0.4733 -0.05358,-0.26794 -0.05358,-0.54481 z m -1.268144,0 q 0,0.55374 0.169681,1.00025 0.169681,0.44652 0.482254,0.76802 0.312567,0.31257 0.750164,0.48227 0.437602,0.16965 0.982365,0.16965 0.544769,0 0.982366,-0.16965 0.446528,-0.1697 0.759101,-0.48227 0.312567,-0.3215 0.482248,-0.76802 0.169681,-0.44651 0.169681,-1.00025 0,-0.55369 -0.169681,-1.0002 -0.169681,-0.45545 -0.482248,-0.76802 -0.312573,-0.3215 -0.759101,-0.4912 -0.437597,-0.17863 -0.982366,-0.17863 -0.544763,0 -0.982365,0.17863 -0.437597,0.1697 -0.750164,0.4912 -0.312573,0.31257 -0.482254,0.76802 -0.169681,0.44651 -0.169681,1.0002 z"
         style="font-style:normal;font-variant:normal;font-weight:bold;font-stretch:normal;font-size:16.90843773px;line-height:100%;font-family:'Helvetica Neue';-inkscape-font-specification:'Helvetica Neue Bold';font-variant-ligatures:normal;font-variant-caps:normal;font-variant-numeric:normal;font-feature-settings:normal;text-align:start;letter-spacing:-1.00130415px;writing-mode:lr-tb;text-anchor:start;fill:#1e1e1e;fill-opacity:1;fill-rule:nonzero;stroke:none;stroke-width:1.40639091;stroke-linecap:round;stroke-linejoin:round;stroke-miterlimit:4;stroke-dasharray:none;stroke-dashoffset:3.82677174;stroke-opacity:1;paint-order:fill markers stroke"
         id="path3647" />
      <path
         inkscape:connector-curvature="0"
         d="m 69.913243,78.39475 v 6.37642 h 1.402099 v -6.37642 z"
         style="font-style:normal;font-variant:normal;font-weight:bold;font-stretch:normal;font-size:16.90843773px;line-height:100%;font-family:'Helvetica Neue';-inkscape-font-specification:'Helvetica Neue Bold';font-variant-ligatures:normal;font-variant-caps:normal;font-variant-numeric:normal;font-feature-settings:normal;text-align:start;letter-spacing:-1.00130415px;writing-mode:lr-tb;text-anchor:start;fill:#1e1e1e;fill-opacity:1;fill-rule:nonzero;stroke:none;stroke-width:1.40639091;stroke-linecap:round;stroke-linejoin:round;stroke-miterlimit:4;stroke-dasharray:none;stroke-dashoffset:3.82677174;stroke-opacity:1;paint-order:fill markers stroke"
         id="path3649" />
      <path
         inkscape:connector-curvature="0"
         d="m 71.919968,80.15409 v 4.61708 h 1.268144 v -2.67916 q 0,-0.33935 0.09823,-0.54476 0.09824,-0.21433 0.232195,-0.32149 0.142892,-0.1161 0.285779,-0.15185 0.151818,-0.0444 0.241127,-0.0444 0.303642,0 0.45546,0.10717 0.160749,0.0982 0.223264,0.26789 0.07145,0.1697 0.08038,0.3751 0.0089,0.19648 0.0089,0.40189 v 2.58985 h 1.268144 v -2.572 q 0,-0.21433 0.02678,-0.41974 0.0357,-0.21433 0.125029,-0.3751 0.09824,-0.16965 0.258984,-0.26789 0.169681,-0.10717 0.437597,-0.10717 0.267921,0 0.419739,0.0893 0.16075,0.0893 0.241127,0.24111 0.08037,0.1518 0.09824,0.35721 0.01785,0.2054 0.01785,0.43759 v 2.61668 h 1.268144 v -3.08998 q 0,-0.44651 -0.125029,-0.75909 -0.125029,-0.3215 -0.348293,-0.51798 -0.223264,-0.19648 -0.535837,-0.28579 -0.312568,-0.0893 -0.678724,-0.0893 -0.482248,0 -0.839473,0.23223 -0.348293,0.23219 -0.5537,0.53583 -0.187538,-0.42866 -0.553695,-0.59836 -0.357224,-0.1697 -0.794821,-0.1697 -0.45546,0 -0.812684,0.19648 -0.348293,0.19648 -0.598347,0.55368 h -0.01785 v -0.62509 z"
         style="font-style:normal;font-variant:normal;font-weight:bold;font-stretch:normal;font-size:16.90843773px;line-height:100%;font-family:'Helvetica Neue';-inkscape-font-specification:'Helvetica Neue Bold';font-variant-ligatures:normal;font-variant-caps:normal;font-variant-numeric:normal;font-feature-settings:normal;text-align:start;letter-spacing:-1.00130415px;writing-mode:lr-tb;text-anchor:start;fill:#1e1e1e;fill-opacity:1;fill-rule:nonzero;stroke:none;stroke-width:1.40639091;stroke-linecap:round;stroke-linejoin:round;stroke-miterlimit:4;stroke-dasharray:none;stroke-dashoffset:3.82677174;stroke-opacity:1;paint-order:fill markers stroke"
         id="path3651" />
      <path
         inkscape:connector-curvature="0"
         d="m 79.39514,81.57403 h 1.268144 q 0.0357,-0.37511 0.250058,-0.53583 0.214333,-0.16077 0.589415,-0.16077 0.169687,0 0.312573,0.0269 0.151818,0.018 0.258985,0.0893 0.116097,0.0625 0.178612,0.18756 0.07145,0.11609 0.07145,0.3215 0.0089,0.19648 -0.116098,0.30364 -0.125029,0.0982 -0.339362,0.15185 -0.214332,0.0536 -0.49118,0.0803 -0.276847,0.0269 -0.562626,0.0715 -0.285778,0.0449 -0.571557,0.12502 -0.276852,0.0715 -0.500117,0.22326 -0.214332,0.15185 -0.357219,0.41081 -0.13396,0.25009 -0.13396,0.643 0,0.35726 0.116097,0.61622 0.125029,0.25901 0.339362,0.42866 0.214333,0.16971 0.500112,0.25004 0.285778,0.0804 0.616209,0.0804 0.42867,0 0.839478,-0.12502 0.410803,-0.12502 0.714444,-0.43759 0.0089,0.11609 0.02678,0.23218 0.02678,0.10717 0.06251,0.21434 h 1.286002 q -0.0893,-0.14287 -0.12503,-0.42867 -0.0357,-0.28579 -0.0357,-0.59837 v -2.40229 q 0,-0.41974 -0.187544,-0.66983 -0.187538,-0.25896 -0.482248,-0.40183 -0.29471,-0.14292 -0.651935,-0.18755 -0.357225,-0.0536 -0.705518,-0.0536 -0.384014,0 -0.768027,0.0804 -0.375088,0.0715 -0.678724,0.25004 -0.303642,0.17863 -0.500117,0.47335 -0.19647,0.29472 -0.223264,0.74124 z m 2.929233,0.93772 v 0.4733 q 0,0.10716 -0.02678,0.28579 -0.01785,0.17863 -0.116098,0.35721 -0.09824,0.1697 -0.303642,0.29472 -0.205401,0.12502 -0.580488,0.12502 -0.151818,0 -0.29471,-0.0269 -0.142887,-0.0269 -0.250054,-0.0893 -0.107171,-0.0714 -0.16968,-0.18755 -0.06251,-0.11609 -0.06251,-0.28574 0,-0.17863 0.06251,-0.29472 0.06251,-0.11609 0.160749,-0.18756 0.107166,-0.0804 0.241127,-0.12502 0.142887,-0.0444 0.285779,-0.0715 0.151818,-0.0269 0.303636,-0.0444 0.151823,-0.018 0.285779,-0.0449 0.142892,-0.0269 0.258989,-0.0625 0.125029,-0.0449 0.205402,-0.11609 z"
         style="font-style:normal;font-variant:normal;font-weight:bold;font-stretch:normal;font-size:16.90843773px;line-height:100%;font-family:'Helvetica Neue';-inkscape-font-specification:'Helvetica Neue Bold';font-variant-ligatures:normal;font-variant-caps:normal;font-variant-numeric:normal;font-feature-settings:normal;text-align:start;letter-spacing:-1.00130415px;writing-mode:lr-tb;text-anchor:start;fill:#1e1e1e;fill-opacity:1;fill-rule:nonzero;stroke:none;stroke-width:1.40639091;stroke-linecap:round;stroke-linejoin:round;stroke-miterlimit:4;stroke-dasharray:none;stroke-dashoffset:3.82677174;stroke-opacity:1;paint-order:fill markers stroke"
         id="path3653" />
      <path
         inkscape:connector-curvature="0"
         d="m 86.20024,83.68166 q -0.294705,0 -0.49118,-0.12502 -0.196475,-0.12507 -0.321499,-0.3215 -0.116098,-0.19648 -0.169681,-0.43759 -0.04468,-0.25009 -0.04468,-0.50013 0,-0.25902 0.05358,-0.4912 0.06251,-0.24111 0.187544,-0.41974 0.13396,-0.18756 0.321504,-0.29472 0.19647,-0.10717 0.464386,-0.10717 0.312573,0 0.517974,0.11609 0.205406,0.11615 0.330436,0.31258 0.125023,0.19648 0.178607,0.45549 0.05358,0.25004 0.05358,0.53584 0,0.25003 -0.07144,0.48222 -0.06252,0.22326 -0.196475,0.40188 -0.133955,0.17863 -0.339362,0.2858 -0.205401,0.10717 -0.473322,0.10717 z m 2.286229,0.79479 V 80.15409 H 87.28084 v 0.61617 h -0.01785 q -0.232196,-0.40183 -0.580489,-0.57154 -0.339362,-0.1697 -0.794821,-0.1697 -0.482254,0 -0.857336,0.18756 -0.366156,0.18755 -0.616209,0.50905 -0.250059,0.31257 -0.384019,0.73231 -0.125024,0.41081 -0.125024,0.85733 0,0.4733 0.107166,0.90196 0.116098,0.41974 0.35722,0.74124 0.241126,0.31257 0.616214,0.50013 0.375082,0.17863 0.893056,0.17863 0.41974,0 0.794822,-0.16971 0.384013,-0.17857 0.58942,-0.54475 h 0.01785 v 0.60729 q 0.0089,0.4912 -0.241121,0.8127 -0.241127,0.3215 -0.776964,0.3215 -0.339362,0 -0.598347,-0.14292 -0.258989,-0.13395 -0.348293,-0.49115 h -1.259212 q 0.02678,0.39291 0.214332,0.66977 0.196475,0.2858 0.482254,0.46437 0.29471,0.17863 0.642998,0.25902 0.357225,0.0893 0.696587,0.0893 0.794821,0 1.268144,-0.21433 0.473322,-0.21433 0.723375,-0.5269 0.250058,-0.30365 0.321504,-0.66091 0.08037,-0.3572 0.08037,-0.63407 z"
         style="font-style:normal;font-variant:normal;font-weight:bold;font-stretch:normal;font-size:16.90843773px;line-height:100%;font-family:'Helvetica Neue';-inkscape-font-specification:'Helvetica Neue Bold';font-variant-ligatures:normal;font-variant-caps:normal;font-variant-numeric:normal;font-feature-settings:normal;text-align:start;letter-spacing:-1.00130415px;writing-mode:lr-tb;text-anchor:start;fill:#1e1e1e;fill-opacity:1;fill-rule:nonzero;stroke:none;stroke-width:1.40639091;stroke-linecap:round;stroke-linejoin:round;stroke-miterlimit:4;stroke-dasharray:none;stroke-dashoffset:3.82677174;stroke-opacity:1;paint-order:fill markers stroke"
         id="path3655" />
      <path
         inkscape:connector-curvature="0"
         d="m 92.086472,81.96699 h -2.062966 q 0.0089,-0.13399 0.05358,-0.30364 0.05358,-0.1697 0.16968,-0.3215 0.12503,-0.15185 0.321499,-0.25009 0.205407,-0.10717 0.509043,-0.10717 0.464391,0 0.687655,0.25009 0.232196,0.25004 0.321505,0.73231 z m -2.062966,0.80373 h 3.33111 q 0.0357,-0.53584 -0.08931,-1.02698 -0.125029,-0.49121 -0.410808,-0.87524 -0.276847,-0.38398 -0.714444,-0.60724 -0.437602,-0.23224 -1.027017,-0.23224 -0.526906,0 -0.964502,0.18756 -0.428671,0.18755 -0.741239,0.51797 -0.312573,0.3215 -0.482254,0.76802 -0.169681,0.44652 -0.169681,0.9645 0,0.53583 0.16075,0.9824 0.169681,0.44652 0.473322,0.76802 0.303642,0.3215 0.741239,0.50012 0.437596,0.16965 0.982365,0.16965 0.78589,0 1.339584,-0.3572 0.5537,-0.35726 0.821616,-1.18776 h -1.116326 q -0.06251,0.21434 -0.339361,0.41082 -0.276848,0.1875 -0.660861,0.1875 -0.535837,0 -0.821616,-0.27682 -0.285779,-0.27687 -0.312567,-0.89308 z"
         style="font-style:normal;font-variant:normal;font-weight:bold;font-stretch:normal;font-size:16.90843773px;line-height:100%;font-family:'Helvetica Neue';-inkscape-font-specification:'Helvetica Neue Bold';font-variant-ligatures:normal;font-variant-caps:normal;font-variant-numeric:normal;font-feature-settings:normal;text-align:start;letter-spacing:-1.00130415px;writing-mode:lr-tb;text-anchor:start;fill:#1e1e1e;fill-opacity:1;fill-rule:nonzero;stroke:none;stroke-width:1.40639091;stroke-linecap:round;stroke-linejoin:round;stroke-miterlimit:4;stroke-dasharray:none;stroke-dashoffset:3.82677174;stroke-opacity:1;paint-order:fill markers stroke"
         id="path3657" />
      <path
         inkscape:connector-curvature="0"
         d="m 57.45858,86.30194 v 6.37642 h 1.4021 v -6.37642 z"
         style="font-style:normal;font-variant:normal;font-weight:bold;font-stretch:normal;font-size:16.90843773px;line-height:100%;font-family:'Helvetica Neue';-inkscape-font-specification:'Helvetica Neue Bold';font-variant-ligatures:normal;font-variant-caps:normal;font-variant-numeric:normal;font-feature-settings:normal;text-align:start;letter-spacing:-1.00130415px;writing-mode:lr-tb;text-anchor:start;fill:#1e1e1e;fill-opacity:1;fill-rule:nonzero;stroke:none;stroke-width:1.40639091;stroke-linecap:round;stroke-linejoin:round;stroke-miterlimit:4;stroke-dasharray:none;stroke-dashoffset:3.82677174;stroke-opacity:1;paint-order:fill markers stroke"
         id="path3659" />
      <path
         inkscape:connector-curvature="0"
         d="m 59.486496,88.06128 v 4.61708 h 1.268144 v -2.42019 q 0,-0.70548 0.232196,-1.00913 0.232195,-0.31257 0.750169,-0.31257 0.45546,0 0.634072,0.28579 0.178613,0.27682 0.178613,0.8484 v 2.6077 h 1.268143 v -2.83993 q 0,-0.42867 -0.08038,-0.77695 -0.07145,-0.3572 -0.258984,-0.59836 -0.187544,-0.25004 -0.517975,-0.38398 -0.321504,-0.14293 -0.830547,-0.14293 -0.401876,0 -0.78589,0.18756 -0.384013,0.17862 -0.62514,0.58051 h -0.02678 v -0.643 z"
         style="font-style:normal;font-variant:normal;font-weight:bold;font-stretch:normal;font-size:16.90843773px;line-height:100%;font-family:'Helvetica Neue';-inkscape-font-specification:'Helvetica Neue Bold';font-variant-ligatures:normal;font-variant-caps:normal;font-variant-numeric:normal;font-feature-settings:normal;text-align:start;letter-spacing:-1.00130415px;writing-mode:lr-tb;text-anchor:start;fill:#1e1e1e;fill-opacity:1;fill-rule:nonzero;stroke:none;stroke-width:1.40639091;stroke-linecap:round;stroke-linejoin:round;stroke-miterlimit:4;stroke-dasharray:none;stroke-dashoffset:3.82677174;stroke-opacity:1;paint-order:fill markers stroke"
         id="path3661" />
      <path
         inkscape:connector-curvature="0"
         d="m 64.606892,88.90969 v 3.76867 h 1.268144 v -3.76867 h 0.875194 v -0.84841 h -0.875194 v -0.27687 q 0,-0.28579 0.107167,-0.40188 0.116097,-0.12502 0.375082,-0.12502 0.241127,0 0.464391,0.0269 v -0.94665 q -0.16075,-0.009 -0.330431,-0.018 -0.16968,-0.018 -0.339361,-0.018 -0.776964,0 -1.160978,0.39296 -0.384014,0.3929 -0.384014,1.00912 v 0.35726 h -0.759101 v 0.8484 z"
         style="font-style:normal;font-variant:normal;font-weight:bold;font-stretch:normal;font-size:16.90843773px;line-height:100%;font-family:'Helvetica Neue';-inkscape-font-specification:'Helvetica Neue Bold';font-variant-ligatures:normal;font-variant-caps:normal;font-variant-numeric:normal;font-feature-settings:normal;text-align:start;letter-spacing:-1.00130415px;writing-mode:lr-tb;text-anchor:start;fill:#1e1e1e;fill-opacity:1;fill-rule:nonzero;stroke:none;stroke-width:1.40639091;stroke-linecap:round;stroke-linejoin:round;stroke-miterlimit:4;stroke-dasharray:none;stroke-dashoffset:3.82677174;stroke-opacity:1;paint-order:fill markers stroke"
         id="path3663" />
      <path
         inkscape:connector-curvature="0"
         d="m 67.909111,90.37426 q 0,-0.27682 0.05358,-0.54476 0.05358,-0.26789 0.178612,-0.47329 0.133955,-0.20541 0.348293,-0.33043 0.214333,-0.134 0.535832,-0.134 0.321504,0 0.535837,0.134 0.223264,0.12502 0.348293,0.33043 0.133956,0.2054 0.187544,0.47329 0.05358,0.26794 0.05358,0.54476 0,0.27687 -0.05358,0.54481 -0.05359,0.25896 -0.187544,0.4733 -0.125029,0.2054 -0.348293,0.33042 -0.214333,0.12502 -0.535837,0.12502 -0.321499,0 -0.535832,-0.12502 -0.214338,-0.12502 -0.348293,-0.33042 -0.125029,-0.21434 -0.178612,-0.4733 -0.05358,-0.26794 -0.05358,-0.54481 z m -1.268144,0 q 0,0.55374 0.169681,1.00025 0.169681,0.44652 0.482253,0.76802 0.312568,0.31257 0.750165,0.48228 0.437602,0.16964 0.982365,0.16964 0.544769,0 0.982365,-0.16964 0.446528,-0.16971 0.759101,-0.48228 0.312568,-0.3215 0.482249,-0.76802 0.169681,-0.44651 0.169681,-1.00025 0,-0.55369 -0.169681,-1.0002 -0.169681,-0.45545 -0.482249,-0.76802 -0.312573,-0.3215 -0.759101,-0.4912 -0.437596,-0.17863 -0.982365,-0.17863 -0.544763,0 -0.982365,0.17863 -0.437597,0.1697 -0.750165,0.4912 -0.312572,0.31257 -0.482253,0.76802 -0.169681,0.44651 -0.169681,1.0002 z"
         style="font-style:normal;font-variant:normal;font-weight:bold;font-stretch:normal;font-size:16.90843773px;line-height:100%;font-family:'Helvetica Neue';-inkscape-font-specification:'Helvetica Neue Bold';font-variant-ligatures:normal;font-variant-caps:normal;font-variant-numeric:normal;font-feature-settings:normal;text-align:start;letter-spacing:-1.00130415px;writing-mode:lr-tb;text-anchor:start;fill:#1e1e1e;fill-opacity:1;fill-rule:nonzero;stroke:none;stroke-width:1.40639091;stroke-linecap:round;stroke-linejoin:round;stroke-miterlimit:4;stroke-dasharray:none;stroke-dashoffset:3.82677174;stroke-opacity:1;paint-order:fill markers stroke"
         id="path3665" />
      <path
         inkscape:connector-curvature="0"
         d="m 71.784381,88.06128 v 4.61708 h 1.268144 v -2.08079 q 0,-0.31257 0.06251,-0.58051 0.06252,-0.26789 0.205402,-0.46437 0.151823,-0.20541 0.39295,-0.3215 0.241121,-0.1161 0.589415,-0.1161 0.116098,0 0.241127,0.018 0.125029,0.009 0.214332,0.0269 v -1.17883 q -0.151818,-0.0449 -0.276847,-0.0449 -0.241127,0 -0.464391,0.0715 -0.223264,0.0715 -0.419734,0.2054 -0.196475,0.12502 -0.348293,0.31258 -0.151824,0.17862 -0.241127,0.39296 h -0.01785 v -0.85733 z"
         style="font-style:normal;font-variant:normal;font-weight:bold;font-stretch:normal;font-size:16.90843773px;line-height:100%;font-family:'Helvetica Neue';-inkscape-font-specification:'Helvetica Neue Bold';font-variant-ligatures:normal;font-variant-caps:normal;font-variant-numeric:normal;font-feature-settings:normal;text-align:start;letter-spacing:-1.00130415px;writing-mode:lr-tb;text-anchor:start;fill:#1e1e1e;fill-opacity:1;fill-rule:nonzero;stroke:none;stroke-width:1.40639091;stroke-linecap:round;stroke-linejoin:round;stroke-miterlimit:4;stroke-dasharray:none;stroke-dashoffset:3.82677174;stroke-opacity:1;paint-order:fill markers stroke"
         id="path3667" />
      <path
         inkscape:connector-curvature="0"
         d="m 75.041799,88.06128 v 4.61708 h 1.268144 V 89.9992 q 0,-0.33935 0.09823,-0.54475 0.09824,-0.21434 0.232196,-0.3215 0.142886,-0.1161 0.285778,-0.15185 0.151818,-0.0444 0.241127,-0.0444 0.303636,0 0.45546,0.10717 0.160749,0.0982 0.223264,0.26789 0.07144,0.1697 0.08037,0.3751 0.0089,0.19648 0.0089,0.40189 v 2.58985 h 1.268144 v -2.572 q 0,-0.21433 0.02678,-0.41974 0.03571,-0.21433 0.12503,-0.3751 0.09824,-0.16965 0.258989,-0.26789 0.169681,-0.10717 0.437597,-0.10717 0.267916,0 0.419739,0.0893 0.16075,0.0893 0.241127,0.24112 0.08037,0.15179 0.09824,0.3572 0.01785,0.20541 0.01785,0.43759 v 2.61668 h 1.268144 v -3.08998 q 0,-0.44651 -0.125029,-0.75909 -0.125024,-0.3215 -0.348288,-0.51798 -0.223269,-0.19648 -0.535837,-0.28579 -0.312573,-0.0893 -0.678724,-0.0893 -0.482253,0 -0.839473,0.23223 -0.348293,0.23219 -0.5537,0.53583 -0.187543,-0.42866 -0.553694,-0.59836 -0.357225,-0.1697 -0.794822,-0.1697 -0.455459,0 -0.812684,0.19648 -0.348293,0.19648 -0.598351,0.55368 h -0.01785 v -0.62509 z"
         style="font-style:normal;font-variant:normal;font-weight:bold;font-stretch:normal;font-size:16.90843773px;line-height:100%;font-family:'Helvetica Neue';-inkscape-font-specification:'Helvetica Neue Bold';font-variant-ligatures:normal;font-variant-caps:normal;font-variant-numeric:normal;font-feature-settings:normal;text-align:start;letter-spacing:-1.00130415px;writing-mode:lr-tb;text-anchor:start;fill:#1e1e1e;fill-opacity:1;fill-rule:nonzero;stroke:none;stroke-width:1.40639091;stroke-linecap:round;stroke-linejoin:round;stroke-miterlimit:4;stroke-dasharray:none;stroke-dashoffset:3.82677174;stroke-opacity:1;paint-order:fill markers stroke"
         id="path3669" />
      <path
         inkscape:connector-curvature="0"
         d="m 82.516971,89.48122 h 1.268144 q 0.0357,-0.3751 0.250059,-0.53583 0.214332,-0.16077 0.589414,-0.16077 0.169681,0 0.312573,0.0269 0.151818,0.018 0.258985,0.0893 0.116098,0.0625 0.178612,0.18756 0.07145,0.11609 0.07145,0.3215 0.0089,0.19648 -0.116098,0.30364 -0.125029,0.0982 -0.339361,0.15185 -0.214333,0.0536 -0.491186,0.0803 -0.276847,0.0269 -0.562626,0.0715 -0.285778,0.0444 -0.571557,0.12502 -0.276847,0.0715 -0.500111,0.22326 -0.214333,0.15185 -0.357225,0.41081 -0.133955,0.25009 -0.133955,0.643 0,0.35726 0.116097,0.61622 0.125024,0.25902 0.339362,0.42866 0.214333,0.16971 0.500112,0.25009 0.285778,0.0803 0.616209,0.0803 0.42867,0 0.839473,-0.12502 0.410808,-0.12502 0.714449,-0.43759 0.0089,0.11609 0.02678,0.23218 0.02678,0.10717 0.06251,0.21434 h 1.286007 q -0.08931,-0.14287 -0.125029,-0.42867 -0.0357,-0.28579 -0.0357,-0.59837 v -2.40229 q 0,-0.41973 -0.187543,-0.66982 -0.187544,-0.25897 -0.482254,-0.40184 -0.294705,-0.14292 -0.65193,-0.18755 -0.357224,-0.0536 -0.705518,-0.0536 -0.384013,0 -0.768027,0.0804 -0.375087,0.0715 -0.678729,0.25003 -0.303636,0.17863 -0.500111,0.47335 -0.19647,0.29472 -0.223264,0.74124 z m 2.929233,0.93772 v 0.4733 q 0,0.10716 -0.02678,0.28579 -0.01785,0.17863 -0.116098,0.35721 -0.09823,0.1697 -0.303636,0.29472 -0.205407,0.12502 -0.580489,0.12502 -0.151823,0 -0.29471,-0.0269 -0.142892,-0.0269 -0.250058,-0.0893 -0.107167,-0.0714 -0.169681,-0.18755 -0.06251,-0.11609 -0.06251,-0.28574 0,-0.17863 0.06251,-0.29472 0.06251,-0.11609 0.160749,-0.18756 0.107172,-0.0804 0.241127,-0.12501 0.142892,-0.0444 0.285779,-0.0715 0.151823,-0.0269 0.303641,-0.0449 0.151818,-0.018 0.285779,-0.0444 0.142887,-0.0269 0.258984,-0.0625 0.12503,-0.0444 0.205407,-0.1161 z"
         style="font-style:normal;font-variant:normal;font-weight:bold;font-stretch:normal;font-size:16.90843773px;line-height:100%;font-family:'Helvetica Neue';-inkscape-font-specification:'Helvetica Neue Bold';font-variant-ligatures:normal;font-variant-caps:normal;font-variant-numeric:normal;font-feature-settings:normal;text-align:start;letter-spacing:-1.00130415px;writing-mode:lr-tb;text-anchor:start;fill:#1e1e1e;fill-opacity:1;fill-rule:nonzero;stroke:none;stroke-width:1.40639091;stroke-linecap:round;stroke-linejoin:round;stroke-miterlimit:4;stroke-dasharray:none;stroke-dashoffset:3.82677174;stroke-opacity:1;paint-order:fill markers stroke"
         id="path3671" />
      <path
         inkscape:connector-curvature="0"
         d="m 88.777308,88.06128 v -1.38429 h -1.268144 v 1.38429 h -0.768032 v 0.84841 h 0.768032 v 2.72379 q 0,0.34833 0.116098,0.56266 0.116098,0.21433 0.312568,0.33042 0.205406,0.1161 0.464391,0.1518 0.267921,0.0449 0.562626,0.0449 0.187543,0 0.384018,-0.009 0.19647,-0.009 0.35722,-0.0359 v -0.98235 q -0.0893,0.018 -0.187539,0.0269 -0.09824,0.009 -0.205406,0.009 -0.321499,0 -0.428666,-0.10717 -0.107166,-0.10716 -0.107166,-0.42866 v -2.2862 h 0.928777 v -0.84841 z"
         style="font-style:normal;font-variant:normal;font-weight:bold;font-stretch:normal;font-size:16.90843773px;line-height:100%;font-family:'Helvetica Neue';-inkscape-font-specification:'Helvetica Neue Bold';font-variant-ligatures:normal;font-variant-caps:normal;font-variant-numeric:normal;font-feature-settings:normal;text-align:start;letter-spacing:-1.00130415px;writing-mode:lr-tb;text-anchor:start;fill:#1e1e1e;fill-opacity:1;fill-rule:nonzero;stroke:none;stroke-width:1.40639091;stroke-linecap:round;stroke-linejoin:round;stroke-miterlimit:4;stroke-dasharray:none;stroke-dashoffset:3.82677174;stroke-opacity:1;paint-order:fill markers stroke"
         id="path3673" />
      <path
         inkscape:connector-curvature="0"
         d="m 91.29408,87.34682 v -1.04488 h -1.268144 v 1.04488 z m -1.268144,0.71446 v 4.61708 h 1.268144 v -4.61708 z"
         style="font-style:normal;font-variant:normal;font-weight:bold;font-stretch:normal;font-size:16.90843773px;line-height:100%;font-family:'Helvetica Neue';-inkscape-font-specification:'Helvetica Neue Bold';font-variant-ligatures:normal;font-variant-caps:normal;font-variant-numeric:normal;font-feature-settings:normal;text-align:start;letter-spacing:-1.00130415px;writing-mode:lr-tb;text-anchor:start;fill:#1e1e1e;fill-opacity:1;fill-rule:nonzero;stroke:none;stroke-width:1.40639091;stroke-linecap:round;stroke-linejoin:round;stroke-miterlimit:4;stroke-dasharray:none;stroke-dashoffset:3.82677174;stroke-opacity:1;paint-order:fill markers stroke"
         id="path3675" />
      <path
         inkscape:connector-curvature="0"
         d="m 94.90733,89.68663 h 1.24135 q -0.0268,-0.44652 -0.21433,-0.76802 -0.18754,-0.33042 -0.49118,-0.54475 -0.29471,-0.22332 -0.67873,-0.33048 -0.37508,-0.10717 -0.78589,-0.10717 -0.562624,0 -1.000221,0.18756 -0.437602,0.18755 -0.741238,0.5269 -0.303642,0.33043 -0.464391,0.79485 -0.151824,0.45544 -0.151824,0.99127 0,0.51798 0.169681,0.95558 0.169687,0.42866 0.473323,0.74123 0.303641,0.31258 0.732307,0.49121 0.437602,0.16964 0.955573,0.16964 0.91985,0 1.50927,-0.48222 0.58942,-0.48227 0.71445,-1.40214 h -1.22349 q -0.0625,0.42872 -0.31257,0.68768 -0.24113,0.25004 -0.69659,0.25004 -0.29471,0 -0.50011,-0.13395 -0.205406,-0.13394 -0.330436,-0.33935 -0.116097,-0.21433 -0.169681,-0.47335 -0.05358,-0.25896 -0.05358,-0.509 0,-0.25901 0.05358,-0.51798 0.05358,-0.26794 0.178613,-0.48227 0.13396,-0.22326 0.339362,-0.3572 0.205402,-0.14293 0.509042,-0.14293 0.81268,0 0.93771,0.79485 z"
         style="font-style:normal;font-variant:normal;font-weight:bold;font-stretch:normal;font-size:16.90843773px;line-height:100%;font-family:'Helvetica Neue';-inkscape-font-specification:'Helvetica Neue Bold';font-variant-ligatures:normal;font-variant-caps:normal;font-variant-numeric:normal;font-feature-settings:normal;text-align:start;letter-spacing:-1.00130415px;writing-mode:lr-tb;text-anchor:start;fill:#1e1e1e;fill-opacity:1;fill-rule:nonzero;stroke:none;stroke-width:1.40639091;stroke-linecap:round;stroke-linejoin:round;stroke-miterlimit:4;stroke-dasharray:none;stroke-dashoffset:3.82677174;stroke-opacity:1;paint-order:fill markers stroke"
         id="path3677" />
      <path
         inkscape:connector-curvature="0"
         d="m 97.57305,91.17803 h -1.20563 q 0.0179,0.46437 0.2054,0.77695 0.19647,0.30364 0.49118,0.4912 0.30364,0.18755 0.68766,0.26794 0.38401,0.0803 0.78589,0.0803 0.39294,0 0.76802,-0.0803 0.384017,-0.0715 0.678729,-0.25902 0.294711,-0.18755 0.473321,-0.4912 0.18754,-0.31257 0.18754,-0.76801 0,-0.3215 -0.12502,-0.53584 -0.12503,-0.22326 -0.33043,-0.36613 -0.205411,-0.15185 -0.473333,-0.24116 -0.258981,-0.0893 -0.535827,-0.1518 -0.26792,-0.0625 -0.5269,-0.11609 -0.25899,-0.0536 -0.4644,-0.11609 -0.19647,-0.0715 -0.32149,-0.17863 -0.12503,-0.10717 -0.12503,-0.27687 0,-0.14287 0.0714,-0.22326 0.0714,-0.0893 0.16968,-0.13394 0.10717,-0.0444 0.2322,-0.0536 0.12502,-0.018 0.23219,-0.018 0.33937,0 0.58942,0.134 0.25006,0.12502 0.27685,0.49115 h 1.20563 q -0.0357,-0.42867 -0.22327,-0.70548 -0.17861,-0.2858 -0.455462,-0.4555 -0.276852,-0.16965 -0.634068,-0.24111 -0.34829,-0.0715 -0.72338,-0.0715 -0.37508,0 -0.7323,0.0715 -0.35723,0.0625 -0.64301,0.23219 -0.28577,0.16077 -0.46439,0.44651 -0.16968,0.2858 -0.16968,0.73232 0,0.30364 0.12503,0.51797 0.12503,0.20541 0.33043,0.34833 0.2054,0.13395 0.46439,0.22326 0.26792,0.0803 0.54477,0.14287 0.67872,0.14288 1.05381,0.2858 0.38401,0.14287 0.38401,0.42866 0,0.16965 -0.0804,0.28575 -0.0804,0.10716 -0.20541,0.17862 -0.1161,0.0625 -0.26791,0.0982 -0.1429,0.0269 -0.27685,0.0269 -0.18754,0 -0.36616,-0.0444 -0.16968,-0.0449 -0.30364,-0.13394 -0.13395,-0.0982 -0.22326,-0.24116 -0.0804,-0.1518 -0.0804,-0.35721 z"
         style="font-style:normal;font-variant:normal;font-weight:bold;font-stretch:normal;font-size:16.90843773px;line-height:100%;font-family:'Helvetica Neue';-inkscape-font-specification:'Helvetica Neue Bold';font-variant-ligatures:normal;font-variant-caps:normal;font-variant-numeric:normal;font-feature-settings:normal;text-align:start;letter-spacing:-1.00130415px;writing-mode:lr-tb;text-anchor:start;fill:#1e1e1e;fill-opacity:1;fill-rule:nonzero;stroke:none;stroke-width:1.40639091;stroke-linecap:round;stroke-linejoin:round;stroke-miterlimit:4;stroke-dasharray:none;stroke-dashoffset:3.82677174;stroke-opacity:1;paint-order:fill markers stroke"
         id="path3679" />
      <path
         inkscape:connector-curvature="0"
         d="m 57.45858,94.20913 v 6.37642 h 1.4021 v -6.37642 z"
         style="font-style:normal;font-variant:normal;font-weight:bold;font-stretch:normal;font-size:16.90843773px;line-height:100%;font-family:'Helvetica Neue';-inkscape-font-specification:'Helvetica Neue Bold';font-variant-ligatures:normal;font-variant-caps:normal;font-variant-numeric:normal;font-feature-settings:normal;text-align:start;letter-spacing:-1.00130415px;writing-mode:lr-tb;text-anchor:start;fill:#1e1e1e;fill-opacity:1;fill-rule:nonzero;stroke:none;stroke-width:1.40639091;stroke-linecap:round;stroke-linejoin:round;stroke-miterlimit:4;stroke-dasharray:none;stroke-dashoffset:3.82677174;stroke-opacity:1;paint-order:fill markers stroke"
         id="path3681" />
      <path
         inkscape:connector-curvature="0"
         d="m 59.486496,95.96847 v 4.61708 h 1.268144 v -2.42019 q 0,-0.70548 0.232196,-1.00913 0.232195,-0.31257 0.750169,-0.31257 0.45546,0 0.634072,0.28579 0.178613,0.27682 0.178613,0.84841 v 2.60769 h 1.268143 v -2.83993 q 0,-0.42867 -0.08038,-0.77695 -0.07145,-0.3572 -0.258984,-0.59836 -0.187544,-0.25004 -0.517975,-0.38398 -0.321504,-0.14293 -0.830547,-0.14293 -0.401876,0 -0.78589,0.18756 -0.384013,0.17862 -0.62514,0.58051 h -0.02678 v -0.643 z"
         style="font-style:normal;font-variant:normal;font-weight:bold;font-stretch:normal;font-size:16.90843773px;line-height:100%;font-family:'Helvetica Neue';-inkscape-font-specification:'Helvetica Neue Bold';font-variant-ligatures:normal;font-variant-caps:normal;font-variant-numeric:normal;font-feature-settings:normal;text-align:start;letter-spacing:-1.00130415px;writing-mode:lr-tb;text-anchor:start;fill:#1e1e1e;fill-opacity:1;fill-rule:nonzero;stroke:none;stroke-width:1.40639091;stroke-linecap:round;stroke-linejoin:round;stroke-miterlimit:4;stroke-dasharray:none;stroke-dashoffset:3.82677174;stroke-opacity:1;paint-order:fill markers stroke"
         id="path3683" />
      <path
         inkscape:connector-curvature="0"
         d="m 67.537694,98.2636 q 0,0.28579 -0.05358,0.55368 -0.05358,0.26794 -0.178613,0.48228 -0.125029,0.2054 -0.339361,0.33042 -0.205402,0.12502 -0.517975,0.12502 -0.29471,0 -0.509042,-0.12502 -0.205402,-0.13394 -0.348294,-0.33935 -0.133955,-0.21433 -0.19647,-0.48227 -0.06251,-0.26789 -0.06251,-0.53584 0,-0.28574 0.05358,-0.54475 0.06252,-0.26789 0.187544,-0.4733 0.133955,-0.20541 0.348293,-0.33043 0.214333,-0.12507 0.5269,-0.12507 0.312573,0 0.517975,0.12507 0.205406,0.12502 0.33043,0.33043 0.133961,0.19648 0.187544,0.46437 0.05358,0.25902 0.05358,0.54476 z m 0.01785,1.73256 v 0.58939 h 1.205629 V 94.20913 H 67.49303 v 2.32195 h -0.01785 q -0.214332,-0.33935 -0.589415,-0.50905 -0.366156,-0.17863 -0.776963,-0.17863 -0.509043,0 -0.893057,0.20541 -0.384013,0.19648 -0.643003,0.5269 -0.250059,0.33043 -0.384014,0.76807 -0.125029,0.42867 -0.125029,0.89304 0,0.48227 0.125029,0.92879 0.133955,0.44652 0.384014,0.7948 0.25899,0.33935 0.651935,0.54475 0.392945,0.19648 0.910919,0.19648 0.455459,0 0.812684,-0.16072 0.366151,-0.1697 0.589415,-0.54476 z"
         style="font-style:normal;font-variant:normal;font-weight:bold;font-stretch:normal;font-size:16.90843773px;line-height:100%;font-family:'Helvetica Neue';-inkscape-font-specification:'Helvetica Neue Bold';font-variant-ligatures:normal;font-variant-caps:normal;font-variant-numeric:normal;font-feature-settings:normal;text-align:start;letter-spacing:-1.00130415px;writing-mode:lr-tb;text-anchor:start;fill:#1e1e1e;fill-opacity:1;fill-rule:nonzero;stroke:none;stroke-width:1.40639091;stroke-linecap:round;stroke-linejoin:round;stroke-miterlimit:4;stroke-dasharray:none;stroke-dashoffset:3.82677174;stroke-opacity:1;paint-order:fill markers stroke"
         id="path3685" />
      <path
         inkscape:connector-curvature="0"
         d="m 72.36854,97.78138 h -2.062965 q 0.0089,-0.134 0.05358,-0.30365 0.05358,-0.1697 0.169681,-0.3215 0.125029,-0.15185 0.321504,-0.25009 0.205402,-0.10717 0.509043,-0.10717 0.464391,0 0.687655,0.25009 0.232196,0.25004 0.321499,0.73232 z m -2.062965,0.80372 h 3.331109 q 0.0357,-0.53584 -0.08931,-1.02698 -0.125023,-0.4912 -0.410802,-0.87524 -0.276853,-0.38398 -0.714449,-0.60724 -0.437597,-0.23224 -1.027017,-0.23224 -0.526906,0 -0.964503,0.18756 -0.42867,0.18755 -0.741238,0.51798 -0.312573,0.32149 -0.482254,0.76801 -0.169681,0.44657 -0.169681,0.9645 0,0.53583 0.160755,0.9824 0.169681,0.44652 0.473317,0.76802 0.303642,0.3215 0.741238,0.50013 0.437602,0.16964 0.982366,0.16964 0.78589,0 1.339589,-0.3572 0.553695,-0.3572 0.821611,-1.18775 h -1.116321 q -0.06251,0.21433 -0.339361,0.41081 -0.276848,0.1875 -0.660867,0.1875 -0.535831,0 -0.82161,-0.27682 -0.285779,-0.27686 -0.312572,-0.89308 z"
         style="font-style:normal;font-variant:normal;font-weight:bold;font-stretch:normal;font-size:16.90843773px;line-height:100%;font-family:'Helvetica Neue';-inkscape-font-specification:'Helvetica Neue Bold';font-variant-ligatures:normal;font-variant-caps:normal;font-variant-numeric:normal;font-feature-settings:normal;text-align:start;letter-spacing:-1.00130415px;writing-mode:lr-tb;text-anchor:start;fill:#1e1e1e;fill-opacity:1;fill-rule:nonzero;stroke:none;stroke-width:1.40639091;stroke-linecap:round;stroke-linejoin:round;stroke-miterlimit:4;stroke-dasharray:none;stroke-dashoffset:3.82677174;stroke-opacity:1;paint-order:fill markers stroke"
         id="path3687" />
      <path
         inkscape:connector-curvature="0"
         d="m 75.038783,98.15643 -1.661088,2.42912 h 1.419962 l 0.964502,-1.4557 0.964502,1.4557 h 1.446756 l -1.70574,-2.4559 1.518197,-2.16118 h -1.402099 l -0.803753,1.20561 -0.812685,-1.20561 h -1.446756 z"
         style="font-style:normal;font-variant:normal;font-weight:bold;font-stretch:normal;font-size:16.90843773px;line-height:100%;font-family:'Helvetica Neue';-inkscape-font-specification:'Helvetica Neue Bold';font-variant-ligatures:normal;font-variant-caps:normal;font-variant-numeric:normal;font-feature-settings:normal;text-align:start;letter-spacing:-1.00130415px;writing-mode:lr-tb;text-anchor:start;fill:#1e1e1e;fill-opacity:1;fill-rule:nonzero;stroke:none;stroke-width:1.40639091;stroke-linecap:round;stroke-linejoin:round;stroke-miterlimit:4;stroke-dasharray:none;stroke-dashoffset:3.82677174;stroke-opacity:1;paint-order:fill markers stroke"
         id="path3689" />
      <text
         xml:space="preserve"
         style="font-style:normal;font-variant:normal;font-weight:500;font-stretch:normal;font-size:6.81542301px;line-height:100%;font-family:'Keep Calm';-inkscape-font-specification:'Keep Calm Medium';font-variant-ligatures:normal;font-variant-caps:normal;font-variant-numeric:normal;font-feature-settings:normal;text-align:start;writing-mode:lr-tb;text-anchor:start;opacity:1;fill:#868686;fill-opacity:1;fill-rule:nonzero;stroke:none;stroke-width:1.07329488;stroke-linecap:round;stroke-linejoin:round;stroke-miterlimit:4;stroke-dasharray:none;stroke-dashoffset:3.82677174;stroke-opacity:1;paint-order:fill markers stroke"
         x="81.14267"
         y="100.40206"
         id="text3693"><tspan
           id="tspan3691"
           sodipodi:role="line"
           x="81.14267"
           y="100.40206"
           style="font-style:normal;font-variant:normal;font-weight:900;font-stretch:condensed;font-family:'Helvetica Neue';-inkscape-font-specification:'Helvetica Neue Heavy Condensed';letter-spacing:-0.10496391px;fill:#868686;fill-opacity:1;stroke-width:1.07329488">biii.eu</tspan></text>
      <path
         id="path3695"
         d="m 50.928315,74.565 c -0.407622,0.002 -0.821399,0.0828 -1.219049,0.25321 -1.590588,0.68138 -2.329924,2.53003 -1.648479,4.12068 0.276511,0.64548 0.744887,1.15081 1.310516,1.47795 l -0.790649,1.9761 h 0.975651 l 0.656291,-1.63969 c 0.635146,0.15344 1.322964,0.11108 1.968355,-0.16536 1.590646,-0.68144 2.330439,-2.53003 1.648994,-4.12068 -0.511077,-1.19299 -1.678771,-1.90712 -2.90163,-1.90221 z m -9.765813,0.18241 c -0.296651,0.001 -0.597882,0.0605 -0.887286,0.18449 -1.15761,0.49588 -1.695847,1.84114 -1.199925,2.99878 0.434832,1.01496 1.522429,1.55383 2.564183,1.33687 l 1.448491,3.38067 c 0.06015,-0.23792 0.171743,-0.46457 0.371554,-0.62993 h 0.0016 c 0.0837,-0.0689 0.176104,-0.12241 0.271817,-0.16537 l -1.260388,-2.94245 c 0.875744,-0.60449 1.236334,-1.76362 0.801502,-2.77864 -0.371946,-0.86819 -1.221544,-1.38798 -2.111499,-1.38442 z m 9.77098,0.72348 c 0.869763,-0.003 1.699954,0.50459 2.063441,1.35288 0.484648,1.13133 -0.04123,2.44642 -1.172541,2.93109 -1.131348,0.48468 -2.446435,-0.042 -2.931086,-1.17305 -0.48465,-1.13132 0.04174,-2.4459 1.173054,-2.93057 0.282837,-0.12117 0.57721,-0.17922 0.867132,-0.18035 z m -9.766329,0.18293 c 0.536834,-0.002 1.049454,0.31121 1.273823,0.83509 0.299165,0.69825 -0.02572,1.50949 -0.723987,1.80868 -0.698254,0.29912 -1.509517,-0.025 -1.808676,-0.72347 -0.299164,-0.69832 0.02522,-1.51001 0.723472,-1.80919 0.174561,-0.0748 0.356422,-0.11039 0.535368,-0.11111 z m -6.263701,5.77381 c -0.40762,0.002 -0.821399,0.0834 -1.219046,0.25373 -1.590596,0.68137 -2.329919,2.52951 -1.648479,4.12016 0.681437,1.59065 2.529515,2.33044 4.120161,1.649 v 0.003 c 0.645443,-0.27651 1.150839,-0.74537 1.477946,-1.31103 l 0.765845,0.30644 c 0.05024,-0.26573 0.183086,-0.5165 0.403076,-0.69866 l 0.09663,-0.0801 -0.92914,-0.37156 c 0.15339,-0.63518 0.11112,-1.32294 -0.165364,-1.96835 -0.511085,-1.19299 -1.678774,-1.90711 -2.901633,-1.90221 z m 0.0052,0.90847 c 0.869765,-0.003 1.699954,0.50459 2.063441,1.35289 0.484648,1.13125 -0.04174,2.44641 -1.173054,2.93109 -1.131351,0.48467 -2.445922,-0.042 -2.930573,-1.17306 -0.484648,-1.13126 0.04174,-2.44589 1.173057,-2.93057 0.282837,-0.12117 0.57721,-0.17921 0.867129,-0.18035 z m -0.587011,9.72034 c -0.324022,-0.0109 -0.65536,0.0471 -0.97255,0.18293 -1.157613,0.49595 -1.695855,1.8412 -1.199928,2.99879 0.495927,1.15764 1.841172,1.69587 2.998785,1.19992 1.015003,-0.43483 1.553856,-1.52238 1.336868,-2.56418 l 0.639763,-0.27389 c -0.0028,-0.0427 -0.0067,-0.0853 -0.0067,-0.12867 0,-0.35186 0.0988,-0.68023 0.263549,-0.96739 l -1.253151,0.53692 c -0.415581,-0.6021 -1.093761,-0.96046 -1.80661,-0.98443 z m -0.0801,0.90485 c 0.536829,-0.002 1.048938,0.31121 1.273307,0.83509 0.299157,0.69832 -0.02522,1.50956 -0.723471,1.80868 -0.698312,0.29918 -1.510033,-0.025 -1.809192,-0.72347 -0.299159,-0.69831 0.02566,-1.51001 0.723987,-1.80919 0.174578,-0.0748 0.356426,-0.11038 0.535369,-0.11111 z m 15.317928,2.49132 c -0.3189,1.3e-4 -0.660241,7.9e-4 -0.985988,10e-4 l 1.684652,3.93206 c -0.875752,0.60449 -1.235818,1.76362 -0.800984,2.77864 0.495922,1.15765 1.840656,1.69587 2.998267,1.19993 1.15761,-0.49595 1.69637,-1.84121 1.200443,-2.99879 -0.434832,-1.01502 -1.522944,-1.55389 -2.564701,-1.33686 z m -6.205823,0.002 -0.835608,2.08824 c -0.635142,-0.15337 -1.322974,-0.11115 -1.968357,0.16536 -1.590646,0.68144 -2.330439,2.53003 -1.648994,4.12068 0.681439,1.59066 2.530083,2.33044 4.120679,1.649 1.590588,-0.68144 2.330434,-2.53009 1.648994,-4.12068 -0.276516,-0.64547 -0.745402,-1.15087 -1.311031,-1.47794 l 0.969968,-2.42415 c -0.327494,1.5e-4 -0.647719,-5.3e-4 -0.975651,-5.3e-4 z m -1.580267,2.90628 c 0.869765,-0.003 1.700469,0.50511 2.063957,1.35341 0.48465,1.13125 -0.04174,2.44589 -1.173054,2.93057 -1.131348,0.48467 -2.445923,-0.042 -2.93057,-1.17306 -0.484651,-1.13126 0.04174,-2.44589 1.173054,-2.93057 0.282837,-0.12117 0.576693,-0.17921 0.866613,-0.18035 z m 9.775632,1.526 c 0.536837,-0.002 1.049452,0.31126 1.273824,0.8351 0.299159,0.69831 -0.02572,1.51007 -0.723988,1.80919 -0.698254,0.29918 -1.510032,-0.0255 -1.809191,-0.72399 -0.299157,-0.69831 0.02572,-1.50956 0.723987,-1.80868 0.174564,-0.0748 0.356423,-0.11089 0.535368,-0.11162 z"
         style="fill:#1e1e1e;fill-opacity:1;stroke-width:0.0604129"
         inkscape:connector-curvature="0"
         sodipodi:nodetypes="cccccccccccccccccccccccccccccccccccccccccccccccccccccccccccscccccccccccccccccccccccccccccccccccccccc" />
      <path
         sodipodi:nodetypes="ccccccccccccccccccccccsssscssccssscssssccccccccccssssccccccccccccscccccscsssccccccccccccccccscccscccsccsscccssscccccsccccssscc"
         style="fill:#1e1e1e;fill-opacity:1;stroke-width:0.24916309"
         d="m 44.188848,82.59234 c -0.06773,0.007 -0.134568,0.0332 -0.190945,0.0796 -0.150309,0.12438 -0.171243,0.34733 -0.04684,0.49764 l 0.156465,0.18875 -0.622781,0.51536 -0.216569,-0.2612 c -0.124248,-0.15017 -0.346942,-0.17167 -0.497257,-0.0476 l -3.429899,2.83899 c -0.150289,0.12445 -0.171242,0.34734 -0.04684,0.49764 l 0.216133,0.26127 -1.05063,0.8694 c -0.150224,0.12438 -0.171229,0.3474 -0.04684,0.49771 l 0.952939,1.15093 c 0.124436,0.15031 0.346961,0.17129 0.49725,0.0469 l 1.050637,-0.8694 0.281104,0.3399 c 0.12439,0.15025 0.346934,0.17123 0.49725,0.0469 l 0.678904,-0.56181 c 0.185934,0.12535 0.40341,0.20731 0.637812,0.23123 0.400158,0.82217 0.592198,1.64838 0.585207,2.51498 -0.260503,0.23996 -0.451233,0.55413 -0.538799,0.90869 h -0.868115 v -1.11106 c 0,-0.1952 -0.158486,-0.35365 -0.353607,-0.35365 H 39.55244 c -0.195115,0 -0.294076,0.16764 -0.353157,0.35365 v 1.11113 h -0.100779 c -0.626619,0 -1.136372,0.50976 -1.136372,1.1364 0,0.62815 0.508313,1.13595 1.136372,1.13595 3.805989,0.009 7.956086,0 11.527811,0 0.210126,0 0.380117,-0.18302 0.380117,-0.39314 0,-0.21011 -0.169991,-0.38056 -0.380117,-0.38056 -0.689075,0 -1.249967,-0.56044 -1.249967,-1.24957 v -0.0274 h 3.342085 c 0.657371,0 1.195609,-0.53145 1.195609,-1.19556 v -6.92834 c 0,-0.66847 -0.542981,-1.19556 -1.195609,-1.19556 h -7.791261 c -0.148465,-0.17937 -0.346636,-0.41913 -0.43183,-0.52201 -0.07776,-0.094 -0.193864,-0.13747 -0.306748,-0.12646 z m 0.369067,1.31056 c 0.191531,0.23136 0.07863,0.0948 0.502104,0.60645 l -0.622774,0.51575 -0.502104,-0.60683 z m 0.999354,0.099 h 7.161399 c 0.239347,0 0.434481,0.1937 0.434481,0.43451 v 5.2982 c 0,0.23944 -0.193661,0.43451 -0.434481,0.43451 h -6.854207 c -0.235047,-0.91475 -0.667952,-1.75686 -1.31671,-2.54365 0.0172,-0.23436 -0.02339,-0.4549 -0.108734,-0.65375 l 0.682885,-0.56534 c 0.150296,-0.12437 0.171216,-0.34687 0.04685,-0.49725 l -0.28111,-0.33984 0.622774,-0.51536 0.156466,0.18869 c 0.12443,0.15037 0.347371,0.17122 0.497686,0.0469 0.150322,-0.12438 0.171243,-0.34695 0.04685,-0.49719 -0.144295,-0.17441 -0.400511,-0.48389 -0.654159,-0.79037 z m -2.608224,0.33332 c 0.16046,0.1939 1.259505,1.5216 1.450196,1.75211 l -0.393383,0.32609 c -1.170916,-0.90426 -2.775531,0.41672 -2.103025,1.74018 l -0.388959,0.32179 c -0.12989,-0.15695 -1.298844,-1.56922 -1.450196,-1.7521 z m 0.202432,2.49284 c 0.382476,0 0.693935,0.31104 0.693935,0.69355 0,0.38239 -0.311459,0.69389 -0.693935,0.69389 -0.382457,0 -0.693492,-0.3115 -0.693492,-0.69389 0,-0.38251 0.311009,-0.69355 0.693492,-0.69355 z m -3.190343,0.87957 0.50211,0.60644 -0.77836,0.64443 -0.502554,-0.6069 z m 4.286938,0.68378 c 0.585461,0.80197 0.937087,1.66545 1.065218,2.61662 -0.32894,-0.089 -0.68454,-0.0865 -1.022341,0.0182 -0.04333,-0.76386 -0.227613,-1.50081 -0.557803,-2.23164 0.201943,-0.0926 0.378202,-0.23155 0.514926,-0.40356 z m 1.69772,2.13266 c 0.0091,0.0443 0.0157,0.09 0.02391,0.13481 -0.0079,-0.045 -0.01512,-0.0902 -0.02391,-0.13481 z m 7.207357,0.3244 v 0.51628 c 0,0.23937 -0.193661,0.4345 -0.434481,0.4345 h -6.337072 c -0.08949,-0.14092 -0.195773,-0.27045 -0.319121,-0.38192 -0.0098,-0.16504 -0.209605,-0.48755 -0.04776,-0.48755 h 6.703931 c 0.151202,0 0.297816,-0.028 0.434482,-0.0813 z m -13.247122,0.732 h 1.574221 v 0.75799 h -1.574221 z m 4.929018,0.0707 c 0.621237,0 1.126651,0.50539 1.126651,1.1267 0,0.6211 -0.505538,1.1265 -1.126651,1.12663 h -4.5e-4 -6.51e-4 c -0.620833,-3.9e-4 -1.125771,-0.50579 -1.125771,-1.12663 0,-0.62131 0.505863,-1.1267 1.1271,-1.1267 z m 1.952645,0.90922 h 1.828234 v 0.0274 c 2.7e-5,0.47184 0.874996,1.24958 0.436248,1.24958 H 46.351 c 0.273161,-0.34336 0.43669,-0.77774 0.43669,-1.24958 z m -7.689128,0.4818 h 3.922588 c 0.04711,0.32095 0.177895,0.61505 0.369074,0.85964 h -4.291662 c -0.237672,0 -0.430064,-0.19201 -0.430064,-0.42956 0,-0.23703 0.19305,-0.43008 0.430064,-0.43008 z"
         id="path3697"
         inkscape:connector-curvature="0" />
    </g>
  </g>
</svg>
