<?xml version="1.0" encoding="UTF-8" standalone="no"?>
<!-- Created with Inkscape (http://www.inkscape.org/) -->

<svg
   xmlns:dc="http://purl.org/dc/elements/1.1/"
   xmlns:cc="http://creativecommons.org/ns#"
   xmlns:rdf="http://www.w3.org/1999/02/22-rdf-syntax-ns#"
   xmlns:svg="http://www.w3.org/2000/svg"
   xmlns="http://www.w3.org/2000/svg"
   xmlns:sodipodi="http://sodipodi.sourceforge.net/DTD/sodipodi-0.dtd"
   xmlns:inkscape="http://www.inkscape.org/namespaces/inkscape"
   width="31.166374mm"
   height="31.166452mm"
   viewBox="0 0 31.166374 31.166452"
   version="1.1"
   id="svg4189"
   inkscape:version="0.92.4 (unknown)"
   sodipodi:docname="Biii_icon.svg">
  <defs
     id="defs4183" />
  <sodipodi:namedview
     id="base"
     pagecolor="#ffffff"
     bordercolor="#666666"
     borderopacity="1.0"
     inkscape:pageopacity="0.0"
     inkscape:pageshadow="2"
     inkscape:zoom="2.296875"
     inkscape:cx="52.188624"
     inkscape:cy="83.473424"
     inkscape:document-units="mm"
     inkscape:current-layer="layer1"
     showgrid="false"
     fit-margin-top="1"
     fit-margin-left="1"
     fit-margin-right="1"
     fit-margin-bottom="1"
     inkscape:window-width="958"
     inkscape:window-height="1027"
     inkscape:window-x="0"
     inkscape:window-y="24"
     inkscape:window-maximized="0" />
  <metadata
     id="metadata4186">
    <rdf:RDF>
      <cc:Work
         rdf:about="">
        <dc:format>image/svg+xml</dc:format>
        <dc:type
           rdf:resource="http://purl.org/dc/dcmitype/StillImage" />
        <dc:title></dc:title>
      </cc:Work>
    </rdf:RDF>
  </metadata>
  <g
     inkscape:label="Layer 1"
     inkscape:groupmode="layer"
     id="layer1"
     transform="translate(-72.386669,-119.81289)">
    <g
       transform="translate(41.604338,93.491285)"
       id="g4067">
      <path
         inkscape:connector-curvature="0"
         style="fill:#1e1e1e;fill-opacity:1;stroke-width:0.0604129"
         d="m 50.92833,27.32163 c -0.407623,0.002 -0.821399,0.0828 -1.219049,0.25321 -1.590588,0.68138 -2.329924,2.53003 -1.648479,4.12068 0.276511,0.64548 0.744887,1.15081 1.310516,1.47795 l -0.790649,1.97611 h 0.975651 l 0.656291,-1.6397 c 0.635145,0.15344 1.322964,0.11108 1.968354,-0.16536 1.590646,-0.68144 2.33044,-2.53003 1.648995,-4.12068 -0.511078,-1.19299 -1.678771,-1.90711 -2.90163,-1.90221 z m -9.765813,0.18242 c -0.296651,0.001 -0.597882,0.0605 -0.887286,0.18448 -1.15761,0.49588 -1.695847,1.84114 -1.199925,2.99878 0.434832,1.01496 1.522428,1.55384 2.564183,1.33688 l 1.448491,3.38067 c 0.06014,-0.23793 0.171743,-0.46457 0.371554,-0.62994 h 0.0016 c 0.0837,-0.0689 0.176104,-0.12241 0.271817,-0.16536 L 42.472564,31.6671 c 0.875744,-0.60449 1.236334,-1.76362 0.801502,-2.77864 -0.371946,-0.86819 -1.221544,-1.38798 -2.111499,-1.38441 z m 9.77098,0.72347 c 0.869762,-0.003 1.699953,0.50459 2.06344,1.35289 0.484648,1.13132 -0.04122,2.44641 -1.17254,2.93108 -1.131348,0.48468 -2.446436,-0.042 -2.931086,-1.17305 -0.484651,-1.13132 0.04174,-2.4459 1.173054,-2.93057 0.282837,-0.12117 0.57721,-0.17921 0.867132,-0.18035 z m -9.766329,0.18293 c 0.536834,-0.002 1.049454,0.31121 1.273823,0.83509 0.299165,0.69825 -0.02572,1.50949 -0.723987,1.80868 -0.698254,0.29912 -1.509517,-0.025 -1.808676,-0.72347 -0.299164,-0.69832 0.02522,-1.51001 0.723472,-1.80919 0.174561,-0.0748 0.356422,-0.11038 0.535368,-0.11111 z m -6.263701,5.77381 c -0.407619,0.002 -0.821399,0.0834 -1.219046,0.25373 -1.590596,0.68137 -2.329918,2.52951 -1.648479,4.12016 0.681437,1.59066 2.529515,2.33044 4.120161,1.649 v 0.003 c 0.645443,-0.27651 1.150839,-0.74537 1.477946,-1.31103 l 0.765845,0.30644 c 0.05024,-0.26573 0.183086,-0.5165 0.403076,-0.69866 l 0.09663,-0.0801 -0.92914,-0.37155 c 0.15339,-0.63518 0.11112,-1.32295 -0.165364,-1.96836 -0.511085,-1.19299 -1.678774,-1.90711 -2.901633,-1.90221 z m 23.56652,0.24546 c -0.296651,10e-4 -0.597882,0.0605 -0.887283,0.18449 -1.015011,0.43483 -1.553851,1.52296 -1.336871,2.5647 l -1.485696,0.63665 v 0.98599 l 1.84278,-0.78962 c 0.604486,0.87573 1.763639,1.23634 2.778641,0.8015 1.157613,-0.49588 1.695855,-1.84113 1.199928,-2.99878 -0.371941,-0.86818 -1.221544,-1.38847 -2.111499,-1.38493 z m -23.561352,0.66301 c 0.869764,-0.003 1.699953,0.50459 2.06344,1.35289 0.484648,1.13126 -0.04174,2.44641 -1.173054,2.93109 -1.13135,0.48467 -2.445922,-0.042 -2.930573,-1.17306 -0.484647,-1.13125 0.04174,-2.44589 1.173057,-2.93057 0.282837,-0.12117 0.57721,-0.17921 0.86713,-0.18035 z m 23.566003,0.2434 c 0.536847,-0.002 1.049456,0.31126 1.273823,0.83509 0.299159,0.69831 -0.02566,1.51001 -0.723987,1.80919 -0.698254,0.29912 -1.509509,-0.0255 -1.808673,-0.72399 -0.299159,-0.69831 0.02566,-1.51 0.723987,-1.80919 0.174577,-0.0748 0.355902,-0.11038 0.53485,-0.1111 z m -0.681096,8.01036 c -0.407625,0.002 -0.821386,0.0829 -1.219046,0.25322 -0.645449,0.27651 -1.150321,0.74536 -1.477428,1.31103 L 54.66195,44.73659 c -0.09624,0.29764 -0.260215,0.56545 -0.472321,0.78703 l 0.570508,0.22841 c -0.153398,0.63511 -0.110612,1.32295 0.16588,1.96835 0.68144,1.59059 2.529568,2.33044 4.120163,1.649 1.590588,-0.68137 2.33044,-2.53003 1.648995,-4.12068 -0.51108,-1.19299 -1.678758,-1.90711 -2.901633,-1.90221 z m 0.0052,0.90589 c 0.869764,-0.003 1.699953,0.50511 2.06344,1.3534 0.48465,1.13133 -0.04122,2.4459 -1.172538,2.93057 -1.131348,0.48468 -2.446438,-0.0415 -2.931086,-1.17253 -0.48465,-1.13132 0.04174,-2.44641 1.173054,-2.93109 0.282837,-0.12117 0.57721,-0.17921 0.86713,-0.18035 z m -23.47712,0.56069 c -0.324022,-0.0109 -0.655359,0.0471 -0.97255,0.18293 -1.157613,0.49595 -1.695855,1.84121 -1.199927,2.99879 0.495927,1.15764 1.841171,1.69587 2.998784,1.19992 1.015003,-0.43483 1.553856,-1.52238 1.336868,-2.56418 l 0.639763,-0.27389 c -0.0028,-0.0427 -0.0067,-0.0853 -0.0067,-0.12867 0,-0.35186 0.0988,-0.68023 0.263548,-0.96738 l -1.253151,0.53691 c -0.415581,-0.6021 -1.093761,-0.96046 -1.806609,-0.98443 z m -0.0801,0.90485 c 0.536829,-0.002 1.048938,0.31121 1.273307,0.83509 0.299157,0.69832 -0.02521,1.50956 -0.723471,1.80868 -0.698312,0.29918 -1.510033,-0.025 -1.809192,-0.72347 -0.299159,-0.69831 0.02566,-1.51001 0.723988,-1.80919 0.174577,-0.0748 0.356425,-0.11038 0.535368,-0.11111 z m 15.317928,2.49132 c -0.3189,1.3e-4 -0.660242,8e-4 -0.985989,10e-4 l 1.684653,3.93206 c -0.875753,0.60449 -1.235819,1.76362 -0.800984,2.77864 0.495922,1.15765 1.840656,1.69588 2.998266,1.19993 1.15761,-0.49595 1.696371,-1.84121 1.200444,-2.99879 -0.434832,-1.01502 -1.522944,-1.55389 -2.564702,-1.33686 z m -6.205824,0.002 -0.835607,2.08824 c -0.635142,-0.15337 -1.322974,-0.11114 -1.968357,0.16537 -1.590646,0.68144 -2.330439,2.53002 -1.648994,4.12068 0.68144,1.59065 2.530083,2.33043 4.120679,1.64899 1.590588,-0.68144 2.330434,-2.53009 1.648994,-4.12068 -0.276516,-0.64547 -0.745402,-1.15087 -1.311031,-1.47794 l 0.969967,-2.42415 c -0.327493,1.5e-4 -0.647718,-5.2e-4 -0.975651,-5.2e-4 z m -1.580266,2.90628 c 0.869765,-0.003 1.700469,0.50511 2.063957,1.35341 0.48465,1.13125 -0.04174,2.44589 -1.173054,2.93057 -1.131348,0.48467 -2.445923,-0.042 -2.93057,-1.17306 -0.484651,-1.13125 0.04174,-2.44589 1.173054,-2.93057 0.282837,-0.12117 0.576693,-0.17921 0.866613,-0.18035 z m 9.775632,1.52601 c 0.536837,-0.002 1.049451,0.31125 1.273823,0.83509 0.299159,0.69831 -0.02572,1.51007 -0.723987,1.80919 -0.698254,0.29918 -1.510033,-0.0255 -1.809192,-0.72399 -0.299156,-0.69831 0.02572,-1.50956 0.723987,-1.80867 0.174565,-0.0748 0.356423,-0.1109 0.535369,-0.11162 z"
         id="path3741" />
      <path
         inkscape:connector-curvature="0"
         id="path3743"
         d="m 44.188862,35.34898 c -0.06773,0.007 -0.134568,0.0332 -0.190945,0.0796 -0.150308,0.12438 -0.171242,0.34734 -0.04684,0.49764 l 0.156466,0.18875 -0.622781,0.51537 -0.21657,-0.2612 c -0.124247,-0.15018 -0.346941,-0.17168 -0.497257,-0.0476 l -3.429898,2.83899 c -0.150289,0.12445 -0.171243,0.34734 -0.04684,0.49765 l 0.216133,0.26126 -1.05063,0.86941 c -0.150224,0.12437 -0.17123,0.34739 -0.04685,0.4977 l 0.952939,1.15094 c 0.124436,0.1503 0.34696,0.17128 0.49725,0.0469 l 1.050636,-0.86941 0.281104,0.33991 c 0.124391,0.15024 0.346935,0.17122 0.49725,0.0469 l 0.678904,-0.56182 c 0.185935,0.12535 0.40341,0.20732 0.637812,0.23123 0.400159,0.82217 0.592198,1.64838 0.585207,2.51498 -0.260502,0.23996 -0.451232,0.55413 -0.538798,0.90869 h -0.868116 v -1.11106 c 0,-0.19519 -0.158486,-0.35365 -0.353607,-0.35365 h -2.280972 c -0.195114,0 -0.294076,0.16764 -0.353157,0.35365 v 1.11113 h -0.100779 c -0.626618,0 -1.136371,0.50976 -1.136371,1.1364 0,0.62815 0.508313,1.13595 1.136371,1.13595 3.80599,0.009 7.956087,0 11.527811,0 0.210126,0 0.380118,-0.18301 0.380118,-0.39313 0,-0.21012 -0.169992,-0.38056 -0.380118,-0.38056 -0.689074,0 -1.249966,-0.56045 -1.249966,-1.24958 v -0.0274 h 3.342085 c 0.657371,0 1.195609,-0.53146 1.195609,-1.19557 v -6.92834 c 0,-0.66847 -0.542982,-1.19556 -1.195609,-1.19556 h -7.791262 c -0.148465,-0.17937 -0.346635,-0.41913 -0.43183,-0.52201 -0.07776,-0.094 -0.193863,-0.13747 -0.306748,-0.12646 z m 0.369068,1.31055 c 0.191531,0.23136 0.07863,0.0948 0.502104,0.60645 l -0.622775,0.51576 -0.502104,-0.60684 z m 0.999354,0.099 h 7.161398 c 0.239347,0 0.434482,0.1937 0.434482,0.43451 v 5.2982 c 0,0.23944 -0.193662,0.43451 -0.434482,0.43451 H 45.864475 C 45.629428,42.011 45.196523,41.16889 44.547766,40.3821 c 0.0172,-0.23436 -0.02339,-0.4549 -0.108735,-0.65375 l 0.682885,-0.56533 c 0.150296,-0.12438 0.171217,-0.34688 0.04685,-0.49725 l -0.28111,-0.33984 0.622774,-0.51537 0.156466,0.18869 c 0.12443,0.15037 0.347372,0.17122 0.497687,0.0469 0.150321,-0.12438 0.171242,-0.34694 0.04685,-0.49719 -0.144295,-0.17441 -0.40051,-0.48389 -0.654159,-0.79037 z m -2.608224,0.33333 c 0.160459,0.19389 1.259504,1.52159 1.450195,1.7521 l -0.393383,0.32609 c -1.170915,-0.90426 -2.775531,0.41672 -2.103025,1.74018 l -0.388959,0.32179 c -0.129889,-0.15695 -1.298844,-1.56921 -1.450195,-1.7521 z m 0.202431,2.49283 c 0.382476,0 0.693935,0.31104 0.693935,0.69355 0,0.38239 -0.311459,0.69389 -0.693935,0.69389 -0.382457,0 -0.693492,-0.3115 -0.693492,-0.69389 0,-0.38251 0.311009,-0.69355 0.693492,-0.69355 z m -3.190343,0.87957 0.502111,0.60644 -0.778361,0.64444 -0.502554,-0.60691 z m 4.286938,0.68378 c 0.585462,0.80197 0.937088,1.66545 1.065218,2.61662 -0.328939,-0.089 -0.68454,-0.0865 -1.02234,0.0182 -0.04333,-0.76386 -0.227613,-1.50081 -0.557804,-2.23163 0.201943,-0.0926 0.378202,-0.23156 0.514926,-0.40356 z m 1.69772,2.13267 c 0.0091,0.0443 0.0157,0.09 0.02391,0.1348 -0.0079,-0.045 -0.01512,-0.0902 -0.02391,-0.1348 z m 7.207358,0.32439 v 0.51628 c 0,0.23937 -0.193662,0.43451 -0.434482,0.43451 H 46.38161 c -0.08949,-0.14093 -0.195773,-0.27046 -0.319121,-0.38193 -0.0098,-0.16504 -0.209605,-0.48755 -0.04776,-0.48755 h 6.703931 c 0.151201,0 0.297815,-0.028 0.434481,-0.0813 z m -13.247123,0.732 h 1.574222 v 0.75799 h -1.574222 z m 4.929018,0.0707 c 0.621237,0 1.126651,0.5054 1.126651,1.1267 0,0.62111 -0.505538,1.1265 -1.126651,1.12663 h -4.49e-4 -6.52e-4 c -0.620833,-3.9e-4 -1.125771,-0.50579 -1.125771,-1.12663 0,-0.6213 0.505863,-1.1267 1.1271,-1.1267 z m 1.952645,0.90922 h 1.828235 v 0.0274 c 2.6e-5,0.47184 0.874996,1.24958 0.436247,1.24958 h -2.701172 c 0.273162,-0.34336 0.43669,-0.77774 0.43669,-1.24958 z m -7.689127,0.48181 h 3.922588 c 0.04711,0.32094 0.177894,0.61504 0.369074,0.85963 h -4.291662 c -0.237673,0 -0.430064,-0.19201 -0.430064,-0.42956 0,-0.23703 0.193049,-0.43007 0.430064,-0.43007 z"
         style="fill:#1e1e1e;fill-opacity:1;stroke-width:0.24916309"
         sodipodi:nodetypes="ccccccccccccccccccccccsssscssccssscssssccccccccccssssccccccccccccscccccscsssccccccccccccccccscccscccsccsscccssscccccsccccssscc" />
    </g>
  </g>
</svg>
