<?xml version="1.0" encoding="UTF-8" standalone="no"?>
<!-- Created with Inkscape (http://www.inkscape.org/) -->

<svg
   xmlns:dc="http://purl.org/dc/elements/1.1/"
   xmlns:cc="http://creativecommons.org/ns#"
   xmlns:rdf="http://www.w3.org/1999/02/22-rdf-syntax-ns#"
   xmlns:svg="http://www.w3.org/2000/svg"
   xmlns="http://www.w3.org/2000/svg"
   xmlns:sodipodi="http://sodipodi.sourceforge.net/DTD/sodipodi-0.dtd"
   xmlns:inkscape="http://www.inkscape.org/namespaces/inkscape"
   width="54.485329mm"
   height="31.166983mm"
   viewBox="0 0 54.485328 31.166982"
   version="1.1"
   id="svg4189"
   inkscape:version="0.92.4 (unknown)"
   sodipodi:docname="Biii_subtitle.svg"
   inkscape:export-filename="/users/biocomp/delestro/Desktop/NEUBIAS/Biii logo/Biii2019logo/Biii_long.png"
   inkscape:export-xdpi="1199.6489"
   inkscape:export-ydpi="1199.6489">
  <defs
     id="defs4183" />
  <sodipodi:namedview
     id="base"
     pagecolor="#ffffff"
     bordercolor="#666666"
     borderopacity="1.0"
     inkscape:pageopacity="0.0"
     inkscape:pageshadow="2"
     inkscape:zoom="1.6241359"
     inkscape:cx="98.511663"
     inkscape:cy="10.60251"
     inkscape:document-units="mm"
     inkscape:current-layer="layer1"
     showgrid="false"
     fit-margin-top="1"
     fit-margin-left="1"
     fit-margin-right="1"
     fit-margin-bottom="1"
     inkscape:window-width="958"
     inkscape:window-height="1027"
     inkscape:window-x="0"
     inkscape:window-y="24"
     inkscape:window-maximized="0" />
  <metadata
     id="metadata4186">
    <rdf:RDF>
      <cc:Work
         rdf:about="">
        <dc:format>image/svg+xml</dc:format>
        <dc:type
           rdf:resource="http://purl.org/dc/dcmitype/StillImage" />
        <dc:title></dc:title>
      </cc:Work>
    </rdf:RDF>
  </metadata>
  <g
     inkscape:label="Layer 1"
     inkscape:groupmode="layer"
     id="layer1"
     transform="translate(-65.853013,-112.74289)">
    <g
       transform="translate(-59.881698,39.177741)"
       id="g4128">
      <path
         style="fill:#1e1e1e;fill-opacity:1;stroke-width:0.0604129"
         d="m 145.88114,74.56517 c -0.40762,0.002 -0.8214,0.0829 -1.21905,0.25321 -1.59059,0.68138 -2.33044,2.53003 -1.64899,4.12068 0.27651,0.64548 0.7454,1.15081 1.31103,1.47795 l -0.67903,1.69705 h 0.97565 l 0.54467,-1.36064 c 0.63515,0.15344 1.32297,0.11108 1.96836,-0.16536 1.59064,-0.68144 2.33044,-2.53003 1.64899,-4.12068 -0.51108,-1.19299 -1.67877,-1.90711 -2.90163,-1.90221 z m -9.76633,0.18242 c -0.29665,10e-4 -0.59788,0.0605 -0.88728,0.18448 -1.15761,0.49588 -1.69585,1.84114 -1.19993,2.99879 0.43483,1.01495 1.52295,1.55382 2.5647,1.33686 l 1.34566,3.14141 c 0.13504,-0.0355 0.2746,-0.0501 0.41289,-0.0393 0.0534,-0.21175 0.15096,-0.41181 0.31161,-0.57051 l -1.23713,-2.88819 c 0.87574,-0.6045 1.23581,-1.76414 0.80098,-2.77916 -0.37194,-0.86819 -1.22154,-1.38798 -2.1115,-1.38441 z m 9.77098,0.72347 c 0.86976,-0.003 1.70047,0.50511 2.06396,1.3534 0.48465,1.13132 -0.0417,2.4459 -1.17306,2.93057 -1.13135,0.48468 -2.44592,-0.042 -2.93057,-1.17305 -0.48465,-1.13132 0.0412,-2.4459 1.17254,-2.93057 0.28284,-0.12117 0.57721,-0.17922 0.86713,-0.18035 z m -9.76633,0.18293 c 0.53684,-0.002 1.04946,0.31121 1.27383,0.83509 0.29916,0.69825 -0.0252,1.50949 -0.72347,1.80868 -0.69826,0.29912 -1.51004,-0.025 -1.8092,-0.72347 -0.29916,-0.69831 0.0257,-1.51001 0.72399,-1.80919 0.17456,-0.0748 0.35591,-0.11038 0.53485,-0.11111 z m -6.26318,5.77381 c -0.40762,0.002 -0.8214,0.0834 -1.21905,0.25373 -1.59059,0.68137 -2.33043,2.52951 -1.64899,4.12016 0.68143,1.59065 2.53003,2.33044 4.12068,1.649 v 0.003 c 0.64544,-0.27651 1.15032,-0.74537 1.47742,-1.31103 l 1.06661,0.42685 c -0.0439,-0.31074 0.0314,-0.63269 0.22065,-0.88987 l -0.95032,-0.38034 c 0.15339,-0.63518 0.1106,-1.32346 -0.16589,-1.96887 -0.51108,-1.19299 -1.67825,-1.90711 -2.90111,-1.90221 z m 0.005,0.90847 c 0.86976,-0.003 1.69995,0.50511 2.06344,1.35341 0.48464,1.13125 -0.0412,2.44589 -1.17254,2.93057 -1.13135,0.48467 -2.44592,-0.042 -2.93057,-1.17306 -0.48465,-1.13126 0.0412,-2.44589 1.17253,-2.93057 0.28284,-0.12117 0.57721,-0.17921 0.86714,-0.18035 z m -0.58653,9.72034 c -0.32402,-0.0109 -0.65536,0.0471 -0.97255,0.18293 -1.15761,0.49595 -1.69586,1.84121 -1.19993,2.99879 0.49593,1.15764 1.84117,1.69638 2.99878,1.20044 1.01501,-0.43484 1.55386,-1.5229 1.33687,-2.5647 l 0.96428,-0.4129 c -0.0123,-0.0883 -0.0212,-0.17737 -0.0212,-0.26871 0,-0.27767 0.0632,-0.54038 0.16898,-0.78084 l -1.46916,0.62942 c -0.41558,-0.6021 -1.09324,-0.96046 -1.80609,-0.98443 z m -0.0806,0.90485 c 0.53683,-0.002 1.04946,0.31121 1.27383,0.83509 0.29915,0.69831 -0.0257,1.51007 -0.72399,1.80919 -0.69831,0.29919 -1.50952,-0.0255 -1.80868,-0.72398 -0.29915,-0.69832 0.0257,-1.51001 0.72399,-1.80919 0.17458,-0.0748 0.35591,-0.11038 0.53485,-0.11111 z m 15.19856,2.21279 c -0.32204,1.6e-4 -0.65763,2.6e-4 -0.98599,5.3e-4 l 1.80454,4.21111 c -0.87575,0.60449 -1.23633,1.76362 -0.8015,2.77864 0.49592,1.15764 1.84117,1.69587 2.99878,1.19993 1.15762,-0.49595 1.69586,-1.84121 1.19993,-2.99879 -0.43483,-1.01502 -1.52243,-1.55389 -2.56418,-1.33687 z m -5.97431,0.002 -0.94723,2.3673 c -0.63514,-0.15337 -1.32297,-0.11114 -1.96836,0.16537 -1.59065,0.68143 -2.33044,2.53002 -1.64899,4.12067 0.68144,1.59066 2.52956,2.33044 4.12016,1.649 1.59059,-0.68144 2.33043,-2.53009 1.64899,-4.12068 -0.27651,-0.64547 -0.74488,-1.15036 -1.31051,-1.47743 l 1.0821,-2.70371 c -0.32784,1.3e-4 -0.6481,-5.3e-4 -0.97616,-5.3e-4 z m -1.69189,3.18534 c 0.86976,-0.003 1.69995,0.50511 2.06344,1.35341 0.48465,1.13125 -0.0412,2.44589 -1.17254,2.93057 -1.13135,0.48467 -2.44592,-0.0415 -2.93057,-1.17254 -0.48465,-1.13126 0.0412,-2.44641 1.17254,-2.93109 0.28284,-0.12117 0.57721,-0.17921 0.86713,-0.18035 z m 9.77511,1.526 c 0.53684,-0.002 1.04945,0.31126 1.27383,0.83509 0.29916,0.69832 -0.0257,1.51008 -0.72399,1.8092 -0.69825,0.29918 -1.50952,-0.0255 -1.80868,-0.72399 -0.29915,-0.69831 0.0257,-1.50956 0.72399,-1.80867 0.17457,-0.0748 0.35591,-0.1109 0.53485,-0.11163 z"
         id="path3761"
         inkscape:connector-curvature="0" />
      <path
         inkscape:connector-curvature="0"
         id="path3763"
         d="m 139.45204,82.31332 c -0.0677,0.007 -0.13456,0.0332 -0.19094,0.0796 -0.15031,0.12438 -0.17124,0.34733 -0.0469,0.49764 l 0.15647,0.18875 -0.62278,0.51536 -0.21657,-0.2612 c -0.12425,-0.15018 -0.34694,-0.17168 -0.49726,-0.0476 l -3.4299,2.83899 c -0.15029,0.12444 -0.17124,0.34733 -0.0468,0.49764 l 0.21613,0.26127 -1.05063,0.8694 c -0.15022,0.12438 -0.17123,0.3474 -0.0468,0.49771 l 0.95293,1.15093 c 0.12444,0.15031 0.34697,0.17129 0.49725,0.0469 l 1.05064,-0.8694 0.2811,0.3399 c 0.1244,0.15025 0.34694,0.17123 0.49726,0.0469 l 0.6789,-0.56181 c 0.18593,0.12535 0.40341,0.20731 0.63781,0.23122 0.40016,0.82217 0.5922,1.64838 0.58521,2.51499 -0.2605,0.23996 -0.45123,0.55413 -0.5388,0.90869 h -0.86812 v -1.11106 c 0,-0.1952 -0.15848,-0.35365 -0.3536,-0.35365 h -2.28097 c -0.19512,0 -0.29408,0.16764 -0.35316,0.35365 v 1.11113 h -0.10078 c -0.62662,0 -1.13637,0.50976 -1.13637,1.1364 0,0.62814 0.50831,1.13595 1.13637,1.13595 3.80599,0.009 7.95609,0 11.52781,0 0.21013,0 0.38012,-0.18302 0.38012,-0.39314 0,-0.21012 -0.16999,-0.38056 -0.38012,-0.38056 -0.68907,0 -1.24997,-0.56045 -1.24997,-1.24957 v -0.0274 h 3.34209 c 0.65737,0 1.19561,-0.53145 1.19561,-1.19556 v -6.92834 c 0,-0.66847 -0.54298,-1.19556 -1.19561,-1.19556 h -7.79126 c -0.14847,-0.17937 -0.34664,-0.41913 -0.43183,-0.52201 -0.0778,-0.0939 -0.19387,-0.13747 -0.30675,-0.12646 z m 0.36907,1.31056 c 0.19153,0.23136 0.0786,0.0948 0.5021,0.60645 l -0.62277,0.51575 -0.5021,-0.60684 z m 0.99935,0.099 h 7.1614 c 0.23935,0 0.43448,0.1937 0.43448,0.43451 v 5.2982 c 0,0.23944 -0.19366,0.43451 -0.43448,0.43451 h -6.8542 c -0.23505,-0.91476 -0.66796,-1.75686 -1.31671,-2.54365 0.0172,-0.23436 -0.0234,-0.4549 -0.10874,-0.65375 l 0.68289,-0.56534 c 0.15029,-0.12438 0.17121,-0.34687 0.0468,-0.49725 l -0.28111,-0.33984 0.62278,-0.51536 0.15646,0.18868 c 0.12443,0.15038 0.34737,0.17123 0.49769,0.0469 0.15032,-0.12437 0.17124,-0.34694 0.0468,-0.49718 -0.14429,-0.17442 -0.40051,-0.48389 -0.65415,-0.79038 z m -2.60822,0.33332 c 0.16046,0.1939 1.25951,1.52159 1.4502,1.75211 l -0.39339,0.32609 c -1.17091,-0.90426 -2.77553,0.41672 -2.10302,1.74018 l -0.38896,0.32179 c -0.12989,-0.15695 -1.29885,-1.56922 -1.4502,-1.7521 z m 0.20243,2.49283 c 0.38248,0 0.69394,0.31105 0.69394,0.69356 0,0.38239 -0.31146,0.69388 -0.69394,0.69388 -0.38245,0 -0.69349,-0.31149 -0.69349,-0.69388 0,-0.38251 0.31101,-0.69356 0.69349,-0.69356 z m -3.19034,0.87957 0.50211,0.60645 -0.77836,0.64443 -0.50255,-0.6069 z m 4.28694,0.68379 c 0.58546,0.80197 0.93708,1.66545 1.06522,2.61662 -0.32894,-0.089 -0.68454,-0.0865 -1.02235,0.0182 -0.0433,-0.76385 -0.22761,-1.5008 -0.5578,-2.23163 0.20194,-0.0927 0.3782,-0.23155 0.51493,-0.40356 z m 1.69772,2.13266 c 0.009,0.0443 0.0157,0.09 0.0239,0.1348 -0.008,-0.045 -0.0151,-0.0902 -0.0239,-0.1348 z m 7.20735,0.3244 v 0.51628 c 0,0.23937 -0.19366,0.4345 -0.43448,0.4345 h -6.33707 c -0.0895,-0.14092 -0.19577,-0.27045 -0.31912,-0.38193 -0.01,-0.16503 -0.2096,-0.48754 -0.0478,-0.48754 h 6.70393 c 0.15121,0 0.29782,-0.028 0.43449,-0.0813 z m -13.24712,0.732 h 1.57422 v 0.75799 h -1.57422 z m 4.92902,0.0707 c 0.62124,0 1.12665,0.50539 1.12665,1.1267 0,0.6211 -0.50554,1.1265 -1.12665,1.12663 h -4.5e-4 -6.5e-4 c -0.62083,-4.6e-4 -1.12577,-0.50579 -1.12577,-1.12663 0,-0.62131 0.50586,-1.1267 1.1271,-1.1267 z m 1.95265,0.90921 h 1.82823 v 0.0274 c 3e-5,0.47184 0.875,1.24957 0.43625,1.24957 h -2.70117 c 0.27316,-0.34335 0.43669,-0.77773 0.43669,-1.24957 z m -7.68913,0.48181 h 3.92259 c 0.0471,0.32095 0.17789,0.61505 0.36907,0.85964 h -4.29166 c -0.23768,0 -0.43007,-0.19201 -0.43007,-0.42956 0,-0.23703 0.19305,-0.43008 0.43007,-0.43008 z"
         style="fill:#1e1e1e;fill-opacity:1;stroke-width:0.24916309"
         sodipodi:nodetypes="ccccccccccccccccccccccsssscssccssscssssccccccccccssssccccccccccccscccccscsssccccccccccccccccscccscccsccsscccssscccccsccccssscc" />
      <path
         inkscape:connector-curvature="0"
         style="color:#000000;font-style:normal;font-variant:normal;font-weight:bold;font-stretch:normal;font-size:33.91718292px;line-height:100%;font-family:'Helvetica Neue';-inkscape-font-specification:'Helvetica Neue Bold';font-variant-ligatures:normal;font-variant-position:normal;font-variant-caps:normal;font-variant-numeric:normal;font-variant-alternates:normal;font-feature-settings:normal;text-indent:0;text-align:start;text-decoration:none;text-decoration-line:none;text-decoration-style:solid;text-decoration-color:#000000;letter-spacing:-2.0085485px;word-spacing:normal;text-transform:none;writing-mode:lr-tb;direction:ltr;text-orientation:mixed;dominant-baseline:auto;baseline-shift:baseline;text-anchor:start;white-space:normal;shape-padding:0;clip-rule:nonzero;display:inline;overflow:visible;visibility:visible;opacity:1;isolation:auto;mix-blend-mode:normal;color-interpolation:sRGB;color-interpolation-filters:linearRGB;solid-color:#000000;solid-opacity:1;vector-effect:none;fill:#1e1e1e;fill-opacity:1;fill-rule:nonzero;stroke:none;stroke-width:0.58649743;stroke-linecap:round;stroke-linejoin:round;stroke-miterlimit:4;stroke-dasharray:none;stroke-dashoffset:3.82677174;stroke-opacity:1;paint-order:fill markers stroke;color-rendering:auto;image-rendering:auto;shape-rendering:auto;text-rendering:auto;enable-background:accumulate"
         d="m 152.41351,76.81923 a 0.29327804,0.29327804 0 0 0 -0.29257,0.29292 v 10.92591 a 0.29327804,0.29327804 0 0 0 0.29257,0.29257 h 5.29511 c 0.51367,0 1.01285,-0.0644 1.49659,-0.19325 0.49826,-0.12999 0.94467,-0.33229 1.33228,-0.60839 h 0.002 c 0.4033,-0.28037 0.72723,-0.64457 0.96193,-1.08044 a 0.29327804,0.29327804 0 0 0 0.002,0 c 0.23948,-0.45615 0.35487,-0.98517 0.35487,-1.57403 0,-0.73017 -0.1831,-1.37755 -0.55587,-1.91004 -0.28123,-0.4205 -0.71033,-0.71131 -1.20502,-0.93297 0.29679,-0.2036 0.62171,-0.38845 0.80671,-0.66528 0.29331,-0.42331 0.43501,-0.94714 0.43501,-1.54238 0,-0.54129 -0.0923,-1.01404 -0.2899,-1.4114 -0.18357,-0.38937 -0.45573,-0.70993 -0.80435,-0.94274 -0.34163,-0.2382 -0.74549,-0.40448 -1.20366,-0.50267 -0.45221,-0.0969 -0.94763,-0.14377 -1.48512,-0.14377 z m 2.6952,2.45345 h 1.95717 c 0.19561,0 0.37868,0.0184 0.55117,0.0549 a 0.29327804,0.29327804 0 0 0 0.0166,0 c 0.17231,0.0261 0.31276,0.0756 0.42894,0.14511 0.10947,0.0657 0.19275,0.15174 0.26194,0.27473 0.0598,0.10628 0.10067,0.2636 0.10067,0.48349 0,0.40037 -0.10436,0.61847 -0.29527,0.75991 -0.21688,0.16028 -0.49904,0.24815 -0.88044,0.24815 h -2.14068 z m 0,4.19178 h 2.32384 c 0.47426,0 0.82069,0.10957 1.07538,0.30673 a 0.29327804,0.29327804 0 0 0 0.005,0.006 c 0.22643,0.16805 0.35624,0.45124 0.35624,0.95722 0,0.2507 -0.0462,0.43509 -0.11685,0.56227 a 0.29327804,0.29327804 0 0 0 -0.005,0.0117 c -0.0707,0.14132 -0.16292,0.24424 -0.28383,0.32828 -0.13029,0.0804 -0.28335,0.1443 -0.46565,0.18821 -0.19272,0.0365 -0.39584,0.0549 -0.61076,0.0549 h -2.27803 z"
         id="path3765" />
      <path
         inkscape:connector-curvature="0"
         style="color:#000000;font-style:normal;font-variant:normal;font-weight:bold;font-stretch:normal;font-size:33.91718292px;line-height:100%;font-family:'Helvetica Neue';-inkscape-font-specification:'Helvetica Neue Bold';font-variant-ligatures:normal;font-variant-position:normal;font-variant-caps:normal;font-variant-numeric:normal;font-variant-alternates:normal;font-feature-settings:normal;text-indent:0;text-align:start;text-decoration:none;text-decoration-line:none;text-decoration-style:solid;text-decoration-color:#000000;letter-spacing:-2.0085485px;word-spacing:normal;text-transform:none;writing-mode:lr-tb;direction:ltr;text-orientation:mixed;dominant-baseline:auto;baseline-shift:baseline;text-anchor:start;white-space:normal;shape-padding:0;clip-rule:nonzero;display:inline;overflow:visible;visibility:visible;opacity:1;isolation:auto;mix-blend-mode:normal;color-interpolation:sRGB;color-interpolation-filters:linearRGB;solid-color:#000000;solid-opacity:1;vector-effect:none;fill:#1e1e1e;fill-opacity:1;fill-rule:nonzero;stroke:none;stroke-width:0.58649743;stroke-linecap:round;stroke-linejoin:round;stroke-miterlimit:4;stroke-dasharray:none;stroke-dashoffset:3.82677174;stroke-opacity:1;paint-order:fill markers stroke;color-rendering:auto;image-rendering:auto;shape-rendering:auto;text-rendering:auto;enable-background:accumulate"
         d="m 162.46403,79.83395 a 0.29327804,0.29327804 0 0 0 -0.29394,0.29259 v 7.82632 a 0.29327804,0.29327804 0 0 0 0.29394,0.29361 h 2.1723 a 0.29327804,0.29327804 0 0 0 0.29394,-0.29361 v -7.82632 a 0.29327804,0.29327804 0 0 0 -0.29394,-0.29259 z"
         id="path3767" />
      <path
         inkscape:connector-curvature="0"
         style="color:#000000;font-style:normal;font-variant:normal;font-weight:bold;font-stretch:normal;font-size:33.91718292px;line-height:100%;font-family:'Helvetica Neue';-inkscape-font-specification:'Helvetica Neue Bold';font-variant-ligatures:normal;font-variant-position:normal;font-variant-caps:normal;font-variant-numeric:normal;font-variant-alternates:normal;font-feature-settings:normal;text-indent:0;text-align:start;text-decoration:none;text-decoration-line:none;text-decoration-style:solid;text-decoration-color:#000000;letter-spacing:-2.0085485px;word-spacing:normal;text-transform:none;writing-mode:lr-tb;direction:ltr;text-orientation:mixed;dominant-baseline:auto;baseline-shift:baseline;text-anchor:start;white-space:normal;shape-padding:0;clip-rule:nonzero;display:inline;overflow:visible;visibility:visible;opacity:1;isolation:auto;mix-blend-mode:normal;color-interpolation:sRGB;color-interpolation-filters:linearRGB;solid-color:#000000;solid-opacity:1;vector-effect:none;fill:#1e1e1e;fill-opacity:1;fill-rule:nonzero;stroke:none;stroke-width:0.58649743;stroke-linecap:round;stroke-linejoin:round;stroke-miterlimit:4;stroke-dasharray:none;stroke-dashoffset:3.82677174;stroke-opacity:1;paint-order:fill markers stroke;color-rendering:auto;image-rendering:auto;shape-rendering:auto;text-rendering:auto;enable-background:accumulate"
         d="m 165.74068,79.83395 a 0.29327804,0.29327804 0 0 0 -0.29258,0.29259 v 7.82632 a 0.29327804,0.29327804 0 0 0 0.29258,0.29361 h 2.17367 a 0.29327804,0.29327804 0 0 0 0.29257,-0.29361 v -7.82632 a 0.29327804,0.29327804 0 0 0 -0.29257,-0.29259 z"
         id="path3769" />
      <path
         inkscape:connector-curvature="0"
         style="color:#000000;font-style:normal;font-variant:normal;font-weight:bold;font-stretch:normal;font-size:33.91718292px;line-height:100%;font-family:'Helvetica Neue';-inkscape-font-specification:'Helvetica Neue Bold';font-variant-ligatures:normal;font-variant-position:normal;font-variant-caps:normal;font-variant-numeric:normal;font-variant-alternates:normal;font-feature-settings:normal;text-indent:0;text-align:start;text-decoration:none;text-decoration-line:none;text-decoration-style:solid;text-decoration-color:#000000;letter-spacing:-2.0085485px;word-spacing:normal;text-transform:none;writing-mode:lr-tb;direction:ltr;text-orientation:mixed;dominant-baseline:auto;baseline-shift:baseline;text-anchor:start;white-space:normal;shape-padding:0;clip-rule:nonzero;display:inline;overflow:visible;visibility:visible;opacity:1;isolation:auto;mix-blend-mode:normal;color-interpolation:sRGB;color-interpolation-filters:linearRGB;solid-color:#000000;solid-opacity:1;vector-effect:none;fill:#1e1e1e;fill-opacity:1;fill-rule:nonzero;stroke:none;stroke-width:0.58649743;stroke-linecap:round;stroke-linejoin:round;stroke-miterlimit:4;stroke-dasharray:none;stroke-dashoffset:3.82677174;stroke-opacity:1;paint-order:fill markers stroke;color-rendering:auto;image-rendering:auto;shape-rendering:auto;text-rendering:auto;enable-background:accumulate"
         d="m 169.01868,79.83395 a 0.29327804,0.29327804 0 0 0 -0.29258,0.29259 v 7.82632 a 0.29327804,0.29327804 0 0 0 0.29258,0.29361 h 2.17367 a 0.29327804,0.29327804 0 0 0 0.29258,-0.29361 v -7.82632 a 0.29327804,0.29327804 0 0 0 -0.29258,-0.29259 z"
         id="path3771" />
      <path
         inkscape:connector-curvature="0"
         style="color:#000000;font-style:normal;font-variant:normal;font-weight:normal;font-stretch:normal;font-size:medium;line-height:normal;font-family:sans-serif;font-variant-ligatures:normal;font-variant-position:normal;font-variant-caps:normal;font-variant-numeric:normal;font-variant-alternates:normal;font-feature-settings:normal;text-indent:0;text-align:start;text-decoration:none;text-decoration-line:none;text-decoration-style:solid;text-decoration-color:#000000;letter-spacing:normal;word-spacing:normal;text-transform:none;writing-mode:lr-tb;direction:ltr;text-orientation:mixed;dominant-baseline:auto;baseline-shift:baseline;text-anchor:start;white-space:normal;shape-padding:0;clip-rule:nonzero;display:inline;overflow:visible;visibility:visible;opacity:1;isolation:auto;mix-blend-mode:normal;color-interpolation:sRGB;color-interpolation-filters:linearRGB;solid-color:#000000;solid-opacity:1;vector-effect:none;fill:#1e1e1e;fill-opacity:1;fill-rule:nonzero;stroke:none;stroke-width:0.58649743;stroke-linecap:round;stroke-linejoin:round;stroke-miterlimit:4;stroke-dasharray:none;stroke-dashoffset:0;stroke-opacity:1;paint-order:fill markers stroke;color-rendering:auto;image-rendering:auto;shape-rendering:auto;text-rendering:auto;enable-background:accumulate"
         d="m 163.55086,76.69465 c -0.75096,0 -1.36663,0.61567 -1.36663,1.36663 0,0.75096 0.61567,1.36562 1.36663,1.36562 0.75094,0 1.36527,-0.61466 1.36527,-1.36562 0,-0.75096 -0.61433,-1.36663 -1.36527,-1.36663 z"
         id="path3773" />
      <path
         inkscape:connector-curvature="0"
         style="color:#000000;font-style:normal;font-variant:normal;font-weight:normal;font-stretch:normal;font-size:medium;line-height:normal;font-family:sans-serif;font-variant-ligatures:normal;font-variant-position:normal;font-variant-caps:normal;font-variant-numeric:normal;font-variant-alternates:normal;font-feature-settings:normal;text-indent:0;text-align:start;text-decoration:none;text-decoration-line:none;text-decoration-style:solid;text-decoration-color:#000000;letter-spacing:normal;word-spacing:normal;text-transform:none;writing-mode:lr-tb;direction:ltr;text-orientation:mixed;dominant-baseline:auto;baseline-shift:baseline;text-anchor:start;white-space:normal;shape-padding:0;clip-rule:nonzero;display:inline;overflow:visible;visibility:visible;opacity:1;isolation:auto;mix-blend-mode:normal;color-interpolation:sRGB;color-interpolation-filters:linearRGB;solid-color:#000000;solid-opacity:1;vector-effect:none;fill:#1e1e1e;fill-opacity:1;fill-rule:nonzero;stroke:none;stroke-width:0.58649743;stroke-linecap:round;stroke-linejoin:round;stroke-miterlimit:4;stroke-dasharray:none;stroke-dashoffset:0;stroke-opacity:1;paint-order:fill markers stroke;color-rendering:auto;image-rendering:auto;shape-rendering:auto;text-rendering:auto;enable-background:accumulate"
         d="m 166.82752,76.69465 c -0.75096,0 -1.36529,0.61567 -1.36527,1.36663 0,0.75096 0.61431,1.36562 1.36527,1.36562 0.75096,0 1.36661,-0.61466 1.36661,-1.36562 0,-0.75096 -0.61565,-1.36663 -1.36661,-1.36663 z"
         id="path3775" />
      <path
         inkscape:connector-curvature="0"
         style="color:#000000;font-style:normal;font-variant:normal;font-weight:normal;font-stretch:normal;font-size:medium;line-height:normal;font-family:sans-serif;font-variant-ligatures:normal;font-variant-position:normal;font-variant-caps:normal;font-variant-numeric:normal;font-variant-alternates:normal;font-feature-settings:normal;text-indent:0;text-align:start;text-decoration:none;text-decoration-line:none;text-decoration-style:solid;text-decoration-color:#000000;letter-spacing:normal;word-spacing:normal;text-transform:none;writing-mode:lr-tb;direction:ltr;text-orientation:mixed;dominant-baseline:auto;baseline-shift:baseline;text-anchor:start;white-space:normal;shape-padding:0;clip-rule:nonzero;display:inline;overflow:visible;visibility:visible;opacity:1;isolation:auto;mix-blend-mode:normal;color-interpolation:sRGB;color-interpolation-filters:linearRGB;solid-color:#000000;solid-opacity:1;vector-effect:none;fill:#1e1e1e;fill-opacity:1;fill-rule:nonzero;stroke:none;stroke-width:0.58649743;stroke-linecap:round;stroke-linejoin:round;stroke-miterlimit:4;stroke-dasharray:none;stroke-dashoffset:0;stroke-opacity:1;paint-order:fill markers stroke;color-rendering:auto;image-rendering:auto;shape-rendering:auto;text-rendering:auto;enable-background:accumulate"
         d="m 170.10552,76.69465 c -0.75094,0 -1.36662,0.61567 -1.36662,1.36663 0,0.75096 0.61568,1.36562 1.36662,1.36562 0.75096,0 1.36561,-0.61466 1.36561,-1.36562 0,-0.75096 -0.61465,-1.36663 -1.36561,-1.36663 z"
         id="path3777" />
      <path
         id="path3779"
         style="font-style:normal;font-variant:normal;font-weight:bold;font-stretch:normal;font-size:16.90843773px;line-height:100%;font-family:'Helvetica Neue';-inkscape-font-specification:'Helvetica Neue Bold';font-variant-ligatures:normal;font-variant-caps:normal;font-variant-numeric:normal;font-feature-settings:normal;text-align:start;letter-spacing:-1.00130415px;writing-mode:lr-tb;text-anchor:start;fill:#3d3d3d;fill-opacity:1;fill-rule:nonzero;stroke:none;stroke-width:0.88435262;stroke-linecap:round;stroke-linejoin:round;stroke-miterlimit:4;stroke-dasharray:none;stroke-dashoffset:3.82677174;stroke-opacity:1;paint-order:fill markers stroke"
         d="m 153.12448,91.24628 v -0.93781 h 0.8255 q 0.11793,0 0.22463,0.0226 0.11231,0.0169 0.19654,0.0674 0.0842,0.0505 0.13478,0.14039 0.0505,0.0898 0.0505,0.23022 0,0.25271 -0.15162,0.36504 -0.15162,0.11229 -0.38748,0.11229 z m -0.88165,-1.62291 v 4.00956 h 1.94301 q 0.26955,0 0.52225,-0.0674 0.25832,-0.0674 0.45487,-0.20777 0.20216,-0.14039 0.32009,-0.35939 0.11793,-0.22465 0.11793,-0.52787 0,-0.37626 -0.18532,-0.6402 -0.1797,-0.26955 -0.55033,-0.37626 0.26955,-0.12916 0.40433,-0.33132 0.14039,-0.20216 0.14039,-0.50539 0,-0.28077 -0.0955,-0.47171 -0.0898,-0.19094 -0.25832,-0.30326 -0.16847,-0.11793 -0.40432,-0.16845 -0.23586,-0.0505 -0.52226,-0.0505 z m 0.88165,3.32446 v -1.10068 h 0.96028 q 0.28639,0 0.46048,0.13478 0.17409,0.12916 0.17409,0.43803 0,0.15723 -0.0562,0.25832 -0.0505,0.10107 -0.14039,0.16284 -0.0898,0.0562 -0.20778,0.0843 -0.11793,0.0226 -0.24709,0.0226 z"
         inkscape:connector-curvature="0" />
      <path
         id="path3781"
         style="font-style:normal;font-variant:normal;font-weight:bold;font-stretch:normal;font-size:16.90843773px;line-height:100%;font-family:'Helvetica Neue';-inkscape-font-specification:'Helvetica Neue Bold';font-variant-ligatures:normal;font-variant-caps:normal;font-variant-numeric:normal;font-feature-settings:normal;text-align:start;letter-spacing:-1.00130415px;writing-mode:lr-tb;text-anchor:start;fill:#3d3d3d;fill-opacity:1;fill-rule:nonzero;stroke:none;stroke-width:0.88435262;stroke-linecap:round;stroke-linejoin:round;stroke-miterlimit:4;stroke-dasharray:none;stroke-dashoffset:3.82677174;stroke-opacity:1;paint-order:fill markers stroke"
         d="M 156.59442,90.28041 V 89.62337 H 155.797 v 0.65704 z m -0.79742,0.44925 v 2.90327 h 0.79742 v -2.90327 z"
         inkscape:connector-curvature="0" />
      <path
         id="path3783"
         style="font-style:normal;font-variant:normal;font-weight:bold;font-stretch:normal;font-size:16.90843773px;line-height:100%;font-family:'Helvetica Neue';-inkscape-font-specification:'Helvetica Neue Bold';font-variant-ligatures:normal;font-variant-caps:normal;font-variant-numeric:normal;font-feature-settings:normal;text-align:start;letter-spacing:-1.00130415px;writing-mode:lr-tb;text-anchor:start;fill:#3d3d3d;fill-opacity:1;fill-rule:nonzero;stroke:none;stroke-width:0.88435262;stroke-linecap:round;stroke-linejoin:round;stroke-miterlimit:4;stroke-dasharray:none;stroke-dashoffset:3.82677174;stroke-opacity:1;paint-order:fill markers stroke"
         d="m 157.59734,92.18409 q 0,-0.17407 0.0337,-0.34255 0.0337,-0.16845 0.11231,-0.29762 0.0842,-0.12916 0.21901,-0.20777 0.13478,-0.0843 0.33694,-0.0843 0.20216,0 0.33694,0.0843 0.14039,0.0786 0.21901,0.20777 0.0842,0.12917 0.11793,0.29762 0.0337,0.16848 0.0337,0.34255 0,0.17409 -0.0337,0.34258 -0.0337,0.16284 -0.11793,0.29761 -0.0786,0.12916 -0.21901,0.20778 -0.13478,0.0786 -0.33694,0.0786 -0.20216,0 -0.33694,-0.0786 -0.13477,-0.0786 -0.21901,-0.20778 -0.0786,-0.13477 -0.11231,-0.29761 -0.0337,-0.16849 -0.0337,-0.34258 z m -0.79743,0 q 0,0.34819 0.1067,0.62897 0.1067,0.28077 0.30325,0.48293 0.19654,0.19655 0.47171,0.30326 0.27517,0.10668 0.61772,0.10668 0.34256,0 0.61772,-0.10668 0.28078,-0.10671 0.47733,-0.30326 0.19655,-0.20216 0.30324,-0.48293 0.1067,-0.28078 0.1067,-0.62897 0,-0.34816 -0.1067,-0.62894 -0.10669,-0.28639 -0.30324,-0.48294 -0.19655,-0.20216 -0.47733,-0.30887 -0.27516,-0.11232 -0.61772,-0.11232 -0.34255,0 -0.61772,0.11232 -0.27517,0.10671 -0.47171,0.30887 -0.19655,0.19655 -0.30325,0.48294 -0.1067,0.28078 -0.1067,0.62894 z"
         inkscape:connector-curvature="0" />
      <path
         id="path3785"
         style="font-style:normal;font-variant:normal;font-weight:bold;font-stretch:normal;font-size:16.90843773px;line-height:100%;font-family:'Helvetica Neue';-inkscape-font-specification:'Helvetica Neue Bold';font-variant-ligatures:normal;font-variant-caps:normal;font-variant-numeric:normal;font-feature-settings:normal;text-align:start;letter-spacing:-1.00130415px;writing-mode:lr-tb;text-anchor:start;fill:#3d3d3d;fill-opacity:1;fill-rule:nonzero;stroke:none;stroke-width:0.88435262;stroke-linecap:round;stroke-linejoin:round;stroke-miterlimit:4;stroke-dasharray:none;stroke-dashoffset:3.82677174;stroke-opacity:1;paint-order:fill markers stroke"
         d="m 160.07444,89.62337 v 4.00956 h 0.88166 v -4.00956 z"
         inkscape:connector-curvature="0" />
      <path
         id="path3787"
         style="font-style:normal;font-variant:normal;font-weight:bold;font-stretch:normal;font-size:16.90843773px;line-height:100%;font-family:'Helvetica Neue';-inkscape-font-specification:'Helvetica Neue Bold';font-variant-ligatures:normal;font-variant-caps:normal;font-variant-numeric:normal;font-feature-settings:normal;text-align:start;letter-spacing:-1.00130415px;writing-mode:lr-tb;text-anchor:start;fill:#3d3d3d;fill-opacity:1;fill-rule:nonzero;stroke:none;stroke-width:0.88435262;stroke-linecap:round;stroke-linejoin:round;stroke-miterlimit:4;stroke-dasharray:none;stroke-dashoffset:3.82677174;stroke-opacity:1;paint-order:fill markers stroke"
         d="m 161.33629,90.72966 v 2.90327 h 0.79742 v -1.68468 q 0,-0.21339 0.0618,-0.34255 0.0618,-0.13478 0.146,-0.20216 0.0898,-0.073 0.1797,-0.0955 0.0955,-0.0279 0.15163,-0.0279 0.19093,0 0.28639,0.0674 0.10108,0.0618 0.14039,0.16845 0.0449,0.10671 0.0506,0.23588 0.006,0.12354 0.006,0.25271 v 1.62852 h 0.79742 v -1.6173 q 0,-0.13477 0.0168,-0.26393 0.0224,-0.13478 0.0786,-0.23588 0.0618,-0.10667 0.16285,-0.16845 0.1067,-0.0674 0.27517,-0.0674 0.16847,0 0.26393,0.0562 0.10108,0.0561 0.15163,0.15161 0.0505,0.0954 0.0618,0.22461 0.0112,0.12916 0.0112,0.27516 v 1.6454 h 0.79742 v -1.94301 q 0,-0.28077 -0.0786,-0.47732 -0.0786,-0.20216 -0.21901,-0.32571 -0.14039,-0.12355 -0.33694,-0.17971 -0.19654,-0.0562 -0.42678,-0.0562 -0.30325,0 -0.52787,0.14604 -0.21901,0.146 -0.34818,0.33693 -0.11792,-0.26954 -0.34816,-0.37626 -0.22463,-0.10671 -0.4998,-0.10671 -0.28639,0 -0.51102,0.12355 -0.21901,0.12355 -0.37625,0.34817 h -0.0112 v -0.39307 z"
         inkscape:connector-curvature="0" />
      <path
         id="path3789"
         style="font-style:normal;font-variant:normal;font-weight:bold;font-stretch:normal;font-size:16.90843773px;line-height:100%;font-family:'Helvetica Neue';-inkscape-font-specification:'Helvetica Neue Bold';font-variant-ligatures:normal;font-variant-caps:normal;font-variant-numeric:normal;font-feature-settings:normal;text-align:start;letter-spacing:-1.00130415px;writing-mode:lr-tb;text-anchor:start;fill:#3d3d3d;fill-opacity:1;fill-rule:nonzero;stroke:none;stroke-width:0.88435262;stroke-linecap:round;stroke-linejoin:round;stroke-miterlimit:4;stroke-dasharray:none;stroke-dashoffset:3.82677174;stroke-opacity:1;paint-order:fill markers stroke"
         d="m 166.03676,91.62254 h 0.79742 q 0.0224,-0.23587 0.15724,-0.33694 0.13477,-0.1011 0.37063,-0.1011 0.1067,0 0.19655,0.0169 0.0955,0.0113 0.16285,0.0561 0.073,0.0393 0.11231,0.11794 0.0449,0.073 0.0449,0.20216 0.006,0.12355 -0.073,0.19093 -0.0786,0.0618 -0.21339,0.0955 -0.13478,0.0337 -0.30886,0.0505 -0.17408,0.0169 -0.35378,0.0449 -0.17971,0.0282 -0.35941,0.0786 -0.17408,0.0449 -0.31447,0.14039 -0.13478,0.0955 -0.22463,0.25832 -0.0842,0.15726 -0.0842,0.40433 0,0.22464 0.073,0.38748 0.0786,0.16287 0.21339,0.26955 0.13478,0.10671 0.31448,0.15723 0.1797,0.0506 0.38748,0.0506 0.26955,0 0.52787,-0.0786 0.25832,-0.0786 0.44925,-0.27516 0.006,0.073 0.0168,0.146 0.0168,0.0674 0.0393,0.13478 h 0.80865 q -0.0562,-0.0898 -0.0786,-0.26955 -0.0224,-0.17971 -0.0224,-0.37626 v -1.51059 q 0,-0.26393 -0.11793,-0.42119 -0.11793,-0.16284 -0.30324,-0.25268 -0.18532,-0.0899 -0.40995,-0.11793 -0.22462,-0.0337 -0.44363,-0.0337 -0.24148,0 -0.48295,0.0505 -0.23586,0.0449 -0.42679,0.15723 -0.19093,0.11232 -0.31447,0.29765 -0.12355,0.18532 -0.14039,0.46609 z m 1.84193,0.58964 v 0.29762 q 0,0.0674 -0.0168,0.17971 -0.0112,0.11232 -0.073,0.22461 -0.0618,0.10671 -0.19093,0.18532 -0.12916,0.0786 -0.36502,0.0786 -0.0955,0 -0.18531,-0.0169 -0.0898,-0.0169 -0.15724,-0.0562 -0.0674,-0.0449 -0.10669,-0.11794 -0.0393,-0.073 -0.0393,-0.17968 0,-0.11232 0.0393,-0.18532 0.0393,-0.073 0.10108,-0.11793 0.0674,-0.0506 0.15162,-0.0786 0.0898,-0.0279 0.1797,-0.0449 0.0955,-0.0169 0.19093,-0.0279 0.0955,-0.0113 0.1797,-0.0282 0.0898,-0.0169 0.16285,-0.0393 0.0786,-0.0282 0.12916,-0.073 z"
         inkscape:connector-curvature="0" />
      <path
         id="path3791"
         style="font-style:normal;font-variant:normal;font-weight:bold;font-stretch:normal;font-size:16.90843773px;line-height:100%;font-family:'Helvetica Neue';-inkscape-font-specification:'Helvetica Neue Bold';font-variant-ligatures:normal;font-variant-caps:normal;font-variant-numeric:normal;font-feature-settings:normal;text-align:start;letter-spacing:-1.00130415px;writing-mode:lr-tb;text-anchor:start;fill:#3d3d3d;fill-opacity:1;fill-rule:nonzero;stroke:none;stroke-width:0.88435262;stroke-linecap:round;stroke-linejoin:round;stroke-miterlimit:4;stroke-dasharray:none;stroke-dashoffset:3.82677174;stroke-opacity:1;paint-order:fill markers stroke"
         d="m 170.31587,92.94783 q -0.18531,0 -0.30886,-0.0786 -0.12354,-0.0787 -0.20216,-0.20216 -0.073,-0.12355 -0.1067,-0.27516 -0.0281,-0.15726 -0.0281,-0.31449 0,-0.16287 0.0337,-0.30887 0.0393,-0.15162 0.11793,-0.26394 0.0842,-0.11793 0.20216,-0.18532 0.12355,-0.0674 0.29201,-0.0674 0.19655,0 0.32571,0.073 0.12916,0.073 0.20778,0.19655 0.0786,0.12355 0.11231,0.28642 0.0337,0.15723 0.0337,0.33694 0,0.15722 -0.0449,0.30322 -0.0393,0.14039 -0.12354,0.25271 -0.0842,0.11233 -0.2134,0.17971 -0.12915,0.0674 -0.29763,0.0674 z m 1.4376,0.49978 v -2.71795 h -0.75811 v 0.38746 h -0.0112 q -0.14601,-0.25268 -0.36502,-0.35939 -0.21339,-0.10671 -0.49979,-0.10671 -0.30325,0 -0.5391,0.11793 -0.23025,0.11794 -0.38748,0.3201 -0.15724,0.19655 -0.24148,0.46049 -0.0786,0.25832 -0.0786,0.5391 0,0.29761 0.0674,0.56716 0.073,0.26393 0.22463,0.4661 0.15162,0.19654 0.38748,0.31448 0.23585,0.11232 0.56156,0.11232 0.26394,0 0.49979,-0.10671 0.24148,-0.11229 0.37064,-0.34255 h 0.0112 v 0.38188 q 0.006,0.30887 -0.15162,0.51103 -0.15162,0.20216 -0.48856,0.20216 -0.21339,0 -0.37625,-0.0899 -0.16285,-0.0842 -0.21901,-0.30884 h -0.7918 q 0.0168,0.24707 0.13477,0.42116 0.12355,0.17971 0.30325,0.292 0.18532,0.11233 0.40432,0.16288 0.22463,0.0562 0.43802,0.0562 0.49979,0 0.79742,-0.13478 0.29763,-0.13477 0.45487,-0.33132 0.15724,-0.19094 0.20217,-0.41558 0.0505,-0.22462 0.0505,-0.39871 z"
         inkscape:connector-curvature="0" />
      <path
         id="path3793"
         style="font-style:normal;font-variant:normal;font-weight:bold;font-stretch:normal;font-size:16.90843773px;line-height:100%;font-family:'Helvetica Neue';-inkscape-font-specification:'Helvetica Neue Bold';font-variant-ligatures:normal;font-variant-caps:normal;font-variant-numeric:normal;font-feature-settings:normal;text-align:start;letter-spacing:-1.00130415px;writing-mode:lr-tb;text-anchor:start;fill:#3d3d3d;fill-opacity:1;fill-rule:nonzero;stroke:none;stroke-width:0.88435262;stroke-linecap:round;stroke-linejoin:round;stroke-miterlimit:4;stroke-dasharray:none;stroke-dashoffset:3.82677174;stroke-opacity:1;paint-order:fill markers stroke"
         d="m 174.01719,91.86964 h -1.29721 q 0.006,-0.0843 0.0337,-0.19094 0.0337,-0.10671 0.1067,-0.20216 0.0786,-0.0955 0.20216,-0.15726 0.12916,-0.0674 0.32009,-0.0674 0.29202,0 0.43241,0.15726 0.146,0.15723 0.20216,0.46049 z m -1.29721,0.50538 h 2.09463 q 0.0224,-0.33693 -0.0562,-0.64577 -0.0786,-0.30887 -0.25832,-0.55036 -0.17408,-0.24145 -0.44924,-0.38184 -0.27517,-0.14603 -0.6458,-0.14603 -0.33133,0 -0.60649,0.11793 -0.26955,0.11794 -0.4661,0.32572 -0.19655,0.20216 -0.30325,0.48293 -0.10669,0.28078 -0.10669,0.60649 0,0.33693 0.10108,0.61774 0.10669,0.28078 0.29763,0.48294 0.19093,0.20216 0.4661,0.31448 0.27516,0.10668 0.61772,0.10668 0.49417,0 0.84234,-0.22461 0.34817,-0.22465 0.51664,-0.74688 h -0.70196 q -0.0393,0.13478 -0.21339,0.25833 -0.17408,0.1179 -0.41556,0.1179 -0.33694,0 -0.51664,-0.17406 -0.1797,-0.1741 -0.19654,-0.56159 z"
         inkscape:connector-curvature="0" />
      <path
         id="path3795"
         style="font-style:normal;font-variant:normal;font-weight:bold;font-stretch:normal;font-size:16.90843773px;line-height:100%;font-family:'Helvetica Neue';-inkscape-font-specification:'Helvetica Neue Bold';font-variant-ligatures:normal;font-variant-caps:normal;font-variant-numeric:normal;font-feature-settings:normal;text-align:start;letter-spacing:-1.00130415px;writing-mode:lr-tb;text-anchor:start;fill:#3d3d3d;fill-opacity:1;fill-rule:nonzero;stroke:none;stroke-width:0.88435262;stroke-linecap:round;stroke-linejoin:round;stroke-miterlimit:4;stroke-dasharray:none;stroke-dashoffset:3.82677174;stroke-opacity:1;paint-order:fill markers stroke"
         d="m 152.24283,93.92997 v 4.00956 h 0.88165 v -4.00956 z"
         inkscape:connector-curvature="0" />
      <path
         id="path3797"
         style="font-style:normal;font-variant:normal;font-weight:bold;font-stretch:normal;font-size:16.90843773px;line-height:100%;font-family:'Helvetica Neue';-inkscape-font-specification:'Helvetica Neue Bold';font-variant-ligatures:normal;font-variant-caps:normal;font-variant-numeric:normal;font-feature-settings:normal;text-align:start;letter-spacing:-1.00130415px;writing-mode:lr-tb;text-anchor:start;fill:#3d3d3d;fill-opacity:1;fill-rule:nonzero;stroke:none;stroke-width:0.88435262;stroke-linecap:round;stroke-linejoin:round;stroke-miterlimit:4;stroke-dasharray:none;stroke-dashoffset:3.82677174;stroke-opacity:1;paint-order:fill markers stroke"
         d="m 153.48221,95.03626 v 2.90327 h 0.79742 v -1.52185 q 0,-0.44361 0.14601,-0.63455 0.14601,-0.19654 0.47172,-0.19654 0.28639,0 0.39871,0.17971 0.11231,0.17406 0.11231,0.53348 v 1.63975 h 0.79742 v -1.78578 q 0,-0.26955 -0.0505,-0.48855 -0.0449,-0.22461 -0.16285,-0.37626 -0.11793,-0.15723 -0.32571,-0.24145 -0.20217,-0.0899 -0.52226,-0.0899 -0.2527,0 -0.49417,0.11793 -0.24147,0.11232 -0.3931,0.36504 h -0.0168 v -0.40433 z"
         inkscape:connector-curvature="0" />
      <path
         id="path3799"
         style="font-style:normal;font-variant:normal;font-weight:bold;font-stretch:normal;font-size:16.90843773px;line-height:100%;font-family:'Helvetica Neue';-inkscape-font-specification:'Helvetica Neue Bold';font-variant-ligatures:normal;font-variant-caps:normal;font-variant-numeric:normal;font-feature-settings:normal;text-align:start;letter-spacing:-1.00130415px;writing-mode:lr-tb;text-anchor:start;fill:#3d3d3d;fill-opacity:1;fill-rule:nonzero;stroke:none;stroke-width:0.88435262;stroke-linecap:round;stroke-linejoin:round;stroke-miterlimit:4;stroke-dasharray:none;stroke-dashoffset:3.82677174;stroke-opacity:1;paint-order:fill markers stroke"
         d="m 156.70197,95.56975 v 2.36978 h 0.79742 v -2.36978 h 0.55033 v -0.53349 h -0.55033 v -0.1741 q 0,-0.17971 0.0674,-0.25271 0.073,-0.0786 0.23585,-0.0786 0.15163,0 0.29202,0.0169 v -0.59526 q -0.10108,-0.006 -0.20778,-0.0113 -0.1067,-0.0113 -0.2134,-0.0113 -0.48856,0 -0.73003,0.2471 -0.24147,0.24707 -0.24147,0.63455 v 0.22465 h -0.47733 v 0.53348 z"
         inkscape:connector-curvature="0" />
      <path
         id="path3801"
         style="font-style:normal;font-variant:normal;font-weight:bold;font-stretch:normal;font-size:16.90843773px;line-height:100%;font-family:'Helvetica Neue';-inkscape-font-specification:'Helvetica Neue Bold';font-variant-ligatures:normal;font-variant-caps:normal;font-variant-numeric:normal;font-feature-settings:normal;text-align:start;letter-spacing:-1.00130415px;writing-mode:lr-tb;text-anchor:start;fill:#3d3d3d;fill-opacity:1;fill-rule:nonzero;stroke:none;stroke-width:0.88435262;stroke-linecap:round;stroke-linejoin:round;stroke-miterlimit:4;stroke-dasharray:none;stroke-dashoffset:3.82677174;stroke-opacity:1;paint-order:fill markers stroke"
         d="m 158.77844,96.49068 q 0,-0.17406 0.0337,-0.34255 0.0337,-0.16845 0.11231,-0.29761 0.0842,-0.12916 0.21901,-0.20777 0.13478,-0.0843 0.33694,-0.0843 0.20217,0 0.33694,0.0843 0.14039,0.0786 0.21901,0.20777 0.0842,0.12916 0.11793,0.29761 0.0337,0.16849 0.0337,0.34255 0,0.1741 -0.0337,0.34259 -0.0337,0.16284 -0.11793,0.29761 -0.0786,0.12916 -0.21901,0.20777 -0.13477,0.0786 -0.33694,0.0786 -0.20216,0 -0.33694,-0.0786 -0.13477,-0.0786 -0.21901,-0.20777 -0.0786,-0.13477 -0.11231,-0.29761 -0.0337,-0.16849 -0.0337,-0.34259 z m -0.79743,0 q 0,0.3482 0.1067,0.62897 0.1067,0.28078 0.30325,0.48294 0.19654,0.19655 0.47171,0.30326 0.27517,0.10668 0.61772,0.10668 0.34256,0 0.61772,-0.10668 0.28078,-0.10671 0.47733,-0.30326 0.19655,-0.20216 0.30324,-0.48294 0.1067,-0.28077 0.1067,-0.62897 0,-0.34816 -0.1067,-0.62893 -0.10669,-0.28639 -0.30324,-0.48294 -0.19655,-0.20216 -0.47733,-0.30887 -0.27516,-0.11232 -0.61772,-0.11232 -0.34255,0 -0.61772,0.11232 -0.27517,0.10671 -0.47171,0.30887 -0.19655,0.19655 -0.30325,0.48294 -0.1067,0.28077 -0.1067,0.62893 z"
         inkscape:connector-curvature="0" />
      <path
         id="path3803"
         style="font-style:normal;font-variant:normal;font-weight:bold;font-stretch:normal;font-size:16.90843773px;line-height:100%;font-family:'Helvetica Neue';-inkscape-font-specification:'Helvetica Neue Bold';font-variant-ligatures:normal;font-variant-caps:normal;font-variant-numeric:normal;font-feature-settings:normal;text-align:start;letter-spacing:-1.00130415px;writing-mode:lr-tb;text-anchor:start;fill:#3d3d3d;fill-opacity:1;fill-rule:nonzero;stroke:none;stroke-width:0.88435262;stroke-linecap:round;stroke-linejoin:round;stroke-miterlimit:4;stroke-dasharray:none;stroke-dashoffset:3.82677174;stroke-opacity:1;paint-order:fill markers stroke"
         d="m 161.21524,95.03626 v 2.90327 h 0.79743 V 96.6311 q 0,-0.19654 0.0393,-0.36503 0.0393,-0.16845 0.12915,-0.292 0.0955,-0.12916 0.2471,-0.20216 0.15162,-0.073 0.37063,-0.073 0.073,0 0.15162,0.0113 0.0786,0.006 0.13477,0.0169 v -0.74126 q -0.0955,-0.0282 -0.17408,-0.0282 -0.15162,0 -0.29201,0.0449 -0.1404,0.0449 -0.26394,0.12917 -0.12354,0.0786 -0.21901,0.19655 -0.0955,0.11232 -0.15162,0.24709 h -0.0112 v -0.5391 z"
         inkscape:connector-curvature="0" />
      <path
         id="path3805"
         style="font-style:normal;font-variant:normal;font-weight:bold;font-stretch:normal;font-size:16.90843773px;line-height:100%;font-family:'Helvetica Neue';-inkscape-font-specification:'Helvetica Neue Bold';font-variant-ligatures:normal;font-variant-caps:normal;font-variant-numeric:normal;font-feature-settings:normal;text-align:start;letter-spacing:-1.00130415px;writing-mode:lr-tb;text-anchor:start;fill:#3d3d3d;fill-opacity:1;fill-rule:nonzero;stroke:none;stroke-width:0.88435262;stroke-linecap:round;stroke-linejoin:round;stroke-miterlimit:4;stroke-dasharray:none;stroke-dashoffset:3.82677174;stroke-opacity:1;paint-order:fill markers stroke"
         d="m 163.26354,95.03626 v 2.90327 h 0.79742 v -1.68468 q 0,-0.21339 0.0618,-0.34255 0.0618,-0.13478 0.14601,-0.20217 0.0899,-0.073 0.1797,-0.0955 0.0955,-0.0279 0.15163,-0.0279 0.19092,0 0.28639,0.0674 0.10108,0.0618 0.14039,0.16845 0.0449,0.10671 0.0505,0.23587 0.006,0.12355 0.006,0.25271 v 1.62852 h 0.79742 v -1.61729 q 0,-0.13478 0.0168,-0.26394 0.0224,-0.13477 0.0786,-0.23587 0.0618,-0.10668 0.16286,-0.16845 0.1067,-0.0674 0.27517,-0.0674 0.16846,0 0.26393,0.0562 0.10108,0.0562 0.15162,0.15162 0.0505,0.0954 0.0618,0.22461 0.0112,0.12916 0.0112,0.27516 v 1.64539 h 0.79742 v -1.943 q 0,-0.28078 -0.0786,-0.47733 -0.0786,-0.20216 -0.219,-0.32571 -0.1404,-0.12355 -0.33694,-0.17971 -0.19655,-0.0562 -0.42679,-0.0562 -0.30325,0 -0.52787,0.14603 -0.21901,0.14601 -0.34817,0.33694 -0.11793,-0.26955 -0.34817,-0.37626 -0.22463,-0.10671 -0.49979,-0.10671 -0.2864,0 -0.51103,0.12355 -0.21901,0.12355 -0.37625,0.34816 h -0.0112 v -0.39306 z"
         inkscape:connector-curvature="0" />
      <path
         id="path3807"
         style="font-style:normal;font-variant:normal;font-weight:bold;font-stretch:normal;font-size:16.90843773px;line-height:100%;font-family:'Helvetica Neue';-inkscape-font-specification:'Helvetica Neue Bold';font-variant-ligatures:normal;font-variant-caps:normal;font-variant-numeric:normal;font-feature-settings:normal;text-align:start;letter-spacing:-1.00130415px;writing-mode:lr-tb;text-anchor:start;fill:#3d3d3d;fill-opacity:1;fill-rule:nonzero;stroke:none;stroke-width:0.88435262;stroke-linecap:round;stroke-linejoin:round;stroke-miterlimit:4;stroke-dasharray:none;stroke-dashoffset:3.82677174;stroke-opacity:1;paint-order:fill markers stroke"
         d="m 167.964,95.92913 h 0.79743 q 0.0224,-0.23587 0.15724,-0.33693 0.13477,-0.1011 0.37063,-0.1011 0.10669,0 0.19654,0.0169 0.0955,0.0113 0.16286,0.0561 0.073,0.0393 0.11231,0.11793 0.0449,0.073 0.0449,0.20217 0.006,0.12354 -0.073,0.19093 -0.0786,0.0618 -0.21339,0.0955 -0.13478,0.0337 -0.30886,0.0505 -0.17409,0.0169 -0.35379,0.0449 -0.1797,0.0279 -0.3594,0.0786 -0.17408,0.0449 -0.31447,0.14039 -0.13478,0.0955 -0.22463,0.25832 -0.0842,0.15726 -0.0842,0.40432 0,0.22465 0.073,0.38749 0.0786,0.16287 0.21339,0.26955 0.13478,0.10671 0.31448,0.15726 0.1797,0.0505 0.38748,0.0505 0.26955,0 0.52787,-0.0786 0.25832,-0.0786 0.44925,-0.27516 0.006,0.073 0.0168,0.146 0.0168,0.0674 0.0393,0.13477 h 0.80865 q -0.0562,-0.0898 -0.0786,-0.26955 -0.0225,-0.17971 -0.0225,-0.37626 v -1.51058 q 0,-0.26394 -0.11793,-0.42119 -0.11793,-0.16284 -0.30324,-0.25268 -0.18532,-0.0899 -0.40994,-0.11794 -0.22463,-0.0337 -0.44364,-0.0337 -0.24147,0 -0.48294,0.0505 -0.23586,0.0449 -0.4268,0.15723 -0.19093,0.11232 -0.31447,0.29764 -0.12354,0.18533 -0.14039,0.4661 z m 1.84194,0.58965 v 0.29761 q 0,0.0674 -0.0168,0.17972 -0.0112,0.11232 -0.073,0.22461 -0.0618,0.10671 -0.19093,0.18532 -0.12916,0.0786 -0.36501,0.0786 -0.0955,0 -0.18532,-0.0169 -0.0899,-0.0169 -0.15724,-0.0562 -0.0674,-0.0449 -0.1067,-0.11793 -0.0393,-0.073 -0.0393,-0.17968 0,-0.11232 0.0393,-0.18532 0.0393,-0.073 0.10109,-0.11794 0.0674,-0.0506 0.15162,-0.0786 0.0899,-0.0279 0.1797,-0.0449 0.0955,-0.0169 0.19093,-0.0282 0.0955,-0.0113 0.1797,-0.0279 0.0899,-0.0169 0.16285,-0.0393 0.0786,-0.0279 0.12917,-0.073 z"
         inkscape:connector-curvature="0" />
      <path
         id="path3809"
         style="font-style:normal;font-variant:normal;font-weight:bold;font-stretch:normal;font-size:16.90843773px;line-height:100%;font-family:'Helvetica Neue';-inkscape-font-specification:'Helvetica Neue Bold';font-variant-ligatures:normal;font-variant-caps:normal;font-variant-numeric:normal;font-feature-settings:normal;text-align:start;letter-spacing:-1.00130415px;writing-mode:lr-tb;text-anchor:start;fill:#3d3d3d;fill-opacity:1;fill-rule:nonzero;stroke:none;stroke-width:0.88435262;stroke-linecap:round;stroke-linejoin:round;stroke-miterlimit:4;stroke-dasharray:none;stroke-dashoffset:3.82677174;stroke-opacity:1;paint-order:fill markers stroke"
         d="m 171.90057,95.03626 v -0.87045 h -0.79742 v 0.87045 h -0.48295 v 0.53349 h 0.48295 v 1.71274 q 0,0.21904 0.073,0.35381 0.073,0.13478 0.19654,0.20778 0.12917,0.073 0.29202,0.0954 0.16847,0.0282 0.35378,0.0282 0.11793,0 0.24148,-0.006 0.12354,-0.006 0.22462,-0.0226 v -0.61771 q -0.0562,0.0113 -0.11792,0.0169 -0.0618,0.006 -0.12917,0.006 -0.20216,0 -0.26955,-0.0674 -0.0674,-0.0674 -0.0674,-0.26955 v -1.43758 h 0.58402 v -0.53349 z"
         inkscape:connector-curvature="0" />
      <path
         id="path3811"
         style="font-style:normal;font-variant:normal;font-weight:bold;font-stretch:normal;font-size:16.90843773px;line-height:100%;font-family:'Helvetica Neue';-inkscape-font-specification:'Helvetica Neue Bold';font-variant-ligatures:normal;font-variant-caps:normal;font-variant-numeric:normal;font-feature-settings:normal;text-align:start;letter-spacing:-1.00130415px;writing-mode:lr-tb;text-anchor:start;fill:#3d3d3d;fill-opacity:1;fill-rule:nonzero;stroke:none;stroke-width:0.88435262;stroke-linecap:round;stroke-linejoin:round;stroke-miterlimit:4;stroke-dasharray:none;stroke-dashoffset:3.82677174;stroke-opacity:1;paint-order:fill markers stroke"
         d="m 173.48314,94.587 v -0.65703 h -0.79742 V 94.587 Z m -0.79742,0.44926 v 2.90327 h 0.79742 v -2.90327 z"
         inkscape:connector-curvature="0" />
      <path
         id="path3813"
         style="font-style:normal;font-variant:normal;font-weight:bold;font-stretch:normal;font-size:16.90843773px;line-height:100%;font-family:'Helvetica Neue';-inkscape-font-specification:'Helvetica Neue Bold';font-variant-ligatures:normal;font-variant-caps:normal;font-variant-numeric:normal;font-feature-settings:normal;text-align:start;letter-spacing:-1.00130415px;writing-mode:lr-tb;text-anchor:start;fill:#3d3d3d;fill-opacity:1;fill-rule:nonzero;stroke:none;stroke-width:0.88435262;stroke-linecap:round;stroke-linejoin:round;stroke-miterlimit:4;stroke-dasharray:none;stroke-dashoffset:3.82677174;stroke-opacity:1;paint-order:fill markers stroke"
         d="m 175.75519,96.0583 h 0.78057 q -0.0168,-0.28078 -0.13477,-0.48294 -0.11793,-0.20777 -0.30886,-0.34255 -0.18532,-0.14042 -0.42679,-0.20781 -0.23586,-0.0674 -0.49418,-0.0674 -0.35378,0 -0.62895,0.11793 -0.27517,0.11794 -0.4661,0.33132 -0.19093,0.20778 -0.29201,0.49981 -0.0955,0.28639 -0.0955,0.62333 0,0.32571 0.1067,0.60087 0.1067,0.26955 0.29763,0.4661 0.19093,0.19655 0.46048,0.30887 0.27517,0.10668 0.60088,0.10668 0.57841,0 0.94904,-0.30323 0.37063,-0.30326 0.44925,-0.88168 h -0.76934 q -0.0393,0.26958 -0.19655,0.43242 -0.15162,0.15723 -0.43802,0.15723 -0.18532,0 -0.31448,-0.0842 -0.12916,-0.0842 -0.20778,-0.21339 -0.073,-0.13477 -0.10669,-0.29764 -0.0337,-0.16284 -0.0337,-0.32007 0,-0.16287 0.0337,-0.32571 0.0337,-0.16848 0.11231,-0.30326 0.0842,-0.14038 0.21339,-0.22461 0.12917,-0.0899 0.32009,-0.0899 0.51103,0 0.58965,0.49981 z"
         inkscape:connector-curvature="0" />
      <path
         id="path3815"
         style="font-style:normal;font-variant:normal;font-weight:bold;font-stretch:normal;font-size:16.90843773px;line-height:100%;font-family:'Helvetica Neue';-inkscape-font-specification:'Helvetica Neue Bold';font-variant-ligatures:normal;font-variant-caps:normal;font-variant-numeric:normal;font-feature-settings:normal;text-align:start;letter-spacing:-1.00130415px;writing-mode:lr-tb;text-anchor:start;fill:#3d3d3d;fill-opacity:1;fill-rule:nonzero;stroke:none;stroke-width:0.88435262;stroke-linecap:round;stroke-linejoin:round;stroke-miterlimit:4;stroke-dasharray:none;stroke-dashoffset:3.82677174;stroke-opacity:1;paint-order:fill markers stroke"
         d="m 177.28826,96.99611 h -0.75811 q 0.0112,0.292 0.12915,0.48854 0.12355,0.19094 0.30887,0.30888 0.19093,0.11793 0.4324,0.16848 0.24147,0.0505 0.49418,0.0505 0.24708,0 0.48294,-0.0505 0.24147,-0.0449 0.42679,-0.16287 0.18531,-0.11794 0.29763,-0.30887 0.11793,-0.19655 0.11793,-0.48294 0,-0.20216 -0.0786,-0.33694 -0.0786,-0.14038 -0.20778,-0.23022 -0.12916,-0.0955 -0.29763,-0.15165 -0.16285,-0.0561 -0.33694,-0.0954 -0.16847,-0.0393 -0.33132,-0.073 -0.16286,-0.0337 -0.29201,-0.073 -0.12355,-0.0449 -0.20217,-0.11232 -0.0786,-0.0674 -0.0786,-0.1741 0,-0.0898 0.0449,-0.14039 0.0449,-0.0562 0.1067,-0.0842 0.0674,-0.0279 0.146,-0.0337 0.0786,-0.0113 0.14601,-0.0113 0.21339,0 0.37063,0.0843 0.15724,0.0786 0.17409,0.30884 h 0.75811 q -0.0224,-0.26955 -0.14039,-0.44362 -0.11232,-0.17971 -0.2864,-0.28642 -0.17409,-0.10668 -0.39871,-0.15161 -0.21901,-0.0449 -0.45487,-0.0449 -0.23586,0 -0.46048,0.0449 -0.22463,0.0393 -0.40433,0.146 -0.1797,0.1011 -0.29201,0.28077 -0.1067,0.17971 -0.1067,0.46049 0,0.19093 0.0786,0.32571 0.0786,0.12916 0.20778,0.21903 0.12916,0.0842 0.29201,0.14039 0.16847,0.0505 0.34256,0.0898 0.42678,0.0898 0.66264,0.17971 0.24147,0.0898 0.24147,0.26955 0,0.10668 -0.0505,0.17968 -0.0505,0.0674 -0.12917,0.11232 -0.073,0.0393 -0.16846,0.0618 -0.0899,0.0169 -0.17409,0.0169 -0.11793,0 -0.23024,-0.0279 -0.1067,-0.0282 -0.19093,-0.0842 -0.0842,-0.0618 -0.14039,-0.15165 -0.0505,-0.0954 -0.0505,-0.22461 z"
         inkscape:connector-curvature="0" />
      <path
         id="path3817"
         style="font-style:normal;font-variant:normal;font-weight:bold;font-stretch:normal;font-size:16.90843773px;line-height:100%;font-family:'Helvetica Neue';-inkscape-font-specification:'Helvetica Neue Bold';font-variant-ligatures:normal;font-variant-caps:normal;font-variant-numeric:normal;font-feature-settings:normal;text-align:start;letter-spacing:-1.00130415px;writing-mode:lr-tb;text-anchor:start;fill:#3d3d3d;fill-opacity:1;fill-rule:nonzero;stroke:none;stroke-width:0.88435262;stroke-linecap:round;stroke-linejoin:round;stroke-miterlimit:4;stroke-dasharray:none;stroke-dashoffset:3.82677174;stroke-opacity:1;paint-order:fill markers stroke"
         d="m 152.24283,98.23663 v 4.00956 h 0.88165 v -4.00956 z"
         inkscape:connector-curvature="0" />
      <path
         id="path3819"
         style="font-style:normal;font-variant:normal;font-weight:bold;font-stretch:normal;font-size:16.90843773px;line-height:100%;font-family:'Helvetica Neue';-inkscape-font-specification:'Helvetica Neue Bold';font-variant-ligatures:normal;font-variant-caps:normal;font-variant-numeric:normal;font-feature-settings:normal;text-align:start;letter-spacing:-1.00130415px;writing-mode:lr-tb;text-anchor:start;fill:#3d3d3d;fill-opacity:1;fill-rule:nonzero;stroke:none;stroke-width:0.88435262;stroke-linecap:round;stroke-linejoin:round;stroke-miterlimit:4;stroke-dasharray:none;stroke-dashoffset:3.82677174;stroke-opacity:1;paint-order:fill markers stroke"
         d="m 153.48221,99.34293 v 2.90326 h 0.79742 v -1.52184 q 0,-0.44361 0.14601,-0.63455 0.14601,-0.19655 0.47172,-0.19655 0.28639,0 0.39871,0.17971 0.11231,0.17407 0.11231,0.53349 v 1.63974 h 0.79742 v -1.78578 q 0,-0.26954 -0.0505,-0.48854 -0.0449,-0.22462 -0.16285,-0.37626 -0.11793,-0.15723 -0.32571,-0.24146 -0.20217,-0.0899 -0.52226,-0.0899 -0.2527,0 -0.49417,0.11794 -0.24147,0.11232 -0.3931,0.36503 h -0.0168 V 99.3429 Z"
         inkscape:connector-curvature="0" />
      <path
         id="path3821"
         style="font-style:normal;font-variant:normal;font-weight:bold;font-stretch:normal;font-size:16.90843773px;line-height:100%;font-family:'Helvetica Neue';-inkscape-font-specification:'Helvetica Neue Bold';font-variant-ligatures:normal;font-variant-caps:normal;font-variant-numeric:normal;font-feature-settings:normal;text-align:start;letter-spacing:-1.00130415px;writing-mode:lr-tb;text-anchor:start;fill:#3d3d3d;fill-opacity:1;fill-rule:nonzero;stroke:none;stroke-width:0.88435262;stroke-linecap:round;stroke-linejoin:round;stroke-miterlimit:4;stroke-dasharray:none;stroke-dashoffset:3.82677174;stroke-opacity:1;paint-order:fill markers stroke"
         d="m 158.54489,100.78613 q 0,0.17971 -0.0337,0.34816 -0.0337,0.16848 -0.11231,0.30326 -0.0786,0.12916 -0.2134,0.20777 -0.12915,0.0786 -0.3257,0.0786 -0.18532,0 -0.32009,-0.0786 -0.12916,-0.0842 -0.21901,-0.21339 -0.0842,-0.13477 -0.12355,-0.30326 -0.0393,-0.16845 -0.0393,-0.33693 0,-0.17968 0.0337,-0.34255 0.0393,-0.16845 0.11793,-0.29761 0.0842,-0.12917 0.21901,-0.20778 0.13477,-0.0787 0.33132,-0.0787 0.19655,0 0.3257,0.0787 0.12917,0.0786 0.20778,0.20778 0.0842,0.12354 0.11793,0.292 0.0337,0.16287 0.0337,0.34255 z m 0.0112,1.08945 v 0.37061 h 0.75811 v -4.00956 h -0.79742 v 1.46007 h -0.0112 q -0.13478,-0.21338 -0.37063,-0.32009 -0.23025,-0.11233 -0.48857,-0.11233 -0.32009,0 -0.56156,0.12916 -0.24147,0.12355 -0.40433,0.33133 -0.15724,0.20777 -0.24147,0.48297 -0.0786,0.26955 -0.0786,0.56155 0,0.30326 0.0786,0.58403 0.0842,0.28078 0.24147,0.49978 0.16286,0.21338 0.40995,0.34254 0.24708,0.12355 0.57279,0.12355 0.2864,0 0.51103,-0.10106 0.23024,-0.10671 0.37063,-0.34255 z"
         inkscape:connector-curvature="0" />
      <path
         id="path3823"
         style="font-style:normal;font-variant:normal;font-weight:bold;font-stretch:normal;font-size:16.90843773px;line-height:100%;font-family:'Helvetica Neue';-inkscape-font-specification:'Helvetica Neue Bold';font-variant-ligatures:normal;font-variant-caps:normal;font-variant-numeric:normal;font-feature-settings:normal;text-align:start;letter-spacing:-1.00130415px;writing-mode:lr-tb;text-anchor:start;fill:#3d3d3d;fill-opacity:1;fill-rule:nonzero;stroke:none;stroke-width:0.88435262;stroke-linecap:round;stroke-linejoin:round;stroke-miterlimit:4;stroke-dasharray:none;stroke-dashoffset:3.82677174;stroke-opacity:1;paint-order:fill markers stroke"
         d="m 161.58257,100.4829 h -1.29721 q 0.006,-0.0843 0.0337,-0.19094 0.0337,-0.10671 0.1067,-0.20216 0.0786,-0.0955 0.20216,-0.15726 0.12916,-0.0674 0.32009,-0.0674 0.29202,0 0.43241,0.15726 0.14601,0.15723 0.20216,0.46049 z m -1.29721,0.50539 h 2.09463 q 0.0224,-0.33694 -0.0562,-0.64578 -0.0786,-0.30887 -0.25831,-0.55036 -0.17409,-0.24145 -0.44926,-0.38183 -0.27516,-0.14604 -0.64579,-0.14604 -0.33133,0 -0.60649,0.11794 -0.26956,0.11793 -0.4661,0.32571 -0.19655,0.20216 -0.30325,0.48294 -0.10669,0.2808 -0.10669,0.60648 0,0.33694 0.10108,0.61775 0.1067,0.28077 0.29763,0.48293 0.19093,0.20216 0.46609,0.31449 0.27517,0.10667 0.61773,0.10667 0.49417,0 0.84234,-0.22461 0.34817,-0.22461 0.51664,-0.74687 h -0.70195 q -0.0393,0.13477 -0.2134,0.25832 -0.17408,0.1179 -0.41556,0.1179 -0.33693,0 -0.51663,-0.17406 -0.1797,-0.1741 -0.19655,-0.56158 z"
         inkscape:connector-curvature="0" />
      <path
         id="path3825"
         style="font-style:normal;font-variant:normal;font-weight:bold;font-stretch:normal;font-size:16.90843773px;line-height:100%;font-family:'Helvetica Neue';-inkscape-font-specification:'Helvetica Neue Bold';font-variant-ligatures:normal;font-variant-caps:normal;font-variant-numeric:normal;font-feature-settings:normal;text-align:start;letter-spacing:-1.00130415px;writing-mode:lr-tb;text-anchor:start;fill:#3d3d3d;fill-opacity:1;fill-rule:nonzero;stroke:none;stroke-width:0.88435262;stroke-linecap:round;stroke-linejoin:round;stroke-miterlimit:4;stroke-dasharray:none;stroke-dashoffset:3.82677174;stroke-opacity:1;paint-order:fill markers stroke"
         d="m 163.26165,100.71874 -1.04451,1.52745 h 0.89288 l 0.60649,-0.91535 0.60649,0.91535 h 0.90973 l -1.07258,-1.54429 0.95466,-1.35897 h -0.88166 l -0.50541,0.7581 -0.51102,-0.7581 h -0.90973 z"
         inkscape:connector-curvature="0" />
      <path
         inkscape:connector-curvature="0"
         d="m 166.03676,91.62254 h 0.79742 q 0.0224,-0.23587 0.15724,-0.33694 0.13477,-0.1011 0.37063,-0.1011 0.1067,0 0.19655,0.0169 0.0955,0.0113 0.16285,0.0561 0.073,0.0393 0.11231,0.11794 0.0449,0.073 0.0449,0.20216 0.006,0.12355 -0.073,0.19093 -0.0786,0.0618 -0.21339,0.0955 -0.13478,0.0337 -0.30886,0.0505 -0.17408,0.0169 -0.35378,0.0449 -0.17971,0.0282 -0.35941,0.0786 -0.17408,0.0449 -0.31447,0.14039 -0.13478,0.0955 -0.22463,0.25832 -0.0842,0.15726 -0.0842,0.40433 0,0.22464 0.073,0.38748 0.0786,0.16287 0.21339,0.26955 0.13478,0.10671 0.31448,0.15723 0.1797,0.0506 0.38748,0.0506 0.26955,0 0.52787,-0.0786 0.25832,-0.0786 0.44925,-0.27516 0.006,0.073 0.0168,0.146 0.0168,0.0674 0.0393,0.13478 h 0.80865 q -0.0562,-0.0898 -0.0786,-0.26955 -0.0224,-0.17971 -0.0224,-0.37626 v -1.51059 q 0,-0.26393 -0.11793,-0.42119 -0.11793,-0.16284 -0.30324,-0.25268 -0.18532,-0.0899 -0.40995,-0.11793 -0.22462,-0.0337 -0.44363,-0.0337 -0.24148,0 -0.48295,0.0505 -0.23586,0.0449 -0.42679,0.15723 -0.19093,0.11232 -0.31447,0.29765 -0.12355,0.18532 -0.14039,0.46609 z m 1.84193,0.58964 v 0.29762 q 0,0.0674 -0.0168,0.17971 -0.0112,0.11232 -0.073,0.22461 -0.0618,0.10671 -0.19093,0.18532 -0.12916,0.0786 -0.36502,0.0786 -0.0955,0 -0.18531,-0.0169 -0.0898,-0.0169 -0.15724,-0.0562 -0.0674,-0.0449 -0.10669,-0.11794 -0.0393,-0.073 -0.0393,-0.17968 0,-0.11232 0.0393,-0.18532 0.0393,-0.073 0.10108,-0.11793 0.0674,-0.0506 0.15162,-0.0786 0.0898,-0.0279 0.1797,-0.0449 0.0955,-0.0169 0.19093,-0.0279 0.0955,-0.0113 0.1797,-0.0282 0.0898,-0.0169 0.16285,-0.0393 0.0786,-0.0282 0.12916,-0.073 z"
         style="font-style:normal;font-variant:normal;font-weight:bold;font-stretch:normal;font-size:16.90843773px;line-height:100%;font-family:'Helvetica Neue';-inkscape-font-specification:'Helvetica Neue Bold';font-variant-ligatures:normal;font-variant-caps:normal;font-variant-numeric:normal;font-feature-settings:normal;text-align:start;letter-spacing:-1.00130415px;writing-mode:lr-tb;text-anchor:start;fill:#3d3d3d;fill-opacity:1;fill-rule:nonzero;stroke:none;stroke-width:0.88435262;stroke-linecap:round;stroke-linejoin:round;stroke-miterlimit:4;stroke-dasharray:none;stroke-dashoffset:3.82677174;stroke-opacity:1;paint-order:fill markers stroke"
         id="path3839" />
      <path
         inkscape:connector-curvature="0"
         d="m 170.31587,92.94783 q -0.18531,0 -0.30886,-0.0786 -0.12354,-0.0787 -0.20216,-0.20216 -0.073,-0.12355 -0.1067,-0.27516 -0.0281,-0.15726 -0.0281,-0.31449 0,-0.16287 0.0337,-0.30887 0.0393,-0.15162 0.11793,-0.26394 0.0842,-0.11793 0.20216,-0.18532 0.12355,-0.0674 0.29201,-0.0674 0.19655,0 0.32571,0.073 0.12916,0.073 0.20778,0.19655 0.0786,0.12355 0.11231,0.28642 0.0337,0.15723 0.0337,0.33694 0,0.15722 -0.0449,0.30322 -0.0393,0.14039 -0.12354,0.25271 -0.0842,0.11233 -0.2134,0.17971 -0.12915,0.0674 -0.29763,0.0674 z m 1.4376,0.49978 v -2.71795 h -0.75811 v 0.38746 h -0.0112 q -0.14601,-0.25268 -0.36502,-0.35939 -0.21339,-0.10671 -0.49979,-0.10671 -0.30325,0 -0.5391,0.11793 -0.23025,0.11794 -0.38748,0.3201 -0.15724,0.19655 -0.24148,0.46049 -0.0786,0.25832 -0.0786,0.5391 0,0.29761 0.0674,0.56716 0.073,0.26393 0.22463,0.4661 0.15162,0.19654 0.38748,0.31448 0.23585,0.11232 0.56156,0.11232 0.26394,0 0.49979,-0.10671 0.24148,-0.11229 0.37064,-0.34255 h 0.0112 v 0.38188 q 0.006,0.30887 -0.15162,0.51103 -0.15162,0.20216 -0.48856,0.20216 -0.21339,0 -0.37625,-0.0899 -0.16285,-0.0842 -0.21901,-0.30884 h -0.7918 q 0.0168,0.24707 0.13477,0.42116 0.12355,0.17971 0.30325,0.292 0.18532,0.11233 0.40432,0.16288 0.22463,0.0562 0.43802,0.0562 0.49979,0 0.79742,-0.13478 0.29763,-0.13477 0.45487,-0.33132 0.15724,-0.19094 0.20217,-0.41558 0.0505,-0.22462 0.0505,-0.39871 z"
         style="font-style:normal;font-variant:normal;font-weight:bold;font-stretch:normal;font-size:16.90843773px;line-height:100%;font-family:'Helvetica Neue';-inkscape-font-specification:'Helvetica Neue Bold';font-variant-ligatures:normal;font-variant-caps:normal;font-variant-numeric:normal;font-feature-settings:normal;text-align:start;letter-spacing:-1.00130415px;writing-mode:lr-tb;text-anchor:start;fill:#3d3d3d;fill-opacity:1;fill-rule:nonzero;stroke:none;stroke-width:0.88435262;stroke-linecap:round;stroke-linejoin:round;stroke-miterlimit:4;stroke-dasharray:none;stroke-dashoffset:3.82677174;stroke-opacity:1;paint-order:fill markers stroke"
         id="path3841" />
    </g>
  </g>
</svg>
