<?xml version="1.0" encoding="UTF-8" standalone="no"?>
<!-- Created with Inkscape (http://www.inkscape.org/) -->

<svg
   xmlns:dc="http://purl.org/dc/elements/1.1/"
   xmlns:cc="http://creativecommons.org/ns#"
   xmlns:rdf="http://www.w3.org/1999/02/22-rdf-syntax-ns#"
   xmlns:svg="http://www.w3.org/2000/svg"
   xmlns="http://www.w3.org/2000/svg"
   xmlns:sodipodi="http://sodipodi.sourceforge.net/DTD/sodipodi-0.dtd"
   xmlns:inkscape="http://www.inkscape.org/namespaces/inkscape"
   width="31.16637mm"
   height="40.098087mm"
   viewBox="0 0 31.16637 40.098087"
   version="1.1"
   id="svg4189"
   inkscape:version="0.92.4 (unknown)"
   sodipodi:docname="Biii_icon_website.svg"
   inkscape:export-filename="/users/biocomp/delestro/Desktop/NEUBIAS/Biii logo/Biii2019logo/Biii_icon.png"
   inkscape:export-xdpi="1199.6489"
   inkscape:export-ydpi="1199.6489">
  <defs
     id="defs4183" />
  <sodipodi:namedview
     id="base"
     pagecolor="#ffffff"
     bordercolor="#666666"
     borderopacity="1.0"
     inkscape:pageopacity="0.0"
     inkscape:pageshadow="2"
     inkscape:zoom="2.296875"
     inkscape:cx="41.425836"
     inkscape:cy="96.120084"
     inkscape:document-units="mm"
     inkscape:current-layer="layer1"
     showgrid="false"
     fit-margin-top="1"
     fit-margin-left="1"
     fit-margin-right="1"
     fit-margin-bottom="1"
     inkscape:window-width="958"
     inkscape:window-height="1027"
     inkscape:window-x="0"
     inkscape:window-y="24"
     inkscape:window-maximized="0" />
  <metadata
     id="metadata4186">
    <rdf:RDF>
      <cc:Work
         rdf:about="">
        <dc:format>image/svg+xml</dc:format>
        <dc:type
           rdf:resource="http://purl.org/dc/dcmitype/StillImage" />
        <dc:title></dc:title>
      </cc:Work>
    </rdf:RDF>
  </metadata>
  <g
     inkscape:label="Layer 1"
     inkscape:groupmode="layer"
     id="layer1"
     transform="translate(-75.234323,-114.22735)">
    <g
       transform="translate(-1.4897003,87.905695)"
       id="g4073">
      <path
         inkscape:connector-curvature="0"
         style="fill:#1e1e1e;fill-opacity:1;stroke-width:0.0604129"
         d="m 96.870024,27.321681 c -0.407625,0 -0.821401,0.08287 -1.219051,0.253185 -1.590588,0.681374 -2.329922,2.530034 -1.648477,4.120687 0.276511,0.645474 0.744885,1.150803 1.310514,1.477938 l -0.790649,1.976165 h 0.975652 l 0.656289,-1.639713 c 0.635147,0.153436 1.322964,0.111086 1.968353,-0.165359 1.590647,-0.681439 2.330445,-2.530034 1.648998,-4.120687 -0.511075,-1.193022 -1.678773,-1.907103 -2.901629,-1.902216 z m -9.765817,0.182429 c -0.29665,0 -0.59788,0.06059 -0.887284,0.184449 -1.157612,0.495882 -1.695844,1.841168 -1.199923,2.998812 0.434827,1.014958 1.522425,1.553841 2.564181,1.336881 l 1.448488,3.380675 c 0.06014,-0.23794 0.171745,-0.464608 0.371557,-0.629967 h 0.0013 c 0.0837,-0.06887 0.176103,-0.122424 0.271813,-0.16536 L 88.413955,31.667146 C 89.2897,31.062654 89.650291,29.903511 89.215458,28.888488 88.84351,28.02032 87.993911,27.500527 87.103956,27.50411 Z m 9.770984,0.723462 c 0.869758,-0.0065 1.699954,0.504613 2.063438,1.352909 0.484649,1.131322 -0.04124,2.446377 -1.172538,2.931052 -1.131348,0.484676 -2.446436,-0.0417 -2.931085,-1.17302 -0.484656,-1.131322 0.04176,-2.445921 1.173053,-2.930596 0.282837,-0.121185 0.577206,-0.179237 0.867132,-0.180345 z m -9.766333,0.182951 c 0.536838,0 1.049458,0.311172 1.273826,0.83507 0.299165,0.698248 -0.02574,1.509472 -0.72399,1.808656 -0.698255,0.299119 -1.509511,-0.02476 -1.808676,-0.723462 -0.299164,-0.698314 0.02521,-1.509994 0.723476,-1.809178 0.174558,-0.0748 0.356421,-0.110369 0.535364,-0.111086 z m -6.263696,5.773757 c -0.407625,0 -0.821401,0.0834 -1.219051,0.253772 -1.590595,0.681373 -2.329915,2.529512 -1.648477,4.120165 0.681439,1.590653 2.529513,2.330404 4.120159,1.648965 v 0 c 0.645448,-0.27651 1.150842,-0.745353 1.477951,-1.311015 l 0.765845,0.306416 c 0.05023,-0.26576 0.18308,-0.51647 0.403071,-0.698639 l 0.09664,-0.08014 -0.929138,-0.371569 c 0.15339,-0.63518 0.111119,-1.322939 -0.165366,-1.968347 -0.511082,-1.192958 -1.678773,-1.907103 -2.901629,-1.902217 z m 23.566518,0.245497 c -0.29665,0 -0.59788,0.06059 -0.88729,0.184449 -1.01501,0.434834 -1.55384,1.523024 -1.33686,2.564761 l -1.4857,0.636613 v 0.98603 l 1.84278,-0.789658 c 0.60449,0.875726 1.76364,1.236349 2.77864,0.801516 1.15761,-0.495882 1.69586,-1.841168 1.19993,-2.998812 -0.37194,-0.868168 -1.22155,-1.388417 -2.1115,-1.384899 z m -23.561351,0.663 c 0.869764,-0.0065 1.699954,0.504613 2.063438,1.352909 0.484649,1.131257 -0.04176,2.446377 -1.173053,2.931052 -1.131348,0.484676 -2.445921,-0.0417 -2.93057,-1.17302 -0.48465,-1.131257 0.04176,-2.445921 1.173053,-2.930596 0.282837,-0.121185 0.577212,-0.179172 0.867132,-0.180345 z m 23.566001,0.243413 c 0.53685,0 1.04946,0.311238 1.27382,0.83507 0.29916,0.698314 -0.0257,1.509994 -0.72399,1.809178 -0.69825,0.299118 -1.5095,-0.02541 -1.80866,-0.723984 -0.29916,-0.698313 0.0257,-1.509993 0.72398,-1.809177 0.17458,-0.0748 0.3559,-0.11037 0.53485,-0.111087 z m -0.68109,8.01034 c -0.40763,0 -0.82139,0.08288 -1.21905,0.253251 -0.64545,0.276511 -1.15032,0.745354 -1.47743,1.311015 l -0.43512,-0.174155 c -0.0962,0.29762 -0.26021,0.565466 -0.47232,0.787052 l 0.57051,0.228363 c -0.1534,0.635114 -0.11061,1.323003 0.16588,1.968412 0.68144,1.590587 2.52957,2.330403 4.12016,1.648965 1.59059,-0.681374 2.33044,-2.530034 1.64899,-4.120687 -0.51107,-1.192957 -1.67875,-1.907103 -2.90162,-1.902216 z m 0.005,0.905892 c 0.86976,-0.0065 1.69995,0.505133 2.06344,1.353429 0.48465,1.131323 -0.0412,2.445856 -1.17254,2.930532 -1.13135,0.484675 -2.44644,-0.0417 -2.93109,-1.1725 -0.48465,-1.131322 0.0418,-2.446441 1.17306,-2.931117 0.28283,-0.121185 0.57721,-0.179172 0.86713,-0.180344 z m -23.47712,0.560709 c -0.324027,-0.01108 -0.655364,0.04691 -0.97255,0.182951 -1.157618,0.495947 -1.695856,1.841167 -1.199929,2.998746 0.495928,1.157644 1.841168,1.695876 2.998786,1.199929 1.014997,-0.434833 1.553854,-1.522373 1.336868,-2.564174 l 0.63976,-0.273905 c -0.0026,-0.043 -0.0067,-0.08528 -0.0067,-0.128677 0,-0.351828 0.0988,-0.680201 0.263551,-0.967397 l -1.253152,0.536929 c -0.41558,-0.602082 -1.093761,-0.960425 -1.80661,-0.984402 z m -0.0801,0.904849 c 0.536831,0 1.048936,0.311173 1.273305,0.83507 0.299158,0.698314 -0.02522,1.509603 -0.723469,1.808656 -0.698314,0.29925 -1.510033,-0.02476 -1.809191,-0.723462 -0.299158,-0.698313 0.02567,-1.509993 0.723984,-1.809177 0.174578,-0.0748 0.356428,-0.11037 0.535371,-0.111087 z m 15.31793,2.491333 c -0.3189,1.3e-4 -0.660245,0 -0.985992,0 l 1.68465,3.932068 c -0.875752,0.604492 -1.235815,1.763635 -0.800982,2.778658 0.495921,1.157645 1.84066,1.695876 2.998265,1.199929 1.157611,-0.495947 1.696369,-1.841233 1.20045,-2.998812 -0.434834,-1.015023 -1.522946,-1.553906 -2.564702,-1.336881 z m -6.205828,0 -0.835604,2.088229 c -0.635147,-0.153371 -1.322977,-0.111152 -1.96836,0.165359 -1.590647,0.681439 -2.330436,2.530034 -1.648991,4.120687 0.681438,1.590653 2.530079,2.330469 4.12068,1.64903 1.590588,-0.681438 2.33043,-2.530099 1.648991,-4.120687 -0.276517,-0.645473 -0.745399,-1.150868 -1.311028,-1.477937 l 0.969964,-2.42416 c -0.327494,1.3e-4 -0.647716,-5.21e-4 -0.975652,-5.21e-4 z m -1.580268,2.906294 c 0.869771,-0.0065 1.700469,0.505134 2.06396,1.35343 0.484649,1.131257 -0.04176,2.445855 -1.173053,2.930531 -1.131348,0.484675 -2.445921,-0.0417 -2.93057,-1.173021 -0.48465,-1.131257 0.04176,-2.44592 1.173053,-2.930596 0.282837,-0.121185 0.576691,-0.179236 0.86661,-0.180344 z m 9.775637,1.526021 c 0.536837,0 1.04945,0.311237 1.273819,0.83507 0.299164,0.698313 -0.02574,1.510058 -0.723984,1.809177 -0.698255,0.299184 -1.510032,-0.02541 -1.80919,-0.723983 -0.299158,-0.698314 0.02573,-1.509538 0.723983,-1.808656 0.174566,-0.0748 0.356422,-0.110891 0.535372,-0.111608 z"
         id="path3713" />
      <path
         inkscape:connector-curvature="0"
         id="path3715"
         d="m 90.130552,35.349025 c -0.06773,0.0065 -0.134568,0.03323 -0.190945,0.07962 -0.150308,0.124377 -0.171242,0.347332 -0.04684,0.497641 l 0.156466,0.188749 -0.622781,0.515363 -0.21657,-0.2612 c -0.124252,-0.15018 -0.346946,-0.171681 -0.497262,-0.04756 l -3.429898,2.838991 c -0.150289,0.124443 -0.171243,0.347332 -0.04685,0.497641 l 0.216133,0.261265 -1.05063,0.869405 c -0.150224,0.124378 -0.17123,0.347398 -0.04685,0.497707 l 0.952939,1.150933 c 0.124436,0.150309 0.34696,0.171288 0.49725,0.04691 l 1.050636,-0.869405 0.281104,0.339904 c 0.124391,0.150244 0.346935,0.171223 0.49725,0.04691 l 0.678904,-0.561817 c 0.185935,0.125355 0.40341,0.207318 0.637812,0.231229 0.400159,0.82217 0.592198,1.648379 0.585207,2.514983 -0.260502,0.23996 -0.451232,0.554129 -0.538798,0.908693 h -0.868116 v -1.111059 c 0,-0.1952 -0.158486,-0.353652 -0.353607,-0.353652 h -2.280972 c -0.195114,0 -0.294076,0.167639 -0.353157,0.353652 v 1.111124 h -0.100779 c -0.626618,0 -1.136371,0.50976 -1.136371,1.136405 0,0.628143 0.508313,1.135948 1.136371,1.135948 3.80599,0.0091 7.956087,0 11.527811,0 0.210126,0 0.380118,-0.183016 0.380118,-0.393135 0,-0.21012 -0.169992,-0.380561 -0.380118,-0.380561 -0.689074,0 -1.249966,-0.560449 -1.249966,-1.249575 v -0.02736 h 3.342085 c 0.657371,0 1.195609,-0.531455 1.195609,-1.195563 v -6.928339 c 0,-0.668473 -0.542982,-1.195563 -1.195609,-1.195563 h -7.791262 c -0.148465,-0.179367 -0.346635,-0.419131 -0.43183,-0.522008 -0.07776,-0.09395 -0.193863,-0.137474 -0.306748,-0.126463 z m 0.369068,1.310559 c 0.191531,0.23136 0.07863,0.0948 0.502104,0.606447 l -0.622775,0.515754 -0.502104,-0.606838 z m 0.999354,0.09897 h 7.161398 c 0.239347,0 0.434482,0.193701 0.434482,0.434508 v 5.298202 c 0,0.239439 -0.193662,0.434508 -0.434482,0.434508 h -6.854207 c -0.235047,-0.914753 -0.667952,-1.756859 -1.316709,-2.543651 0.0172,-0.234356 -0.02339,-0.4549 -0.108735,-0.653748 l 0.682885,-0.565336 c 0.150296,-0.124377 0.171217,-0.346876 0.04685,-0.49725 l -0.28111,-0.339839 0.622774,-0.515363 0.156466,0.188684 c 0.12443,0.150374 0.347372,0.171223 0.497687,0.04691 0.150321,-0.124377 0.171242,-0.346941 0.04685,-0.497185 -0.144295,-0.174415 -0.40051,-0.483893 -0.654159,-0.790375 z m -2.608224,0.333325 c 0.160459,0.193896 1.259504,1.52159 1.450195,1.752103 l -0.393383,0.326092 c -1.170915,-0.904263 -2.775531,0.416721 -2.103025,1.74018 l -0.388959,0.321792 C 87.325689,41.07509 86.156734,39.662827 86.005383,39.479941 Z m 0.202431,2.492831 c 0.382476,0 0.693935,0.311042 0.693935,0.693557 0,0.382385 -0.311459,0.693883 -0.693935,0.693883 -0.382457,0 -0.693492,-0.311498 -0.693492,-0.693883 0,-0.382515 0.311009,-0.693557 0.693492,-0.693557 z m -3.190343,0.879569 0.502111,0.606448 -0.778361,0.644431 -0.502554,-0.606903 z m 4.286938,0.683785 c 0.585462,0.801972 0.937088,1.665449 1.065218,2.616622 -0.328939,-0.089 -0.68454,-0.08652 -1.02234,0.01824 -0.04333,-0.763858 -0.227613,-1.500807 -0.557804,-2.231632 0.201943,-0.09265 0.378202,-0.231554 0.514926,-0.403559 z m 1.69772,2.132663 c 0.0091,0.0443 0.0157,0.08998 0.02391,0.134802 -0.0079,-0.04496 -0.01511,-0.09017 -0.02391,-0.134802 z m 7.207358,0.324398 V 44.1214 c 0,0.239374 -0.193662,0.434508 -0.434482,0.434508 H 92.3233 c -0.08949,-0.140927 -0.195773,-0.270452 -0.319121,-0.381929 -0.0098,-0.165033 -0.209605,-0.487542 -0.04776,-0.487542 h 6.703931 c 0.151201,0 0.297815,-0.02802 0.434481,-0.08131 z m -13.247123,0.731998 h 1.574222 v 0.757994 h -1.574222 z m 4.929018,0.07069 c 0.621237,0 1.126651,0.505395 1.126651,1.126697 0,0.621106 -0.505538,1.1265 -1.126651,1.126631 h -4.49e-4 -6.52e-4 c -0.620833,-3.91e-4 -1.125771,-0.505785 -1.125771,-1.126631 0,-0.621302 0.505863,-1.126697 1.1271,-1.126697 z m 1.952645,0.909215 h 1.828235 v 0.02736 c 2.6e-5,0.471841 0.874996,1.249576 0.436247,1.249576 h -2.701172 c 0.273162,-0.343358 0.43669,-0.777735 0.43669,-1.249576 z m -7.689127,0.481809 h 3.922588 c 0.04711,0.320945 0.177894,0.615047 0.369074,0.859632 h -4.291662 c -0.237673,0 -0.430064,-0.192006 -0.430064,-0.429555 0,-0.237028 0.193049,-0.430077 0.430064,-0.430077 z"
         style="fill:#1e1e1e;fill-opacity:1;stroke-width:0.24916309"
         sodipodi:nodetypes="ccccccccccccccccccccccsssscssccssscssssccccccccccssssccccccccccccscccccscsssccccccccccccccccscccscccsccsscccssscccccsccccssscc" />
      <text
         id="text3737"
         y="65.311989"
         x="83.292496"
         style="font-style:normal;font-variant:normal;font-weight:500;font-stretch:normal;font-size:7.69672632px;line-height:100%;font-family:'Keep Calm';-inkscape-font-specification:'Keep Calm Medium';font-variant-ligatures:normal;font-variant-caps:normal;font-variant-numeric:normal;font-feature-settings:normal;text-align:start;writing-mode:lr-tb;text-anchor:start;opacity:1;fill:#1e1e1e;fill-opacity:1;fill-rule:nonzero;stroke:none;stroke-width:1.21208286;stroke-linecap:round;stroke-linejoin:round;stroke-miterlimit:4;stroke-dasharray:none;stroke-dashoffset:3.82677174;stroke-opacity:1;paint-order:fill markers stroke"
         xml:space="preserve"><tspan
           style="font-style:normal;font-variant:normal;font-weight:900;font-stretch:condensed;font-family:'Helvetica Neue';-inkscape-font-specification:'Helvetica Neue Heavy Condensed';letter-spacing:-0.11853679px;fill:#1e1e1e;fill-opacity:1;stroke-width:1.21208286"
           y="65.311989"
           x="83.292496"
           sodipodi:role="line"
           id="tspan3735">biii.eu</tspan></text>
    </g>
  </g>
</svg>
