<?xml version="1.0" encoding="UTF-8" standalone="no"?>
<!-- Created with Inkscape (http://www.inkscape.org/) -->

<svg
   xmlns:dc="http://purl.org/dc/elements/1.1/"
   xmlns:cc="http://creativecommons.org/ns#"
   xmlns:rdf="http://www.w3.org/1999/02/22-rdf-syntax-ns#"
   xmlns:svg="http://www.w3.org/2000/svg"
   xmlns="http://www.w3.org/2000/svg"
   xmlns:sodipodi="http://sodipodi.sourceforge.net/DTD/sodipodi-0.dtd"
   xmlns:inkscape="http://www.inkscape.org/namespaces/inkscape"
   width="46.472759mm"
   height="31.167002mm"
   viewBox="0 0 46.472759 31.167001"
   version="1.1"
   id="svg4189"
   inkscape:version="0.92.4 (unknown)"
   sodipodi:docname="Biii.svg"
   inkscape:export-filename="/users/biocomp/delestro/Desktop/NEUBIAS/Biii logo/Biii2019logo/Biii_icon_wensite.png"
   inkscape:export-xdpi="1199.6489"
   inkscape:export-ydpi="1199.6489">
  <defs
     id="defs4183" />
  <sodipodi:namedview
     id="base"
     pagecolor="#ffffff"
     bordercolor="#666666"
     borderopacity="1.0"
     inkscape:pageopacity="0.0"
     inkscape:pageshadow="2"
     inkscape:zoom="2.296875"
     inkscape:cx="77.003474"
     inkscape:cy="73.60339"
     inkscape:document-units="mm"
     inkscape:current-layer="layer1"
     showgrid="false"
     fit-margin-top="1"
     fit-margin-left="1"
     fit-margin-right="1"
     fit-margin-bottom="1"
     inkscape:window-width="958"
     inkscape:window-height="1027"
     inkscape:window-x="0"
     inkscape:window-y="24"
     inkscape:window-maximized="0" />
  <metadata
     id="metadata4186">
    <rdf:RDF>
      <cc:Work
         rdf:about="">
        <dc:format>image/svg+xml</dc:format>
        <dc:type
           rdf:resource="http://purl.org/dc/dcmitype/StillImage" />
        <dc:title></dc:title>
      </cc:Work>
    </rdf:RDF>
  </metadata>
  <g
     inkscape:label="Layer 1"
     inkscape:groupmode="layer"
     id="layer1"
     transform="translate(-65.821073,-117.20089)">
    <g
       transform="translate(-59.913578,90.879408)"
       id="g4091">
      <path
         inkscape:connector-curvature="0"
         id="path3847"
         d="m 145.88108,27.32151 c -0.40762,0.002 -0.8214,0.0834 -1.21905,0.25373 -1.59059,0.68137 -2.33044,2.53002 -1.64899,4.12068 0.27651,0.64547 0.7454,1.15029 1.31103,1.47743 l -0.67903,1.69705 h 0.97617 l 0.54415,-1.36013 c 0.63515,0.15344 1.32297,0.11057 1.96836,-0.16588 1.59064,-0.68144 2.33044,-2.52951 1.64899,-4.12016 -0.51108,-1.19299 -1.67877,-1.90763 -2.90163,-1.90272 z m -9.76633,0.18293 c -0.29665,0.001 -0.59788,0.0605 -0.88728,0.18449 -1.15761,0.49588 -1.69585,1.84114 -1.19993,2.99878 0.43483,1.01496 1.52295,1.55383 2.5647,1.33687 l 1.34566,3.14141 c 0.13504,-0.0356 0.2746,-0.0501 0.41289,-0.0393 0.0534,-0.21186 0.15132,-0.41176 0.31213,-0.5705 l -1.23765,-2.88872 c 0.87574,-0.60449 1.23581,-1.76361 0.80098,-2.77864 -0.37194,-0.86818 -1.22154,-1.38798 -2.1115,-1.38441 z m 9.77098,0.72347 c 0.86976,-0.003 1.70047,0.50459 2.06396,1.35289 0.48465,1.13132 -0.0417,2.44641 -1.17306,2.93109 -1.13135,0.48467 -2.44592,-0.042 -2.93057,-1.17306 -0.48465,-1.13132 0.0412,-2.44589 1.17254,-2.93057 0.28284,-0.12117 0.57721,-0.17921 0.86713,-0.18035 z m -9.76633,0.18242 c 0.53684,-0.002 1.04946,0.31172 1.27383,0.83561 0.29916,0.69824 -0.0252,1.50949 -0.72347,1.80867 -0.69826,0.29912 -1.51004,-0.0255 -1.8092,-0.72398 -0.29916,-0.69832 0.0257,-1.5095 0.72399,-1.80868 0.17456,-0.0748 0.35591,-0.1109 0.53485,-0.11162 z m -6.26318,5.77432 c -0.40762,0.002 -0.8214,0.0829 -1.21905,0.25322 -1.59059,0.68137 -2.33043,2.53002 -1.64899,4.12068 0.68143,1.59065 2.53003,2.33043 4.12068,1.64899 v 0.002 c 0.64544,-0.27651 1.15032,-0.74486 1.47742,-1.31052 l 1.06661,0.42685 c -0.0439,-0.31086 0.0317,-0.63316 0.22117,-0.89039 l -0.95084,-0.38033 c 0.15339,-0.63518 0.1106,-1.32295 -0.16589,-1.96836 -0.51108,-1.19299 -1.67825,-1.90711 -2.90111,-1.90221 z m 0.005,0.90848 c 0.86976,-0.003 1.69995,0.50459 2.06344,1.35288 0.48464,1.13126 -0.0412,2.4459 -1.17254,2.93057 -1.13135,0.48468 -2.44592,-0.0415 -2.93057,-1.17253 -0.48465,-1.13126 0.0412,-2.4459 1.17253,-2.93057 0.28284,-0.12117 0.57721,-0.17922 0.86714,-0.18035 z m -0.58653,9.72033 c -0.32402,-0.0109 -0.65536,0.047 -0.97255,0.18294 -1.15761,0.49594 -1.69586,1.8412 -1.19993,2.99878 0.49593,1.15764 1.84117,1.69587 2.99878,1.19993 1.01501,-0.43484 1.55386,-1.52239 1.33687,-2.56419 l 0.96428,-0.41341 c -0.0123,-0.0882 -0.0212,-0.17748 -0.0212,-0.26872 0,-0.27742 0.0628,-0.54002 0.16846,-0.78031 l -1.46864,0.62942 c -0.41558,-0.60211 -1.09324,-0.96046 -1.80609,-0.98444 z m -0.0806,0.90486 c 0.53683,-0.002 1.04946,0.3112 1.27383,0.83509 0.29915,0.69831 -0.0257,1.50955 -0.72399,1.80867 -0.69831,0.29919 -1.50952,-0.0256 -1.80868,-0.72398 -0.29915,-0.69832 0.0257,-1.5095 0.72399,-1.80868 0.17458,-0.0748 0.35591,-0.11038 0.53485,-0.1111 z m 15.19856,2.21278 c -0.32187,1.7e-4 -0.65729,2.7e-4 -0.98547,5.3e-4 l 1.80402,4.2106 c -0.87575,0.60449 -1.23633,1.76361 -0.8015,2.77864 0.49592,1.15764 1.84117,1.69639 2.99878,1.20044 1.15762,-0.49595 1.69586,-1.8412 1.19993,-2.99878 -0.43483,-1.01503 -1.52243,-1.5539 -2.56418,-1.33687 z m -5.97431,10e-4 -0.94723,2.36781 c -0.63514,-0.15337 -1.32297,-0.11114 -1.96836,0.16537 -1.59065,0.68144 -2.33044,2.53002 -1.64899,4.12067 0.68144,1.59066 2.52956,2.33044 4.12016,1.649 1.59059,-0.68144 2.33043,-2.53009 1.64899,-4.12068 -0.27651,-0.64547 -0.74488,-1.15087 -1.31051,-1.47794 l 1.08159,-2.70372 c -0.32767,1.3e-4 -0.64776,-5.2e-4 -0.97565,-5.2e-4 z m -1.69189,3.18585 c 0.86976,-0.003 1.69995,0.50459 2.06344,1.35289 0.48465,1.13126 -0.0412,2.44641 -1.17254,2.93109 -1.13135,0.48467 -2.44592,-0.042 -2.93057,-1.17306 -0.48465,-1.13126 0.0412,-2.44589 1.17254,-2.93057 0.28284,-0.12117 0.57721,-0.17921 0.86713,-0.18035 z m 9.77511,1.52598 c 0.53684,-0.002 1.04945,0.31126 1.27382,0.83509 0.29916,0.69831 -0.0257,1.51007 -0.72399,1.80919 -0.69825,0.29919 -1.50951,-0.0255 -1.80867,-0.72398 -0.29916,-0.69832 0.0257,-1.51008 0.72399,-1.80919 0.17456,-0.0748 0.3559,-0.11038 0.53485,-0.11111 z"
         style="fill:#1e1e1e;fill-opacity:1;stroke-width:0.0604129" />
      <path
         sodipodi:nodetypes="ccccccccccccccccccccccsssscssccssscssssccccccccccssssccccccccccccscccccscsssccccccccccccccccscccscccsccsscccssscccccsccccssscc"
         style="fill:#1e1e1e;fill-opacity:1;stroke-width:0.24916309"
         d="m 139.45204,35.07003 c -0.0677,0.007 -0.13456,0.0332 -0.19094,0.0796 -0.15031,0.12438 -0.17124,0.34733 -0.0469,0.49764 l 0.15647,0.18875 -0.62278,0.51536 -0.21657,-0.2612 c -0.12425,-0.15018 -0.34694,-0.17168 -0.49726,-0.0476 l -3.4299,2.83899 c -0.15029,0.12444 -0.17124,0.34733 -0.0468,0.49764 l 0.21613,0.26127 -1.05063,0.8694 c -0.15022,0.12438 -0.17123,0.3474 -0.0468,0.49771 l 0.95293,1.15093 c 0.12444,0.15031 0.34697,0.17129 0.49725,0.0469 l 1.05064,-0.8694 0.2811,0.3399 c 0.1244,0.15025 0.34694,0.17123 0.49726,0.0469 l 0.6789,-0.56181 c 0.18593,0.12535 0.40341,0.20731 0.63781,0.23122 0.40016,0.82217 0.5922,1.64838 0.58521,2.51499 -0.2605,0.23996 -0.45123,0.55413 -0.5388,0.90869 h -0.86812 v -1.11106 c 0,-0.1952 -0.15848,-0.35365 -0.3536,-0.35365 h -2.28097 c -0.19512,0 -0.29408,0.16764 -0.35316,0.35365 v 1.11113 h -0.10078 c -0.62662,0 -1.13637,0.50976 -1.13637,1.1364 0,0.62814 0.50831,1.13595 1.13637,1.13595 3.80599,0.009 7.95609,0 11.52781,0 0.21013,0 0.38012,-0.18302 0.38012,-0.39314 0,-0.21012 -0.16999,-0.38056 -0.38012,-0.38056 -0.68907,0 -1.24997,-0.56045 -1.24997,-1.24957 v -0.0274 h 3.34209 c 0.65737,0 1.19561,-0.53145 1.19561,-1.19556 v -6.92834 c 0,-0.66847 -0.54298,-1.19556 -1.19561,-1.19556 h -7.79126 c -0.14847,-0.17937 -0.34664,-0.41913 -0.43183,-0.52201 -0.0778,-0.0939 -0.19387,-0.13747 -0.30675,-0.12646 z m 0.36907,1.31056 c 0.19153,0.23136 0.0786,0.0948 0.5021,0.60645 l -0.62277,0.51575 -0.5021,-0.60684 z m 0.99935,0.099 h 7.1614 c 0.23935,0 0.43448,0.1937 0.43448,0.43451 v 5.2982 c 0,0.23944 -0.19366,0.43451 -0.43448,0.43451 h -6.8542 c -0.23505,-0.91476 -0.66796,-1.75686 -1.31671,-2.54365 0.0172,-0.23436 -0.0234,-0.4549 -0.10874,-0.65375 l 0.68289,-0.56534 c 0.15029,-0.12438 0.17121,-0.34687 0.0468,-0.49725 l -0.28111,-0.33984 0.62278,-0.51536 0.15646,0.18868 c 0.12443,0.15038 0.34737,0.17123 0.49769,0.0469 0.15032,-0.12437 0.17124,-0.34694 0.0468,-0.49718 -0.14429,-0.17442 -0.40051,-0.48389 -0.65415,-0.79038 z m -2.60822,0.33332 c 0.16046,0.1939 1.25951,1.52159 1.4502,1.75211 l -0.39339,0.32609 c -1.17091,-0.90426 -2.77553,0.41672 -2.10302,1.74018 l -0.38896,0.32179 c -0.12989,-0.15695 -1.29885,-1.56922 -1.4502,-1.7521 z m 0.20243,2.49283 c 0.38248,0 0.69394,0.31105 0.69394,0.69356 0,0.38239 -0.31146,0.69388 -0.69394,0.69388 -0.38245,0 -0.69349,-0.31149 -0.69349,-0.69388 0,-0.38251 0.31101,-0.69356 0.69349,-0.69356 z m -3.19034,0.87957 0.50211,0.60645 -0.77836,0.64443 -0.50255,-0.6069 z m 4.28694,0.68379 c 0.58546,0.80197 0.93708,1.66545 1.06522,2.61662 -0.32894,-0.089 -0.68454,-0.0865 -1.02235,0.0182 -0.0433,-0.76385 -0.22761,-1.5008 -0.5578,-2.23163 0.20194,-0.0927 0.3782,-0.23155 0.51493,-0.40356 z m 1.69772,2.13266 c 0.009,0.0443 0.0157,0.09 0.0239,0.1348 -0.008,-0.045 -0.0151,-0.0902 -0.0239,-0.1348 z m 7.20735,0.3244 v 0.51628 c 0,0.23937 -0.19366,0.4345 -0.43448,0.4345 h -6.33707 c -0.0895,-0.14092 -0.19577,-0.27045 -0.31912,-0.38193 -0.01,-0.16503 -0.2096,-0.48754 -0.0478,-0.48754 h 6.70393 c 0.15121,0 0.29782,-0.028 0.43449,-0.0813 z m -13.24712,0.732 h 1.57422 v 0.75799 h -1.57422 z m 4.92902,0.0707 c 0.62124,0 1.12665,0.50539 1.12665,1.1267 0,0.6211 -0.50554,1.1265 -1.12665,1.12663 h -4.5e-4 -6.5e-4 c -0.62083,-4.6e-4 -1.12577,-0.50579 -1.12577,-1.12663 0,-0.62131 0.50586,-1.1267 1.1271,-1.1267 z m 1.95265,0.90921 h 1.82823 v 0.0274 c 3e-5,0.47184 0.875,1.24957 0.43625,1.24957 h -2.70117 c 0.27316,-0.34335 0.43669,-0.77773 0.43669,-1.24957 z m -7.68913,0.48181 h 3.92259 c 0.0471,0.32095 0.17789,0.61505 0.36907,0.85964 h -4.29166 c -0.23768,0 -0.43007,-0.19201 -0.43007,-0.42956 0,-0.23703 0.19305,-0.43008 0.43007,-0.43008 z"
         id="path3849"
         inkscape:connector-curvature="0" />
      <path
         id="path3861"
         d="m 152.13599,34.98102 a 0.29327804,0.29327804 0 0 0 -0.29257,0.29292 v 10.92591 a 0.29327804,0.29327804 0 0 0 0.29257,0.29257 h 5.29511 c 0.51367,0 1.01285,-0.0644 1.49659,-0.19325 0.49826,-0.12999 0.94467,-0.33229 1.33228,-0.60839 h 0.002 c 0.4033,-0.28037 0.72723,-0.64457 0.96193,-1.08044 a 0.29327804,0.29327804 0 0 0 0.002,0 c 0.23948,-0.45615 0.35487,-0.98517 0.35487,-1.57403 0,-0.73017 -0.1831,-1.37755 -0.55587,-1.91004 -0.28123,-0.4205 -0.71033,-0.71131 -1.20502,-0.93297 0.29679,-0.2036 0.62171,-0.38845 0.80671,-0.66528 0.29331,-0.42331 0.43501,-0.94714 0.43501,-1.54238 0,-0.54129 -0.0923,-1.01404 -0.2899,-1.4114 -0.18357,-0.38937 -0.45573,-0.70993 -0.80435,-0.94274 -0.34163,-0.2382 -0.74549,-0.40448 -1.20366,-0.50267 -0.45221,-0.0969 -0.94763,-0.14377 -1.48512,-0.14377 z m 2.6952,2.45345 h 1.95717 c 0.19561,0 0.37868,0.0184 0.55117,0.0549 a 0.29327804,0.29327804 0 0 0 0.0166,0 c 0.17231,0.0261 0.31276,0.0756 0.42894,0.14511 0.10947,0.0657 0.19275,0.15174 0.26194,0.27473 0.0598,0.10628 0.10067,0.2636 0.10067,0.48349 0,0.40037 -0.10436,0.61847 -0.29527,0.75991 -0.21688,0.16028 -0.49904,0.24815 -0.88044,0.24815 h -2.14068 z m 0,4.19178 h 2.32384 c 0.47426,0 0.82069,0.10957 1.07538,0.30673 a 0.29327804,0.29327804 0 0 0 0.005,0.006 c 0.22643,0.16805 0.35624,0.45124 0.35624,0.95722 0,0.2507 -0.0462,0.43509 -0.11685,0.56227 a 0.29327804,0.29327804 0 0 0 -0.005,0.0117 c -0.0707,0.14132 -0.16292,0.24424 -0.28383,0.32828 -0.13029,0.0804 -0.28335,0.1443 -0.46565,0.18821 -0.19272,0.0365 -0.39584,0.0549 -0.61076,0.0549 h -2.27803 z"
         style="color:#000000;font-style:normal;font-variant:normal;font-weight:bold;font-stretch:normal;font-size:33.91718292px;line-height:100%;font-family:'Helvetica Neue';-inkscape-font-specification:'Helvetica Neue Bold';font-variant-ligatures:normal;font-variant-position:normal;font-variant-caps:normal;font-variant-numeric:normal;font-variant-alternates:normal;font-feature-settings:normal;text-indent:0;text-align:start;text-decoration:none;text-decoration-line:none;text-decoration-style:solid;text-decoration-color:#000000;letter-spacing:-2.0085485px;word-spacing:normal;text-transform:none;writing-mode:lr-tb;direction:ltr;text-orientation:mixed;dominant-baseline:auto;baseline-shift:baseline;text-anchor:start;white-space:normal;shape-padding:0;clip-rule:nonzero;display:inline;overflow:visible;visibility:visible;opacity:1;isolation:auto;mix-blend-mode:normal;color-interpolation:sRGB;color-interpolation-filters:linearRGB;solid-color:#000000;solid-opacity:1;vector-effect:none;fill:#1e1e1e;fill-opacity:1;fill-rule:nonzero;stroke:none;stroke-width:0.58649743;stroke-linecap:round;stroke-linejoin:round;stroke-miterlimit:4;stroke-dasharray:none;stroke-dashoffset:3.82677174;stroke-opacity:1;paint-order:fill markers stroke;color-rendering:auto;image-rendering:auto;shape-rendering:auto;text-rendering:auto;enable-background:accumulate"
         inkscape:connector-curvature="0" />
      <path
         id="path3863"
         d="m 162.18651,37.99574 a 0.29327804,0.29327804 0 0 0 -0.29394,0.29259 v 7.82632 a 0.29327804,0.29327804 0 0 0 0.29394,0.29361 h 2.1723 a 0.29327804,0.29327804 0 0 0 0.29394,-0.29361 v -7.82632 a 0.29327804,0.29327804 0 0 0 -0.29394,-0.29259 z"
         style="color:#000000;font-style:normal;font-variant:normal;font-weight:bold;font-stretch:normal;font-size:33.91718292px;line-height:100%;font-family:'Helvetica Neue';-inkscape-font-specification:'Helvetica Neue Bold';font-variant-ligatures:normal;font-variant-position:normal;font-variant-caps:normal;font-variant-numeric:normal;font-variant-alternates:normal;font-feature-settings:normal;text-indent:0;text-align:start;text-decoration:none;text-decoration-line:none;text-decoration-style:solid;text-decoration-color:#000000;letter-spacing:-2.0085485px;word-spacing:normal;text-transform:none;writing-mode:lr-tb;direction:ltr;text-orientation:mixed;dominant-baseline:auto;baseline-shift:baseline;text-anchor:start;white-space:normal;shape-padding:0;clip-rule:nonzero;display:inline;overflow:visible;visibility:visible;opacity:1;isolation:auto;mix-blend-mode:normal;color-interpolation:sRGB;color-interpolation-filters:linearRGB;solid-color:#000000;solid-opacity:1;vector-effect:none;fill:#1e1e1e;fill-opacity:1;fill-rule:nonzero;stroke:none;stroke-width:0.58649743;stroke-linecap:round;stroke-linejoin:round;stroke-miterlimit:4;stroke-dasharray:none;stroke-dashoffset:3.82677174;stroke-opacity:1;paint-order:fill markers stroke;color-rendering:auto;image-rendering:auto;shape-rendering:auto;text-rendering:auto;enable-background:accumulate"
         inkscape:connector-curvature="0" />
      <path
         id="path3865"
         d="m 165.46316,37.99574 a 0.29327804,0.29327804 0 0 0 -0.29258,0.29259 v 7.82632 a 0.29327804,0.29327804 0 0 0 0.29258,0.29361 h 2.17367 a 0.29327804,0.29327804 0 0 0 0.29257,-0.29361 v -7.82632 a 0.29327804,0.29327804 0 0 0 -0.29257,-0.29259 z"
         style="color:#000000;font-style:normal;font-variant:normal;font-weight:bold;font-stretch:normal;font-size:33.91718292px;line-height:100%;font-family:'Helvetica Neue';-inkscape-font-specification:'Helvetica Neue Bold';font-variant-ligatures:normal;font-variant-position:normal;font-variant-caps:normal;font-variant-numeric:normal;font-variant-alternates:normal;font-feature-settings:normal;text-indent:0;text-align:start;text-decoration:none;text-decoration-line:none;text-decoration-style:solid;text-decoration-color:#000000;letter-spacing:-2.0085485px;word-spacing:normal;text-transform:none;writing-mode:lr-tb;direction:ltr;text-orientation:mixed;dominant-baseline:auto;baseline-shift:baseline;text-anchor:start;white-space:normal;shape-padding:0;clip-rule:nonzero;display:inline;overflow:visible;visibility:visible;opacity:1;isolation:auto;mix-blend-mode:normal;color-interpolation:sRGB;color-interpolation-filters:linearRGB;solid-color:#000000;solid-opacity:1;vector-effect:none;fill:#1e1e1e;fill-opacity:1;fill-rule:nonzero;stroke:none;stroke-width:0.58649743;stroke-linecap:round;stroke-linejoin:round;stroke-miterlimit:4;stroke-dasharray:none;stroke-dashoffset:3.82677174;stroke-opacity:1;paint-order:fill markers stroke;color-rendering:auto;image-rendering:auto;shape-rendering:auto;text-rendering:auto;enable-background:accumulate"
         inkscape:connector-curvature="0" />
      <path
         id="path3867"
         d="m 168.74116,37.99574 a 0.29327804,0.29327804 0 0 0 -0.29258,0.29259 v 7.82632 a 0.29327804,0.29327804 0 0 0 0.29258,0.29361 h 2.17367 a 0.29327804,0.29327804 0 0 0 0.29258,-0.29361 v -7.82632 a 0.29327804,0.29327804 0 0 0 -0.29258,-0.29259 z"
         style="color:#000000;font-style:normal;font-variant:normal;font-weight:bold;font-stretch:normal;font-size:33.91718292px;line-height:100%;font-family:'Helvetica Neue';-inkscape-font-specification:'Helvetica Neue Bold';font-variant-ligatures:normal;font-variant-position:normal;font-variant-caps:normal;font-variant-numeric:normal;font-variant-alternates:normal;font-feature-settings:normal;text-indent:0;text-align:start;text-decoration:none;text-decoration-line:none;text-decoration-style:solid;text-decoration-color:#000000;letter-spacing:-2.0085485px;word-spacing:normal;text-transform:none;writing-mode:lr-tb;direction:ltr;text-orientation:mixed;dominant-baseline:auto;baseline-shift:baseline;text-anchor:start;white-space:normal;shape-padding:0;clip-rule:nonzero;display:inline;overflow:visible;visibility:visible;opacity:1;isolation:auto;mix-blend-mode:normal;color-interpolation:sRGB;color-interpolation-filters:linearRGB;solid-color:#000000;solid-opacity:1;vector-effect:none;fill:#1e1e1e;fill-opacity:1;fill-rule:nonzero;stroke:none;stroke-width:0.58649743;stroke-linecap:round;stroke-linejoin:round;stroke-miterlimit:4;stroke-dasharray:none;stroke-dashoffset:3.82677174;stroke-opacity:1;paint-order:fill markers stroke;color-rendering:auto;image-rendering:auto;shape-rendering:auto;text-rendering:auto;enable-background:accumulate"
         inkscape:connector-curvature="0" />
      <path
         id="path3869"
         d="m 163.27334,34.85644 c -0.75096,0 -1.36663,0.61567 -1.36663,1.36663 0,0.75096 0.61567,1.36562 1.36663,1.36562 0.75094,0 1.36527,-0.61466 1.36527,-1.36562 0,-0.75096 -0.61433,-1.36663 -1.36527,-1.36663 z"
         style="color:#000000;font-style:normal;font-variant:normal;font-weight:normal;font-stretch:normal;font-size:medium;line-height:normal;font-family:sans-serif;font-variant-ligatures:normal;font-variant-position:normal;font-variant-caps:normal;font-variant-numeric:normal;font-variant-alternates:normal;font-feature-settings:normal;text-indent:0;text-align:start;text-decoration:none;text-decoration-line:none;text-decoration-style:solid;text-decoration-color:#000000;letter-spacing:normal;word-spacing:normal;text-transform:none;writing-mode:lr-tb;direction:ltr;text-orientation:mixed;dominant-baseline:auto;baseline-shift:baseline;text-anchor:start;white-space:normal;shape-padding:0;clip-rule:nonzero;display:inline;overflow:visible;visibility:visible;opacity:1;isolation:auto;mix-blend-mode:normal;color-interpolation:sRGB;color-interpolation-filters:linearRGB;solid-color:#000000;solid-opacity:1;vector-effect:none;fill:#1e1e1e;fill-opacity:1;fill-rule:nonzero;stroke:none;stroke-width:0.58649743;stroke-linecap:round;stroke-linejoin:round;stroke-miterlimit:4;stroke-dasharray:none;stroke-dashoffset:0;stroke-opacity:1;paint-order:fill markers stroke;color-rendering:auto;image-rendering:auto;shape-rendering:auto;text-rendering:auto;enable-background:accumulate"
         inkscape:connector-curvature="0" />
      <path
         id="path3871"
         d="m 166.55,34.85644 c -0.75096,0 -1.36529,0.61567 -1.36527,1.36663 0,0.75096 0.61431,1.36562 1.36527,1.36562 0.75096,0 1.36661,-0.61466 1.36661,-1.36562 0,-0.75096 -0.61565,-1.36663 -1.36661,-1.36663 z"
         style="color:#000000;font-style:normal;font-variant:normal;font-weight:normal;font-stretch:normal;font-size:medium;line-height:normal;font-family:sans-serif;font-variant-ligatures:normal;font-variant-position:normal;font-variant-caps:normal;font-variant-numeric:normal;font-variant-alternates:normal;font-feature-settings:normal;text-indent:0;text-align:start;text-decoration:none;text-decoration-line:none;text-decoration-style:solid;text-decoration-color:#000000;letter-spacing:normal;word-spacing:normal;text-transform:none;writing-mode:lr-tb;direction:ltr;text-orientation:mixed;dominant-baseline:auto;baseline-shift:baseline;text-anchor:start;white-space:normal;shape-padding:0;clip-rule:nonzero;display:inline;overflow:visible;visibility:visible;opacity:1;isolation:auto;mix-blend-mode:normal;color-interpolation:sRGB;color-interpolation-filters:linearRGB;solid-color:#000000;solid-opacity:1;vector-effect:none;fill:#1e1e1e;fill-opacity:1;fill-rule:nonzero;stroke:none;stroke-width:0.58649743;stroke-linecap:round;stroke-linejoin:round;stroke-miterlimit:4;stroke-dasharray:none;stroke-dashoffset:0;stroke-opacity:1;paint-order:fill markers stroke;color-rendering:auto;image-rendering:auto;shape-rendering:auto;text-rendering:auto;enable-background:accumulate"
         inkscape:connector-curvature="0" />
      <path
         id="path3873"
         d="m 169.828,34.85644 c -0.75094,0 -1.36662,0.61567 -1.36662,1.36663 0,0.75096 0.61568,1.36562 1.36662,1.36562 0.75096,0 1.36561,-0.61466 1.36561,-1.36562 0,-0.75096 -0.61465,-1.36663 -1.36561,-1.36663 z"
         style="color:#000000;font-style:normal;font-variant:normal;font-weight:normal;font-stretch:normal;font-size:medium;line-height:normal;font-family:sans-serif;font-variant-ligatures:normal;font-variant-position:normal;font-variant-caps:normal;font-variant-numeric:normal;font-variant-alternates:normal;font-feature-settings:normal;text-indent:0;text-align:start;text-decoration:none;text-decoration-line:none;text-decoration-style:solid;text-decoration-color:#000000;letter-spacing:normal;word-spacing:normal;text-transform:none;writing-mode:lr-tb;direction:ltr;text-orientation:mixed;dominant-baseline:auto;baseline-shift:baseline;text-anchor:start;white-space:normal;shape-padding:0;clip-rule:nonzero;display:inline;overflow:visible;visibility:visible;opacity:1;isolation:auto;mix-blend-mode:normal;color-interpolation:sRGB;color-interpolation-filters:linearRGB;solid-color:#000000;solid-opacity:1;vector-effect:none;fill:#1e1e1e;fill-opacity:1;fill-rule:nonzero;stroke:none;stroke-width:0.58649743;stroke-linecap:round;stroke-linejoin:round;stroke-miterlimit:4;stroke-dasharray:none;stroke-dashoffset:0;stroke-opacity:1;paint-order:fill markers stroke;color-rendering:auto;image-rendering:auto;shape-rendering:auto;text-rendering:auto;enable-background:accumulate"
         inkscape:connector-curvature="0" />
      <path
         inkscape:connector-curvature="0"
         style="color:#000000;font-style:normal;font-variant:normal;font-weight:bold;font-stretch:normal;font-size:33.91718292px;line-height:100%;font-family:'Helvetica Neue';-inkscape-font-specification:'Helvetica Neue Bold';font-variant-ligatures:normal;font-variant-position:normal;font-variant-caps:normal;font-variant-numeric:normal;font-variant-alternates:normal;font-feature-settings:normal;text-indent:0;text-align:start;text-decoration:none;text-decoration-line:none;text-decoration-style:solid;text-decoration-color:#000000;letter-spacing:-2.0085485px;word-spacing:normal;text-transform:none;writing-mode:lr-tb;direction:ltr;text-orientation:mixed;dominant-baseline:auto;baseline-shift:baseline;text-anchor:start;white-space:normal;shape-padding:0;clip-rule:nonzero;display:inline;overflow:visible;visibility:visible;opacity:1;isolation:auto;mix-blend-mode:normal;color-interpolation:sRGB;color-interpolation-filters:linearRGB;solid-color:#000000;solid-opacity:1;vector-effect:none;fill:#1e1e1e;fill-opacity:1;fill-rule:nonzero;stroke:none;stroke-width:0.58649743;stroke-linecap:round;stroke-linejoin:round;stroke-miterlimit:4;stroke-dasharray:none;stroke-dashoffset:3.82677174;stroke-opacity:1;paint-order:fill markers stroke;color-rendering:auto;image-rendering:auto;shape-rendering:auto;text-rendering:auto;enable-background:accumulate"
         d="m 152.13599,34.98102 a 0.29327804,0.29327804 0 0 0 -0.29257,0.29292 v 10.92591 a 0.29327804,0.29327804 0 0 0 0.29257,0.29257 h 5.29511 c 0.51367,0 1.01285,-0.0644 1.49659,-0.19325 0.49826,-0.12999 0.94467,-0.33229 1.33228,-0.60839 h 0.002 c 0.4033,-0.28037 0.72723,-0.64457 0.96193,-1.08044 a 0.29327804,0.29327804 0 0 0 0.002,0 c 0.23948,-0.45615 0.35487,-0.98517 0.35487,-1.57403 0,-0.73017 -0.1831,-1.37755 -0.55587,-1.91004 -0.28123,-0.4205 -0.71033,-0.71131 -1.20502,-0.93297 0.29679,-0.2036 0.62171,-0.38845 0.80671,-0.66528 0.29331,-0.42331 0.43501,-0.94714 0.43501,-1.54238 0,-0.54129 -0.0923,-1.01404 -0.2899,-1.4114 -0.18357,-0.38937 -0.45573,-0.70993 -0.80435,-0.94274 -0.34163,-0.2382 -0.74549,-0.40448 -1.20366,-0.50267 -0.45221,-0.0969 -0.94763,-0.14377 -1.48512,-0.14377 z m 2.6952,2.45345 h 1.95717 c 0.19561,0 0.37868,0.0184 0.55117,0.0549 a 0.29327804,0.29327804 0 0 0 0.0166,0 c 0.17231,0.0261 0.31276,0.0756 0.42894,0.14511 0.10947,0.0657 0.19275,0.15174 0.26194,0.27473 0.0598,0.10628 0.10067,0.2636 0.10067,0.48349 0,0.40037 -0.10436,0.61847 -0.29527,0.75991 -0.21688,0.16028 -0.49904,0.24815 -0.88044,0.24815 h -2.14068 z m 0,4.19178 h 2.32384 c 0.47426,0 0.82069,0.10957 1.07538,0.30673 a 0.29327804,0.29327804 0 0 0 0.005,0.006 c 0.22643,0.16805 0.35624,0.45124 0.35624,0.95722 0,0.2507 -0.0462,0.43509 -0.11685,0.56227 a 0.29327804,0.29327804 0 0 0 -0.005,0.0117 c -0.0707,0.14132 -0.16292,0.24424 -0.28383,0.32828 -0.13029,0.0804 -0.28335,0.1443 -0.46565,0.18821 -0.19272,0.0365 -0.39584,0.0549 -0.61076,0.0549 h -2.27803 z"
         id="path3875" />
      <path
         inkscape:connector-curvature="0"
         style="color:#000000;font-style:normal;font-variant:normal;font-weight:bold;font-stretch:normal;font-size:33.91718292px;line-height:100%;font-family:'Helvetica Neue';-inkscape-font-specification:'Helvetica Neue Bold';font-variant-ligatures:normal;font-variant-position:normal;font-variant-caps:normal;font-variant-numeric:normal;font-variant-alternates:normal;font-feature-settings:normal;text-indent:0;text-align:start;text-decoration:none;text-decoration-line:none;text-decoration-style:solid;text-decoration-color:#000000;letter-spacing:-2.0085485px;word-spacing:normal;text-transform:none;writing-mode:lr-tb;direction:ltr;text-orientation:mixed;dominant-baseline:auto;baseline-shift:baseline;text-anchor:start;white-space:normal;shape-padding:0;clip-rule:nonzero;display:inline;overflow:visible;visibility:visible;opacity:1;isolation:auto;mix-blend-mode:normal;color-interpolation:sRGB;color-interpolation-filters:linearRGB;solid-color:#000000;solid-opacity:1;vector-effect:none;fill:#1e1e1e;fill-opacity:1;fill-rule:nonzero;stroke:none;stroke-width:0.58649743;stroke-linecap:round;stroke-linejoin:round;stroke-miterlimit:4;stroke-dasharray:none;stroke-dashoffset:3.82677174;stroke-opacity:1;paint-order:fill markers stroke;color-rendering:auto;image-rendering:auto;shape-rendering:auto;text-rendering:auto;enable-background:accumulate"
         d="m 162.18651,37.99574 a 0.29327804,0.29327804 0 0 0 -0.29394,0.29259 v 7.82632 a 0.29327804,0.29327804 0 0 0 0.29394,0.29361 h 2.1723 a 0.29327804,0.29327804 0 0 0 0.29394,-0.29361 v -7.82632 a 0.29327804,0.29327804 0 0 0 -0.29394,-0.29259 z"
         id="path3877" />
      <path
         inkscape:connector-curvature="0"
         style="color:#000000;font-style:normal;font-variant:normal;font-weight:bold;font-stretch:normal;font-size:33.91718292px;line-height:100%;font-family:'Helvetica Neue';-inkscape-font-specification:'Helvetica Neue Bold';font-variant-ligatures:normal;font-variant-position:normal;font-variant-caps:normal;font-variant-numeric:normal;font-variant-alternates:normal;font-feature-settings:normal;text-indent:0;text-align:start;text-decoration:none;text-decoration-line:none;text-decoration-style:solid;text-decoration-color:#000000;letter-spacing:-2.0085485px;word-spacing:normal;text-transform:none;writing-mode:lr-tb;direction:ltr;text-orientation:mixed;dominant-baseline:auto;baseline-shift:baseline;text-anchor:start;white-space:normal;shape-padding:0;clip-rule:nonzero;display:inline;overflow:visible;visibility:visible;opacity:1;isolation:auto;mix-blend-mode:normal;color-interpolation:sRGB;color-interpolation-filters:linearRGB;solid-color:#000000;solid-opacity:1;vector-effect:none;fill:#1e1e1e;fill-opacity:1;fill-rule:nonzero;stroke:none;stroke-width:0.58649743;stroke-linecap:round;stroke-linejoin:round;stroke-miterlimit:4;stroke-dasharray:none;stroke-dashoffset:3.82677174;stroke-opacity:1;paint-order:fill markers stroke;color-rendering:auto;image-rendering:auto;shape-rendering:auto;text-rendering:auto;enable-background:accumulate"
         d="m 165.46316,37.99574 a 0.29327804,0.29327804 0 0 0 -0.29258,0.29259 v 7.82632 a 0.29327804,0.29327804 0 0 0 0.29258,0.29361 h 2.17367 a 0.29327804,0.29327804 0 0 0 0.29257,-0.29361 v -7.82632 a 0.29327804,0.29327804 0 0 0 -0.29257,-0.29259 z"
         id="path3879" />
      <path
         inkscape:connector-curvature="0"
         style="color:#000000;font-style:normal;font-variant:normal;font-weight:bold;font-stretch:normal;font-size:33.91718292px;line-height:100%;font-family:'Helvetica Neue';-inkscape-font-specification:'Helvetica Neue Bold';font-variant-ligatures:normal;font-variant-position:normal;font-variant-caps:normal;font-variant-numeric:normal;font-variant-alternates:normal;font-feature-settings:normal;text-indent:0;text-align:start;text-decoration:none;text-decoration-line:none;text-decoration-style:solid;text-decoration-color:#000000;letter-spacing:-2.0085485px;word-spacing:normal;text-transform:none;writing-mode:lr-tb;direction:ltr;text-orientation:mixed;dominant-baseline:auto;baseline-shift:baseline;text-anchor:start;white-space:normal;shape-padding:0;clip-rule:nonzero;display:inline;overflow:visible;visibility:visible;opacity:1;isolation:auto;mix-blend-mode:normal;color-interpolation:sRGB;color-interpolation-filters:linearRGB;solid-color:#000000;solid-opacity:1;vector-effect:none;fill:#1e1e1e;fill-opacity:1;fill-rule:nonzero;stroke:none;stroke-width:0.58649743;stroke-linecap:round;stroke-linejoin:round;stroke-miterlimit:4;stroke-dasharray:none;stroke-dashoffset:3.82677174;stroke-opacity:1;paint-order:fill markers stroke;color-rendering:auto;image-rendering:auto;shape-rendering:auto;text-rendering:auto;enable-background:accumulate"
         d="m 168.74116,37.99574 a 0.29327804,0.29327804 0 0 0 -0.29258,0.29259 v 7.82632 a 0.29327804,0.29327804 0 0 0 0.29258,0.29361 h 2.17367 a 0.29327804,0.29327804 0 0 0 0.29258,-0.29361 v -7.82632 a 0.29327804,0.29327804 0 0 0 -0.29258,-0.29259 z"
         id="path3881" />
      <path
         inkscape:connector-curvature="0"
         style="color:#000000;font-style:normal;font-variant:normal;font-weight:normal;font-stretch:normal;font-size:medium;line-height:normal;font-family:sans-serif;font-variant-ligatures:normal;font-variant-position:normal;font-variant-caps:normal;font-variant-numeric:normal;font-variant-alternates:normal;font-feature-settings:normal;text-indent:0;text-align:start;text-decoration:none;text-decoration-line:none;text-decoration-style:solid;text-decoration-color:#000000;letter-spacing:normal;word-spacing:normal;text-transform:none;writing-mode:lr-tb;direction:ltr;text-orientation:mixed;dominant-baseline:auto;baseline-shift:baseline;text-anchor:start;white-space:normal;shape-padding:0;clip-rule:nonzero;display:inline;overflow:visible;visibility:visible;opacity:1;isolation:auto;mix-blend-mode:normal;color-interpolation:sRGB;color-interpolation-filters:linearRGB;solid-color:#000000;solid-opacity:1;vector-effect:none;fill:#1e1e1e;fill-opacity:1;fill-rule:nonzero;stroke:none;stroke-width:0.58649743;stroke-linecap:round;stroke-linejoin:round;stroke-miterlimit:4;stroke-dasharray:none;stroke-dashoffset:0;stroke-opacity:1;paint-order:fill markers stroke;color-rendering:auto;image-rendering:auto;shape-rendering:auto;text-rendering:auto;enable-background:accumulate"
         d="m 163.27334,34.85644 c -0.75096,0 -1.36663,0.61567 -1.36663,1.36663 0,0.75096 0.61567,1.36562 1.36663,1.36562 0.75094,0 1.36527,-0.61466 1.36527,-1.36562 0,-0.75096 -0.61433,-1.36663 -1.36527,-1.36663 z"
         id="path3883" />
      <path
         inkscape:connector-curvature="0"
         style="color:#000000;font-style:normal;font-variant:normal;font-weight:normal;font-stretch:normal;font-size:medium;line-height:normal;font-family:sans-serif;font-variant-ligatures:normal;font-variant-position:normal;font-variant-caps:normal;font-variant-numeric:normal;font-variant-alternates:normal;font-feature-settings:normal;text-indent:0;text-align:start;text-decoration:none;text-decoration-line:none;text-decoration-style:solid;text-decoration-color:#000000;letter-spacing:normal;word-spacing:normal;text-transform:none;writing-mode:lr-tb;direction:ltr;text-orientation:mixed;dominant-baseline:auto;baseline-shift:baseline;text-anchor:start;white-space:normal;shape-padding:0;clip-rule:nonzero;display:inline;overflow:visible;visibility:visible;opacity:1;isolation:auto;mix-blend-mode:normal;color-interpolation:sRGB;color-interpolation-filters:linearRGB;solid-color:#000000;solid-opacity:1;vector-effect:none;fill:#1e1e1e;fill-opacity:1;fill-rule:nonzero;stroke:none;stroke-width:0.58649743;stroke-linecap:round;stroke-linejoin:round;stroke-miterlimit:4;stroke-dasharray:none;stroke-dashoffset:0;stroke-opacity:1;paint-order:fill markers stroke;color-rendering:auto;image-rendering:auto;shape-rendering:auto;text-rendering:auto;enable-background:accumulate"
         d="m 166.55,34.85644 c -0.75096,0 -1.36529,0.61567 -1.36527,1.36663 0,0.75096 0.61431,1.36562 1.36527,1.36562 0.75096,0 1.36661,-0.61466 1.36661,-1.36562 0,-0.75096 -0.61565,-1.36663 -1.36661,-1.36663 z"
         id="path3885" />
      <path
         inkscape:connector-curvature="0"
         style="color:#000000;font-style:normal;font-variant:normal;font-weight:normal;font-stretch:normal;font-size:medium;line-height:normal;font-family:sans-serif;font-variant-ligatures:normal;font-variant-position:normal;font-variant-caps:normal;font-variant-numeric:normal;font-variant-alternates:normal;font-feature-settings:normal;text-indent:0;text-align:start;text-decoration:none;text-decoration-line:none;text-decoration-style:solid;text-decoration-color:#000000;letter-spacing:normal;word-spacing:normal;text-transform:none;writing-mode:lr-tb;direction:ltr;text-orientation:mixed;dominant-baseline:auto;baseline-shift:baseline;text-anchor:start;white-space:normal;shape-padding:0;clip-rule:nonzero;display:inline;overflow:visible;visibility:visible;opacity:1;isolation:auto;mix-blend-mode:normal;color-interpolation:sRGB;color-interpolation-filters:linearRGB;solid-color:#000000;solid-opacity:1;vector-effect:none;fill:#1e1e1e;fill-opacity:1;fill-rule:nonzero;stroke:none;stroke-width:0.58649743;stroke-linecap:round;stroke-linejoin:round;stroke-miterlimit:4;stroke-dasharray:none;stroke-dashoffset:0;stroke-opacity:1;paint-order:fill markers stroke;color-rendering:auto;image-rendering:auto;shape-rendering:auto;text-rendering:auto;enable-background:accumulate"
         d="m 169.828,34.85644 c -0.75094,0 -1.36662,0.61567 -1.36662,1.36663 0,0.75096 0.61568,1.36562 1.36662,1.36562 0.75096,0 1.36561,-0.61466 1.36561,-1.36562 0,-0.75096 -0.61465,-1.36663 -1.36561,-1.36663 z"
         id="path3887" />
    </g>
  </g>
</svg>
